<svg xmlns="http://www.w3.org/2000/svg" xmlns:xlink="http://www.w3.org/1999/xlink" contentStyleType="text/css" height="331px" preserveAspectRatio="none" style="width:694px;height:331px;background:#FFFFFF;" version="1.1" viewBox="0 0 694 331" width="694px" zoomAndPan="magnify"><defs/><g><rect fill="none" height="20.9531" style="stroke:none;stroke-width:1;" width="661.7925" x="15" y="12.7451"/><ellipse cx="132.6455" cy="48.6982" fill="#222222" rx="10" ry="10" style="stroke:#222222;stroke-width:1;"/><rect fill="#F1F1F1" height="33.9688" rx="12.5" ry="12.5" style="stroke:#181818;stroke-width:0.5;" width="223.291" x="21" y="78.6982"/><text fill="#000000" font-family="sans-serif" font-size="12" lengthAdjust="spacing" textLength="199.4766" x="34.8145" y="99.8369">&#1042;&#1080;&#1073;&#1080;&#1088;&#1072;&#1108; &#1079;&#1072;&#1076;&#1072;&#1095;&#1091; &#1076;&#1083;&#1103; &#1074;&#1080;&#1076;&#1072;&#1083;&#1077;&#1085;&#1085;&#1103;</text><rect fill="#F1F1F1" height="33.9688" rx="12.5" ry="12.5" style="stroke:#181818;stroke-width:0.5;" width="222.248" x="21.5215" y="132.667"/><text fill="#000000" font-family="sans-serif" font-size="12" lengthAdjust="spacing" textLength="198.4336" x="35.3359" y="153.8057">&#1055;&#1110;&#1076;&#1090;&#1074;&#1077;&#1088;&#1076;&#1078;&#1091;&#1108; &#1074;&#1080;&#1076;&#1072;&#1083;&#1077;&#1085;&#1085;&#1103; &#1079;&#1072;&#1076;&#1072;&#1095;&#1110;</text><rect fill="#F1F1F1" height="33.9688" rx="12.5" ry="12.5" style="stroke:#181818;stroke-width:0.5;" width="178.2734" x="43.5088" y="243.7529"/><text fill="#000000" font-family="sans-serif" font-size="12" lengthAdjust="spacing" textLength="154.459" x="57.3232" y="264.8916">&#1059;&#1089;&#1087;&#1110;&#1096;&#1085;&#1086; &#1074;&#1080;&#1076;&#1072;&#1083;&#1103;&#1108; &#1079;&#1072;&#1076;&#1072;&#1095;&#1091;</text><ellipse cx="132.6455" cy="308.7217" fill="none" rx="11" ry="11" style="stroke:#222222;stroke-width:1;"/><ellipse cx="132.6455" cy="308.7217" fill="#222222" rx="6" ry="6" style="stroke:#222222;stroke-width:1;"/><line style="stroke:#000000;stroke-width:1.5;" x1="15" x2="15" y1="12.7451" y2="319.7217"/><path d="M466.7793,183.4873 L466.7793,199.6201 L446.7793,203.6201 L466.7793,207.6201 L466.7793,223.7529 A0,0 0 0 0 466.7793,223.7529 L669.9316,223.7529 A0,0 0 0 0 669.9316,223.7529 L669.9316,193.4873 L659.9316,183.4873 L466.7793,183.4873 A0,0 0 0 0 466.7793,183.4873 " fill="#FFAAAA" style="stroke:#181818;stroke-width:0.5;"/><path d="M659.9316,183.4873 L659.9316,193.4873 L669.9316,193.4873 L659.9316,183.4873 " fill="#FFAAAA" style="stroke:#181818;stroke-width:0.5;"/><text fill="#000000" font-family="sans-serif" font-size="13" font-weight="bold" lengthAdjust="spacing" textLength="172.5737" x="477.3052" y="200.5542">&#1052;&#1086;&#1078;&#1083;&#1080;&#1074;&#1077; &#1074;&#1080;&#1082;&#1083;&#1102;&#1095;&#1077;&#1085;&#1085;&#1103;:</text><text fill="#000000" font-family="sans-serif" font-size="13" font-weight="bold" lengthAdjust="spacing" textLength="177.6265" x="477.3052" y="215.687">TaskNotFoundException</text><rect fill="#F1F1F1" height="33.9688" rx="12.5" ry="12.5" style="stroke:#181818;stroke-width:0.5;" width="192.4883" x="254.291" y="186.6357"/><text fill="#000000" font-family="sans-serif" font-size="12" lengthAdjust="spacing" textLength="168.6738" x="268.1055" y="207.7744">&#1055;&#1077;&#1088;&#1077;&#1074;&#1110;&#1088;&#1103;&#1108;, &#1095;&#1080; &#1110;&#1089;&#1085;&#1091;&#1108; &#1079;&#1072;&#1076;&#1072;&#1095;&#1072;</text><line style="stroke:#000000;stroke-width:1.5;" x1="248.291" x2="248.291" y1="12.7451" y2="319.7217"/><line style="stroke:#000000;stroke-width:1.5;" x1="674.9316" x2="674.9316" y1="12.7451" y2="319.7217"/><line style="stroke:#181818;stroke-width:1;" x1="132.6455" x2="132.6455" y1="58.6982" y2="78.6982"/><polygon fill="#181818" points="128.6455,68.6982,132.6455,78.6982,136.6455,68.6982,132.6455,72.6982" style="stroke:#181818;stroke-width:1;"/><line style="stroke:#181818;stroke-width:1;" x1="132.6455" x2="132.6455" y1="112.667" y2="132.667"/><polygon fill="#181818" points="128.6455,122.667,132.6455,132.667,136.6455,122.667,132.6455,126.667" style="stroke:#181818;stroke-width:1;"/><line style="stroke:#181818;stroke-width:1;" x1="132.6455" x2="132.6455" y1="277.7217" y2="297.7217"/><polygon fill="#181818" points="128.6455,287.7217,132.6455,297.7217,136.6455,287.7217,132.6455,291.7217" style="stroke:#181818;stroke-width:1;"/><line style="stroke:#181818;stroke-width:1;" x1="132.6455" x2="132.6455" y1="166.6357" y2="171.6357"/><line style="stroke:#181818;stroke-width:1;" x1="132.6455" x2="350.5352" y1="171.6357" y2="171.6357"/><line style="stroke:#181818;stroke-width:1;" x1="350.5352" x2="350.5352" y1="171.6357" y2="186.6357"/><polygon fill="#181818" points="346.5352,176.6357,350.5352,186.6357,354.5352,176.6357,350.5352,180.6357" style="stroke:#181818;stroke-width:1;"/><line style="stroke:#181818;stroke-width:1;" x1="350.5352" x2="350.5352" y1="220.6045" y2="228.7529"/><line style="stroke:#181818;stroke-width:1;" x1="350.5352" x2="132.6455" y1="228.7529" y2="228.7529"/><line style="stroke:#181818;stroke-width:1;" x1="132.6455" x2="132.6455" y1="228.7529" y2="243.7529"/><polygon fill="#181818" points="128.6455,233.7529,132.6455,243.7529,136.6455,233.7529,132.6455,237.7529" style="stroke:#181818;stroke-width:1;"/><text fill="#000000" font-family="sans-serif" font-size="18" lengthAdjust="spacing" textLength="110.2236" x="76.5337" y="29.4531">&#1050;&#1086;&#1088;&#1080;&#1089;&#1090;&#1091;&#1074;&#1072;&#1095;</text><text fill="#000000" font-family="sans-serif" font-size="18" lengthAdjust="spacing" textLength="80.332" x="421.4453" y="29.4531">&#1057;&#1080;&#1089;&#1090;&#1077;&#1084;&#1072;</text><!--SRC=[RP0nJiCm58Ptdy8IAoTe41kCJ5mWq1GgfBXgZCIG8Ms6TceaL6L0I0XnWL0bnQ8qNE5_D-9toj0AFDb-x__yFQTuGYiPd4naAZbMg6IMgiI6OnkediOZ7DvPpbXOQdoWGkrx9DVSRAJGp3X_XmqQRB6L8b0- -I8bQfcot31TOosv9_pfteUMZAPutUcmuGjLsh4wHeELb9998SjZBJCupUE4ZFn03HKfiR6H7WzlRgq-6Wn2BdLoTQhnZ1PhFkwyryxcasCi6FlrwNMDbs5oTs7ikRcF-sSFrz783asiehYlFTbR_ljnT7sZqZV5viIrU_DwxOCFf6LYpIZu0G00]--></g></svg>