<svg xmlns="http://www.w3.org/2000/svg" xmlns:xlink="http://www.w3.org/1999/xlink" contentStyleType="text/css" height="442px" preserveAspectRatio="none" style="width:1015px;height:442px;background:#FFFFFF;" version="1.1" viewBox="0 0 1015 442" width="1015px" zoomAndPan="magnify"><defs/><g><rect fill="none" height="20.9531" style="stroke:none;stroke-width:1;" width="982.3506" x="15" y="12.7451"/><ellipse cx="168.6484" cy="48.6982" fill="#222222" rx="10" ry="10" style="stroke:#222222;stroke-width:1;"/><rect fill="#F1F1F1" height="33.9688" rx="12.5" ry="12.5" style="stroke:#181818;stroke-width:0.5;" width="295.2969" x="21" y="78.6982"/><text fill="#000000" font-family="sans-serif" font-size="12" lengthAdjust="spacing" textLength="271.4824" x="34.8145" y="99.8369">&#1042;&#1080;&#1073;&#1080;&#1088;&#1072;&#1108; &#1079;&#1072;&#1076;&#1072;&#1095;&#1091; &#1076;&#1083;&#1103; &#1076;&#1086;&#1076;&#1072;&#1074;&#1072;&#1085;&#1085;&#1103; &#1082;&#1086;&#1084;&#1077;&#1085;&#1090;&#1072;&#1088;&#1103;</text><rect fill="#F1F1F1" height="33.9688" rx="12.5" ry="12.5" style="stroke:#181818;stroke-width:0.5;" width="187.5078" x="74.8945" y="132.667"/><text fill="#000000" font-family="sans-serif" font-size="12" lengthAdjust="spacing" textLength="163.6934" x="88.709" y="153.8057">&#1042;&#1074;&#1086;&#1076;&#1080;&#1090;&#1100; &#1090;&#1077;&#1082;&#1089;&#1090; &#1082;&#1086;&#1084;&#1077;&#1085;&#1090;&#1072;&#1088;&#1103;</text><rect fill="#F1F1F1" height="33.9688" rx="12.5" ry="12.5" style="stroke:#181818;stroke-width:0.5;" width="276.8809" x="30.208" y="186.6357"/><text fill="#000000" font-family="sans-serif" font-size="12" lengthAdjust="spacing" textLength="253.0664" x="44.0225" y="207.7744">&#1053;&#1072;&#1090;&#1080;&#1089;&#1082;&#1072;&#1108; &#1085;&#1072; &#1082;&#1085;&#1086;&#1087;&#1082;&#1091; "&#1044;&#1086;&#1076;&#1072;&#1090;&#1080; &#1082;&#1086;&#1084;&#1077;&#1085;&#1090;&#1072;&#1088;"</text><rect fill="#F1F1F1" height="33.9688" rx="12.5" ry="12.5" style="stroke:#181818;stroke-width:0.5;" width="244.4844" x="46.4063" y="354.8389"/><text fill="#000000" font-family="sans-serif" font-size="12" lengthAdjust="spacing" textLength="220.6699" x="60.2207" y="375.9775">&#1059;&#1089;&#1087;&#1110;&#1096;&#1085;&#1086; &#1076;&#1086;&#1076;&#1072;&#1108; &#1082;&#1086;&#1084;&#1077;&#1085;&#1090;&#1072;&#1088; &#1076;&#1086; &#1079;&#1072;&#1076;&#1072;&#1095;&#1110;</text><ellipse cx="168.6484" cy="419.8076" fill="none" rx="11" ry="11" style="stroke:#222222;stroke-width:1;"/><ellipse cx="168.6484" cy="419.8076" fill="#222222" rx="6" ry="6" style="stroke:#222222;stroke-width:1;"/><line style="stroke:#000000;stroke-width:1.5;" x1="15" x2="15" y1="12.7451" y2="430.8076"/><path d="M629.9424,237.4561 L629.9424,253.5889 L609.9424,257.5889 L629.9424,261.5889 L629.9424,277.7217 A0,0 0 0 0 629.9424,277.7217 L833.0947,277.7217 A0,0 0 0 0 833.0947,277.7217 L833.0947,247.4561 L823.0947,237.4561 L629.9424,237.4561 A0,0 0 0 0 629.9424,237.4561 " fill="#FFAAAA" style="stroke:#181818;stroke-width:0.5;"/><path d="M823.0947,237.4561 L823.0947,247.4561 L833.0947,247.4561 L823.0947,237.4561 " fill="#FFAAAA" style="stroke:#181818;stroke-width:0.5;"/><text fill="#000000" font-family="sans-serif" font-size="13" font-weight="bold" lengthAdjust="spacing" textLength="172.5737" x="640.4683" y="254.5229">&#1052;&#1086;&#1078;&#1083;&#1080;&#1074;&#1077; &#1074;&#1080;&#1082;&#1083;&#1102;&#1095;&#1077;&#1085;&#1085;&#1103;:</text><text fill="#000000" font-family="sans-serif" font-size="13" font-weight="bold" lengthAdjust="spacing" textLength="177.6265" x="640.4683" y="269.6558">TaskNotFoundException</text><rect fill="#F1F1F1" height="33.9688" rx="12.5" ry="12.5" style="stroke:#181818;stroke-width:0.5;" width="192.4883" x="417.4541" y="240.6045"/><text fill="#000000" font-family="sans-serif" font-size="12" lengthAdjust="spacing" textLength="168.6738" x="431.2686" y="261.7432">&#1055;&#1077;&#1088;&#1077;&#1074;&#1110;&#1088;&#1103;&#1108;, &#1095;&#1080; &#1110;&#1089;&#1085;&#1091;&#1108; &#1079;&#1072;&#1076;&#1072;&#1095;&#1072;</text><path d="M721.0996,294.5732 L721.0996,310.7061 L701.0996,314.7061 L721.0996,318.7061 L721.0996,334.8389 A0,0 0 0 0 721.0996,334.8389 L990.4897,334.8389 A0,0 0 0 0 990.4897,334.8389 L990.4897,304.5732 L980.4897,294.5732 L721.0996,294.5732 A0,0 0 0 0 721.0996,294.5732 " fill="#FFAAAA" style="stroke:#181818;stroke-width:0.5;"/><path d="M980.4897,294.5732 L980.4897,304.5732 L990.4897,304.5732 L980.4897,294.5732 " fill="#FFAAAA" style="stroke:#181818;stroke-width:0.5;"/><text fill="#000000" font-family="sans-serif" font-size="13" font-weight="bold" lengthAdjust="spacing" textLength="172.5737" x="731.6255" y="311.6401">&#1052;&#1086;&#1078;&#1083;&#1080;&#1074;&#1077; &#1074;&#1080;&#1082;&#1083;&#1102;&#1095;&#1077;&#1085;&#1085;&#1103;:</text><text fill="#000000" font-family="sans-serif" font-size="13" font-weight="bold" lengthAdjust="spacing" textLength="243.8643" x="731.6255" y="326.7729">InsufficientPermissionsException</text><rect fill="#F1F1F1" height="33.9688" rx="12.5" ry="12.5" style="stroke:#181818;stroke-width:0.5;" width="374.8027" x="326.2969" y="297.7217"/><text fill="#000000" font-family="sans-serif" font-size="12" lengthAdjust="spacing" textLength="350.9883" x="340.1113" y="318.8604">&#1055;&#1077;&#1088;&#1077;&#1074;&#1110;&#1088;&#1103;&#1108; &#1087;&#1088;&#1072;&#1074;&#1072; &#1082;&#1086;&#1088;&#1080;&#1089;&#1090;&#1091;&#1074;&#1072;&#1095;&#1072; &#1085;&#1072; &#1076;&#1086;&#1076;&#1072;&#1074;&#1072;&#1085;&#1085;&#1103; &#1082;&#1086;&#1084;&#1077;&#1085;&#1090;&#1072;&#1088;&#1103;</text><line style="stroke:#000000;stroke-width:1.5;" x1="320.2969" x2="320.2969" y1="12.7451" y2="430.8076"/><line style="stroke:#000000;stroke-width:1.5;" x1="995.4897" x2="995.4897" y1="12.7451" y2="430.8076"/><line style="stroke:#181818;stroke-width:1;" x1="168.6484" x2="168.6484" y1="58.6982" y2="78.6982"/><polygon fill="#181818" points="164.6484,68.6982,168.6484,78.6982,172.6484,68.6982,168.6484,72.6982" style="stroke:#181818;stroke-width:1;"/><line style="stroke:#181818;stroke-width:1;" x1="168.6484" x2="168.6484" y1="112.667" y2="132.667"/><polygon fill="#181818" points="164.6484,122.667,168.6484,132.667,172.6484,122.667,168.6484,126.667" style="stroke:#181818;stroke-width:1;"/><line style="stroke:#181818;stroke-width:1;" x1="168.6484" x2="168.6484" y1="166.6357" y2="186.6357"/><polygon fill="#181818" points="164.6484,176.6357,168.6484,186.6357,172.6484,176.6357,168.6484,180.6357" style="stroke:#181818;stroke-width:1;"/><line style="stroke:#181818;stroke-width:1;" x1="168.6484" x2="168.6484" y1="388.8076" y2="408.8076"/><polygon fill="#181818" points="164.6484,398.8076,168.6484,408.8076,172.6484,398.8076,168.6484,402.8076" style="stroke:#181818;stroke-width:1;"/><line style="stroke:#181818;stroke-width:1;" x1="513.6982" x2="513.6982" y1="274.5732" y2="297.7217"/><polygon fill="#181818" points="509.6982,287.7217,513.6982,297.7217,517.6982,287.7217,513.6982,291.7217" style="stroke:#181818;stroke-width:1;"/><line style="stroke:#181818;stroke-width:1;" x1="168.6484" x2="168.6484" y1="220.6045" y2="225.6045"/><line style="stroke:#181818;stroke-width:1;" x1="168.6484" x2="513.6982" y1="225.6045" y2="225.6045"/><line style="stroke:#181818;stroke-width:1;" x1="513.6982" x2="513.6982" y1="225.6045" y2="240.6045"/><polygon fill="#181818" points="509.6982,230.6045,513.6982,240.6045,517.6982,230.6045,513.6982,234.6045" style="stroke:#181818;stroke-width:1;"/><line style="stroke:#181818;stroke-width:1;" x1="513.6982" x2="513.6982" y1="331.6904" y2="339.8389"/><line style="stroke:#181818;stroke-width:1;" x1="513.6982" x2="168.6484" y1="339.8389" y2="339.8389"/><line style="stroke:#181818;stroke-width:1;" x1="168.6484" x2="168.6484" y1="339.8389" y2="354.8389"/><polygon fill="#181818" points="164.6484,344.8389,168.6484,354.8389,172.6484,344.8389,168.6484,348.8389" style="stroke:#181818;stroke-width:1;"/><text fill="#000000" font-family="sans-serif" font-size="18" lengthAdjust="spacing" textLength="110.2236" x="112.5366" y="29.4531">&#1050;&#1086;&#1088;&#1080;&#1089;&#1090;&#1091;&#1074;&#1072;&#1095;</text><text fill="#000000" font-family="sans-serif" font-size="18" lengthAdjust="spacing" textLength="80.332" x="617.7273" y="29.4531">&#1057;&#1080;&#1089;&#1090;&#1077;&#1084;&#1072;</text><!--SRC=[fL91IiDG4Dtd59-wzGIjk5Dm8owyG6qJ3M9I-d_1HHPjiwWBiI2b2r54l40CHaFRj5Tu_qQ-IK2qLX3C8idClFTctlmVuGvBsqTk1tPeOwH8x2Xoj6bsJSEfAzmYnmlBVHOc2kz8y2eO6ol-pErOFal92HS52adDc5eWOp0ak6_73QSIIqjipbxNYhKCCsdyA-61mL268w3iNo0HS47uYjnOrJ2fsWlkXqwDCX6UAdjCBv14elk8Z8uof7OgpUnaMzaH-Gm7vCRVh2AXIX0QLtNzqpEZjZoloSVPETbLk6V3DyovfHIPuYld37DxGrfMRQDU0e-R-lmmDFjXBsZlNRRSZl73m763jX9bP-DG2YlPkoosTBP-Jf8k5_B74_YlXuD0zppFR_bkO8xSxeMlDKteJNQYpVUABf-vuHKTNiaXVeukPjT6BcjVRzoK5hG9EuqF]--></g></svg>