<svg xmlns="http://www.w3.org/2000/svg" xmlns:xlink="http://www.w3.org/1999/xlink" contentStyleType="text/css" height="397px" preserveAspectRatio="none" style="width:732px;height:397px;background:#FFFFFF;" version="1.1" viewBox="0 0 732 397" width="732px" zoomAndPan="magnify"><defs/><g><rect fill="none" height="20.9531" style="stroke:none;stroke-width:1;" width="699.4136" x="15" y="12.7451"/><ellipse cx="142.29" cy="48.6982" fill="#222222" rx="10" ry="10" style="stroke:#222222;stroke-width:1;"/><rect fill="#F1F1F1" height="33.9688" rx="12.5" ry="12.5" style="stroke:#181818;stroke-width:0.5;" width="242.5801" x="21" y="78.6982"/><text fill="#000000" font-family="sans-serif" font-size="12" lengthAdjust="spacing" textLength="218.7656" x="34.8145" y="99.8369">&#1042;&#1074;&#1086;&#1076;&#1080;&#1090;&#1100; &#1110;&#1084;'&#1103; &#1082;&#1086;&#1088;&#1080;&#1089;&#1090;&#1091;&#1074;&#1072;&#1095;&#1072; &#1110; &#1087;&#1072;&#1088;&#1086;&#1083;&#1100;</text><rect fill="#F1F1F1" height="33.9688" rx="12.5" ry="12.5" style="stroke:#181818;stroke-width:0.5;" width="205.3848" x="39.5977" y="132.667"/><text fill="#000000" font-family="sans-serif" font-size="12" lengthAdjust="spacing" textLength="181.5703" x="53.4121" y="153.8057">&#1053;&#1072;&#1090;&#1080;&#1089;&#1082;&#1072;&#1108; &#1085;&#1072; &#1082;&#1085;&#1086;&#1087;&#1082;&#1091; "&#1059;&#1074;&#1110;&#1081;&#1090;&#1080;"</text><rect fill="#F1F1F1" height="33.9688" rx="12.5" ry="12.5" style="stroke:#181818;stroke-width:0.5;" width="233.4922" x="25.5439" y="309.1514"/><text fill="#000000" font-family="sans-serif" font-size="12" lengthAdjust="spacing" textLength="209.6777" x="39.3584" y="330.29">&#1059;&#1089;&#1087;&#1110;&#1096;&#1085;&#1086; &#1072;&#1074;&#1090;&#1086;&#1088;&#1080;&#1079;&#1091;&#1108;&#1090;&#1100;&#1089;&#1103; &#1091; &#1089;&#1080;&#1089;&#1090;&#1077;&#1084;&#1110;</text><ellipse cx="142.29" cy="374.1201" fill="none" rx="11" ry="11" style="stroke:#222222;stroke-width:1;"/><ellipse cx="142.29" cy="374.1201" fill="#222222" rx="6" ry="6" style="stroke:#222222;stroke-width:1;"/><line style="stroke:#000000;stroke-width:1.5;" x1="15" x2="15" y1="12.7451" y2="385.1201"/><path d="M486.4639,176.6357 L486.4639,200.335 L466.4639,204.335 L486.4639,208.335 L486.4639,232.0342 A0,0 0 0 0 486.4639,232.0342 L707.4087,232.0342 A0,0 0 0 0 707.4087,232.0342 L707.4087,186.6357 L697.4087,176.6357 L486.4639,176.6357 A0,0 0 0 0 486.4639,176.6357 " fill="#FFAAAA" style="stroke:#181818;stroke-width:0.5;"/><path d="M697.4087,176.6357 L697.4087,186.6357 L707.4087,186.6357 L697.4087,176.6357 " fill="#FFAAAA" style="stroke:#181818;stroke-width:0.5;"/><text fill="#000000" font-family="sans-serif" font-size="13" font-weight="bold" lengthAdjust="spacing" textLength="168.2129" x="496.9897" y="193.7026">&#1052;&#1086;&#1078;&#1083;&#1080;&#1074;&#1110; &#1074;&#1080;&#1082;&#1083;&#1102;&#1095;&#1077;&#1085;&#1085;&#1103;:</text><text fill="#000000" font-family="sans-serif" font-size="13" font-weight="bold" lengthAdjust="spacing" textLength="195.4189" x="496.9897" y="208.8354">InvalidUsernameException</text><text fill="#000000" font-family="sans-serif" font-size="13" font-weight="bold" lengthAdjust="spacing" textLength="191.9404" x="496.9897" y="223.9683">InvalidPasswordException</text><rect fill="#F1F1F1" height="33.9688" rx="12.5" ry="12.5" style="stroke:#181818;stroke-width:0.5;" width="169.8945" x="296.5693" y="187.3506"/><text fill="#000000" font-family="sans-serif" font-size="12" lengthAdjust="spacing" textLength="146.0801" x="310.3838" y="208.4893">&#1055;&#1077;&#1088;&#1077;&#1074;&#1110;&#1088;&#1103;&#1108; &#1074;&#1074;&#1077;&#1076;&#1077;&#1085;&#1110; &#1076;&#1072;&#1085;&#1110;</text><path d="M509.4531,248.8857 L509.4531,265.0186 L489.4531,269.0186 L509.4531,273.0186 L509.4531,289.1514 A0,0 0 0 0 509.4531,289.1514 L707.5527,289.1514 A0,0 0 0 0 707.5527,289.1514 L707.5527,258.8857 L697.5527,248.8857 L509.4531,248.8857 A0,0 0 0 0 509.4531,248.8857 " fill="#FFAAAA" style="stroke:#181818;stroke-width:0.5;"/><path d="M697.5527,248.8857 L697.5527,258.8857 L707.5527,258.8857 L697.5527,248.8857 " fill="#FFAAAA" style="stroke:#181818;stroke-width:0.5;"/><text fill="#000000" font-family="sans-serif" font-size="13" font-weight="bold" lengthAdjust="spacing" textLength="172.5737" x="519.979" y="265.9526">&#1052;&#1086;&#1078;&#1083;&#1080;&#1074;&#1077; &#1074;&#1080;&#1082;&#1083;&#1102;&#1095;&#1077;&#1085;&#1085;&#1103;:</text><text fill="#000000" font-family="sans-serif" font-size="13" font-weight="bold" lengthAdjust="spacing" textLength="160.7861" x="519.979" y="281.0854">UserBannedException</text><rect fill="#F1F1F1" height="33.9688" rx="12.5" ry="12.5" style="stroke:#181818;stroke-width:0.5;" width="215.873" x="273.5801" y="252.0342"/><text fill="#000000" font-family="sans-serif" font-size="12" lengthAdjust="spacing" textLength="192.0586" x="287.3945" y="273.1729">&#1055;&#1077;&#1088;&#1077;&#1074;&#1110;&#1088;&#1103;&#1108; &#1089;&#1090;&#1072;&#1090;&#1091;&#1089; &#1082;&#1086;&#1088;&#1080;&#1089;&#1090;&#1091;&#1074;&#1072;&#1095;&#1072;</text><line style="stroke:#000000;stroke-width:1.5;" x1="267.5801" x2="267.5801" y1="12.7451" y2="385.1201"/><line style="stroke:#000000;stroke-width:1.5;" x1="712.5527" x2="712.5527" y1="12.7451" y2="385.1201"/><line style="stroke:#181818;stroke-width:1;" x1="142.29" x2="142.29" y1="58.6982" y2="78.6982"/><polygon fill="#181818" points="138.29,68.6982,142.29,78.6982,146.29,68.6982,142.29,72.6982" style="stroke:#181818;stroke-width:1;"/><line style="stroke:#181818;stroke-width:1;" x1="142.29" x2="142.29" y1="112.667" y2="132.667"/><polygon fill="#181818" points="138.29,122.667,142.29,132.667,146.29,122.667,142.29,126.667" style="stroke:#181818;stroke-width:1;"/><line style="stroke:#181818;stroke-width:1;" x1="142.29" x2="142.29" y1="343.1201" y2="363.1201"/><polygon fill="#181818" points="138.29,353.1201,142.29,363.1201,146.29,353.1201,142.29,357.1201" style="stroke:#181818;stroke-width:1;"/><line style="stroke:#181818;stroke-width:1;" x1="381.5166" x2="381.5166" y1="221.3193" y2="252.0342"/><polygon fill="#181818" points="377.5166,242.0342,381.5166,252.0342,385.5166,242.0342,381.5166,246.0342" style="stroke:#181818;stroke-width:1;"/><line style="stroke:#181818;stroke-width:1;" x1="142.29" x2="142.29" y1="166.6357" y2="171.6357"/><line style="stroke:#181818;stroke-width:1;" x1="142.29" x2="381.5166" y1="171.6357" y2="171.6357"/><line style="stroke:#181818;stroke-width:1;" x1="381.5166" x2="381.5166" y1="171.6357" y2="187.3506"/><polygon fill="#181818" points="377.5166,177.3506,381.5166,187.3506,385.5166,177.3506,381.5166,181.3506" style="stroke:#181818;stroke-width:1;"/><line style="stroke:#181818;stroke-width:1;" x1="381.5166" x2="381.5166" y1="286.0029" y2="294.1514"/><line style="stroke:#181818;stroke-width:1;" x1="381.5166" x2="142.29" y1="294.1514" y2="294.1514"/><line style="stroke:#181818;stroke-width:1;" x1="142.29" x2="142.29" y1="294.1514" y2="309.1514"/><polygon fill="#181818" points="138.29,299.1514,142.29,309.1514,146.29,299.1514,142.29,303.1514" style="stroke:#181818;stroke-width:1;"/><text fill="#000000" font-family="sans-serif" font-size="18" lengthAdjust="spacing" textLength="110.2236" x="86.1782" y="29.4531">&#1050;&#1086;&#1088;&#1080;&#1089;&#1090;&#1091;&#1074;&#1072;&#1095;</text><text fill="#000000" font-family="sans-serif" font-size="18" lengthAdjust="spacing" textLength="80.332" x="449.9004" y="29.4531">&#1057;&#1080;&#1089;&#1090;&#1077;&#1084;&#1072;</text><!--SRC=[ZP71IiDG44Nt-Of7NVWFhRWGNBXpumT4csf1NqeIr4KMQRlGHJ4WnOKe8ls141gjRTFymfq_yau45QnYidcykVVEUJCnxh6I13Ffoq26o979LUo4aHj4BQTfSCkh5QOK36Hav0xBJKaDvZzTo5Wsg7XEQ5d8gELemYCl1YgbAPEnGKabpoL55UOoD0rCa3FwJNKDkc8yVsIZm19Ph35FA9XRg50IIJKevr-GhK2fdQV8z42_zIFF1DtZayXiT3ekFsVhSDlWWIrViC1CKzG_8yT2RWZF39hJPYtSi-VkQRTz47g1TS-ytSiZhnTrVVkzkE-6uOKVjB-AdcqRxUoinwtVa-cyfF_B0F-7Zk8FT6NUSQtrreB5wzTDtWdtKv7rMlTYECcSjBKKhoGUw_ffIWttHUddTkfvXv7VQxq3]--></g></svg>