<svg xmlns="http://www.w3.org/2000/svg" xmlns:xlink="http://www.w3.org/1999/xlink" contentStyleType="text/css" height="331px" preserveAspectRatio="none" style="width:767px;height:331px;background:#FFFFFF;" version="1.1" viewBox="0 0 767 331" width="767px" zoomAndPan="magnify"><defs/><g><rect fill="none" height="20.9531" style="stroke:none;stroke-width:1;" width="734" x="15" y="12.7451"/><ellipse cx="154.8086" cy="48.6982" fill="#222222" rx="10" ry="10" style="stroke:#222222;stroke-width:1;"/><rect fill="#F1F1F1" height="33.9688" rx="12.5" ry="12.5" style="stroke:#181818;stroke-width:0.5;" width="264.8926" x="22.3623" y="78.6982"/><text fill="#000000" font-family="sans-serif" font-size="12" lengthAdjust="spacing" textLength="241.0781" x="36.1768" y="99.8369">&#1042;&#1080;&#1073;&#1080;&#1088;&#1072;&#1108; &#1082;&#1086;&#1088;&#1080;&#1089;&#1090;&#1091;&#1074;&#1072;&#1095;&#1072; &#1076;&#1083;&#1103; &#1073;&#1083;&#1086;&#1082;&#1091;&#1074;&#1072;&#1085;&#1085;&#1103;</text><rect fill="#F1F1F1" height="33.9688" rx="12.5" ry="12.5" style="stroke:#181818;stroke-width:0.5;" width="267.6172" x="21" y="132.667"/><text fill="#000000" font-family="sans-serif" font-size="12" lengthAdjust="spacing" textLength="243.8027" x="34.8145" y="153.8057">&#1055;&#1110;&#1076;&#1090;&#1074;&#1077;&#1088;&#1076;&#1078;&#1091;&#1108; &#1073;&#1083;&#1086;&#1082;&#1091;&#1074;&#1072;&#1085;&#1085;&#1103; &#1082;&#1086;&#1088;&#1080;&#1089;&#1090;&#1091;&#1074;&#1072;&#1095;&#1072;</text><rect fill="#F1F1F1" height="33.9688" rx="12.5" ry="12.5" style="stroke:#181818;stroke-width:0.5;" width="205.6133" x="52.002" y="243.7529"/><text fill="#000000" font-family="sans-serif" font-size="12" lengthAdjust="spacing" textLength="181.7988" x="65.8164" y="264.8916">&#1059;&#1089;&#1087;&#1110;&#1096;&#1085;&#1086; &#1073;&#1083;&#1086;&#1082;&#1091;&#1108; &#1082;&#1086;&#1088;&#1080;&#1089;&#1090;&#1091;&#1074;&#1072;&#1095;&#1072;</text><ellipse cx="154.8086" cy="308.7217" fill="none" rx="11" ry="11" style="stroke:#222222;stroke-width:1;"/><ellipse cx="154.8086" cy="308.7217" fill="#222222" rx="6" ry="6" style="stroke:#222222;stroke-width:1;"/><line style="stroke:#000000;stroke-width:1.5;" x1="15" x2="15" y1="12.7451" y2="319.7217"/><path d="M539.4883,183.4873 L539.4883,199.6201 L519.4883,203.6201 L539.4883,207.6201 L539.4883,223.7529 A0,0 0 0 0 539.4883,223.7529 L742.1392,223.7529 A0,0 0 0 0 742.1392,223.7529 L742.1392,193.4873 L732.1392,183.4873 L539.4883,183.4873 A0,0 0 0 0 539.4883,183.4873 " fill="#FFAAAA" style="stroke:#181818;stroke-width:0.5;"/><path d="M732.1392,183.4873 L732.1392,193.4873 L742.1392,193.4873 L732.1392,183.4873 " fill="#FFAAAA" style="stroke:#181818;stroke-width:0.5;"/><text fill="#000000" font-family="sans-serif" font-size="13" font-weight="bold" lengthAdjust="spacing" textLength="172.5737" x="550.0142" y="200.5542">&#1052;&#1086;&#1078;&#1083;&#1080;&#1074;&#1077; &#1074;&#1080;&#1082;&#1083;&#1102;&#1095;&#1077;&#1085;&#1085;&#1103;:</text><text fill="#000000" font-family="sans-serif" font-size="13" font-weight="bold" lengthAdjust="spacing" textLength="177.125" x="550.0142" y="215.687">UserNotFoundException</text><rect fill="#F1F1F1" height="33.9688" rx="12.5" ry="12.5" style="stroke:#181818;stroke-width:0.5;" width="220.8711" x="298.6172" y="186.6357"/><text fill="#000000" font-family="sans-serif" font-size="12" lengthAdjust="spacing" textLength="197.0566" x="312.4316" y="207.7744">&#1055;&#1077;&#1088;&#1077;&#1074;&#1110;&#1088;&#1103;&#1108;, &#1095;&#1080; &#1110;&#1089;&#1085;&#1091;&#1108; &#1082;&#1086;&#1088;&#1080;&#1089;&#1090;&#1091;&#1074;&#1072;&#1095;</text><line style="stroke:#000000;stroke-width:1.5;" x1="292.6172" x2="292.6172" y1="12.7451" y2="319.7217"/><line style="stroke:#000000;stroke-width:1.5;" x1="747.1392" x2="747.1392" y1="12.7451" y2="319.7217"/><line style="stroke:#181818;stroke-width:1;" x1="154.8086" x2="154.8086" y1="58.6982" y2="78.6982"/><polygon fill="#181818" points="150.8086,68.6982,154.8086,78.6982,158.8086,68.6982,154.8086,72.6982" style="stroke:#181818;stroke-width:1;"/><line style="stroke:#181818;stroke-width:1;" x1="154.8086" x2="154.8086" y1="112.667" y2="132.667"/><polygon fill="#181818" points="150.8086,122.667,154.8086,132.667,158.8086,122.667,154.8086,126.667" style="stroke:#181818;stroke-width:1;"/><line style="stroke:#181818;stroke-width:1;" x1="154.8086" x2="154.8086" y1="277.7217" y2="297.7217"/><polygon fill="#181818" points="150.8086,287.7217,154.8086,297.7217,158.8086,287.7217,154.8086,291.7217" style="stroke:#181818;stroke-width:1;"/><line style="stroke:#181818;stroke-width:1;" x1="154.8086" x2="154.8086" y1="166.6357" y2="171.6357"/><line style="stroke:#181818;stroke-width:1;" x1="154.8086" x2="409.0527" y1="171.6357" y2="171.6357"/><line style="stroke:#181818;stroke-width:1;" x1="409.0527" x2="409.0527" y1="171.6357" y2="186.6357"/><polygon fill="#181818" points="405.0527,176.6357,409.0527,186.6357,413.0527,176.6357,409.0527,180.6357" style="stroke:#181818;stroke-width:1;"/><line style="stroke:#181818;stroke-width:1;" x1="409.0527" x2="409.0527" y1="220.6045" y2="228.7529"/><line style="stroke:#181818;stroke-width:1;" x1="409.0527" x2="154.8086" y1="228.7529" y2="228.7529"/><line style="stroke:#181818;stroke-width:1;" x1="154.8086" x2="154.8086" y1="228.7529" y2="243.7529"/><polygon fill="#181818" points="150.8086,233.7529,154.8086,243.7529,158.8086,233.7529,154.8086,237.7529" style="stroke:#181818;stroke-width:1;"/><text fill="#000000" font-family="sans-serif" font-size="18" lengthAdjust="spacing" textLength="135.8701" x="85.8735" y="29.4531">&#1040;&#1076;&#1084;&#1110;&#1085;&#1110;&#1089;&#1090;&#1088;&#1072;&#1090;&#1086;&#1088;</text><text fill="#000000" font-family="sans-serif" font-size="18" lengthAdjust="spacing" textLength="80.332" x="479.7122" y="29.4531">&#1057;&#1080;&#1089;&#1090;&#1077;&#1084;&#1072;</text><!--SRC=[VP0nJiD044Lxds8aMauG8peewJX080wayKRs8b6uC7415KOeIeM441SmbXrPSMAkyET6_BKR2imMA-tEtpTl9y4BAknrWuDkz45NcgBG5JfD4o-sqyZwtaJmYWPVQFhYMh1pTHvTFaF9oqSKGb2hkJ3OeiDkgE10SkvxZlBEDXNX9Me-hx3LpD7-o8-q82R1nt2B6diKIS_jUJLAVY7LNDV7mdGZxaUaPIFAf8N61X8jRcwj7CtdKoxlvEfKy4QXBRKQvohS6W9QVIQs7WmdVV0o3g8BOy_DNJWxkxyEbdPXGYy8P-B8plQVyTByauBVh3mHslsQnEYGwHnRi_H_0000]--></g></svg>