<svg xmlns="http://www.w3.org/2000/svg" xmlns:xlink="http://www.w3.org/1999/xlink" contentStyleType="text/css" height="385px" preserveAspectRatio="none" style="width:784px;height:385px;background:#FFFFFF;" version="1.1" viewBox="0 0 784 385" width="784px" zoomAndPan="magnify"><defs/><g><rect fill="none" height="20.9531" style="stroke:none;stroke-width:1;" width="751.439" x="15" y="12.7451"/><ellipse cx="139.9844" cy="48.6982" fill="#222222" rx="10" ry="10" style="stroke:#222222;stroke-width:1;"/><rect fill="#F1F1F1" height="33.9688" rx="12.5" ry="12.5" style="stroke:#181818;stroke-width:0.5;" width="237.9688" x="21" y="78.6982"/><text fill="#000000" font-family="sans-serif" font-size="12" lengthAdjust="spacing" textLength="214.1543" x="34.8145" y="99.8369">&#1053;&#1072;&#1090;&#1080;&#1089;&#1082;&#1072;&#1108; &#1085;&#1072; &#1082;&#1085;&#1086;&#1087;&#1082;&#1091; "&#1056;&#1077;&#1076;&#1072;&#1075;&#1091;&#1074;&#1072;&#1090;&#1080;"</text><rect fill="#F1F1F1" height="33.9688" rx="12.5" ry="12.5" style="stroke:#181818;stroke-width:0.5;" width="155.4512" x="62.2588" y="132.667"/><text fill="#000000" font-family="sans-serif" font-size="12" lengthAdjust="spacing" textLength="131.6367" x="76.0732" y="153.8057">&#1042;&#1085;&#1086;&#1089;&#1080;&#1090;&#1100; &#1079;&#1084;&#1110;&#1085;&#1080; &#1074; &#1076;&#1072;&#1085;&#1110;</text><rect fill="#F1F1F1" height="33.9688" rx="12.5" ry="12.5" style="stroke:#181818;stroke-width:0.5;" width="160.1738" x="59.8975" y="297.7217"/><text fill="#000000" font-family="sans-serif" font-size="12" lengthAdjust="spacing" textLength="136.3594" x="73.7119" y="318.8604">&#1059;&#1089;&#1087;&#1110;&#1096;&#1085;&#1086; &#1088;&#1077;&#1076;&#1072;&#1075;&#1091;&#1108; &#1076;&#1072;&#1085;&#1110;</text><ellipse cx="139.9844" cy="362.6904" fill="none" rx="11" ry="11" style="stroke:#222222;stroke-width:1;"/><ellipse cx="139.9844" cy="362.6904" fill="#222222" rx="6" ry="6" style="stroke:#222222;stroke-width:1;"/><line style="stroke:#000000;stroke-width:1.5;" x1="15" x2="15" y1="12.7451" y2="373.6904"/><path d="M561.4785,183.4873 L561.4785,199.6201 L541.4785,203.6201 L561.4785,207.6201 L561.4785,223.7529 A0,0 0 0 0 561.4785,223.7529 L759.5781,223.7529 A0,0 0 0 0 759.5781,223.7529 L759.5781,193.4873 L749.5781,183.4873 L561.4785,183.4873 A0,0 0 0 0 561.4785,183.4873 " fill="#FFAAAA" style="stroke:#181818;stroke-width:0.5;"/><path d="M749.5781,183.4873 L749.5781,193.4873 L759.5781,193.4873 L749.5781,183.4873 " fill="#FFAAAA" style="stroke:#181818;stroke-width:0.5;"/><text fill="#000000" font-family="sans-serif" font-size="13" font-weight="bold" lengthAdjust="spacing" textLength="172.5737" x="572.0044" y="200.5542">&#1052;&#1086;&#1078;&#1083;&#1080;&#1074;&#1077; &#1074;&#1080;&#1082;&#1083;&#1102;&#1095;&#1077;&#1085;&#1085;&#1103;:</text><text fill="#000000" font-family="sans-serif" font-size="13" font-weight="bold" lengthAdjust="spacing" textLength="156.0571" x="572.0044" y="215.687">InvalidDataException</text><rect fill="#F1F1F1" height="33.9688" rx="12.5" ry="12.5" style="stroke:#181818;stroke-width:0.5;" width="272.5098" x="268.9688" y="186.6357"/><text fill="#000000" font-family="sans-serif" font-size="12" lengthAdjust="spacing" textLength="248.6953" x="282.7832" y="207.7744">&#1055;&#1077;&#1088;&#1077;&#1074;&#1110;&#1088;&#1103;&#1108; &#1082;&#1086;&#1088;&#1077;&#1082;&#1090;&#1085;&#1110;&#1089;&#1090;&#1100; &#1074;&#1074;&#1077;&#1076;&#1077;&#1085;&#1080;&#1093; &#1076;&#1072;&#1085;&#1080;&#1093;</text><rect fill="#F1F1F1" height="33.9688" rx="12.5" ry="12.5" style="stroke:#181818;stroke-width:0.5;" width="252.1895" x="279.1289" y="243.7529"/><text fill="#000000" font-family="sans-serif" font-size="12" lengthAdjust="spacing" textLength="228.375" x="292.9434" y="264.8916">&#1047;&#1073;&#1077;&#1088;&#1110;&#1075;&#1072;&#1108; &#1079;&#1084;&#1110;&#1085;&#1080; &#1074; &#1076;&#1072;&#1085;&#1080;&#1093; &#1082;&#1086;&#1088;&#1080;&#1089;&#1090;&#1091;&#1074;&#1072;&#1095;&#1072;</text><line style="stroke:#000000;stroke-width:1.5;" x1="262.9688" x2="262.9688" y1="12.7451" y2="373.6904"/><line style="stroke:#000000;stroke-width:1.5;" x1="764.5781" x2="764.5781" y1="12.7451" y2="373.6904"/><line style="stroke:#181818;stroke-width:1;" x1="139.9844" x2="139.9844" y1="58.6982" y2="78.6982"/><polygon fill="#181818" points="135.9844,68.6982,139.9844,78.6982,143.9844,68.6982,139.9844,72.6982" style="stroke:#181818;stroke-width:1;"/><line style="stroke:#181818;stroke-width:1;" x1="139.9844" x2="139.9844" y1="112.667" y2="132.667"/><polygon fill="#181818" points="135.9844,122.667,139.9844,132.667,143.9844,122.667,139.9844,126.667" style="stroke:#181818;stroke-width:1;"/><line style="stroke:#181818;stroke-width:1;" x1="139.9844" x2="139.9844" y1="331.6904" y2="351.6904"/><polygon fill="#181818" points="135.9844,341.6904,139.9844,351.6904,143.9844,341.6904,139.9844,345.6904" style="stroke:#181818;stroke-width:1;"/><line style="stroke:#181818;stroke-width:1;" x1="405.2236" x2="405.2236" y1="220.6045" y2="243.7529"/><polygon fill="#181818" points="401.2236,233.7529,405.2236,243.7529,409.2236,233.7529,405.2236,237.7529" style="stroke:#181818;stroke-width:1;"/><line style="stroke:#181818;stroke-width:1;" x1="139.9844" x2="139.9844" y1="166.6357" y2="171.6357"/><line style="stroke:#181818;stroke-width:1;" x1="139.9844" x2="405.2236" y1="171.6357" y2="171.6357"/><line style="stroke:#181818;stroke-width:1;" x1="405.2236" x2="405.2236" y1="171.6357" y2="186.6357"/><polygon fill="#181818" points="401.2236,176.6357,405.2236,186.6357,409.2236,176.6357,405.2236,180.6357" style="stroke:#181818;stroke-width:1;"/><line style="stroke:#181818;stroke-width:1;" x1="405.2236" x2="405.2236" y1="277.7217" y2="282.7217"/><line style="stroke:#181818;stroke-width:1;" x1="405.2236" x2="139.9844" y1="282.7217" y2="282.7217"/><line style="stroke:#181818;stroke-width:1;" x1="139.9844" x2="139.9844" y1="282.7217" y2="297.7217"/><polygon fill="#181818" points="135.9844,287.7217,139.9844,297.7217,143.9844,287.7217,139.9844,291.7217" style="stroke:#181818;stroke-width:1;"/><text fill="#000000" font-family="sans-serif" font-size="18" lengthAdjust="spacing" textLength="110.2236" x="83.8726" y="29.4531">&#1050;&#1086;&#1088;&#1080;&#1089;&#1090;&#1091;&#1074;&#1072;&#1095;</text><text fill="#000000" font-family="sans-serif" font-size="18" lengthAdjust="spacing" textLength="80.332" x="473.6074" y="29.4531">&#1057;&#1080;&#1089;&#1090;&#1077;&#1084;&#1072;</text><!--SRC=[RP51IiDW48NtESLGRz68ArruZ6XJ3KXIsXznaKMR8dKX5aGYY6AB5uYfqP0sxHNUtCYPFm4NDjdy_9dtpNilCLwmvJ5Add32K-J8U1Ox8-CDZUjq2MzoaUXdL79w8jJ8ICurjjYXuYbri421BsHOjG2PxxYEgXzrJhIbmEy9FzXmAbSb8IShgJcLoHZBne60DiXYbRwZ45y5Savvp7DTNLchXMnDL6Wj2pMNLmqKIkRR5gn7GOUHyMaON5mQEkZtFNcSmxCZmglu_yOQfOgLKGf-pGyyivoQvrqxU1fUUrT1xzWptidDkJymGHGwVjWZ1TkCp_XKgn9irJIq9sNZg_fVDJ8RV-zF4FQ7TBUJf7VQ8zdmRT6wwA_0aOa6xYy0]--></g></svg>