<svg xmlns="http://www.w3.org/2000/svg" xmlns:xlink="http://www.w3.org/1999/xlink" contentStyleType="text/css" height="388px" preserveAspectRatio="none" style="width:977px;height:388px;background:#FFFFFF;" version="1.1" viewBox="0 0 977 388" width="977px" zoomAndPan="magnify"><defs/><g><rect fill="none" height="20.9531" style="stroke:none;stroke-width:1;" width="944.9653" x="15" y="12.7451"/><ellipse cx="157.6533" cy="48.6982" fill="#222222" rx="10" ry="10" style="stroke:#222222;stroke-width:1;"/><rect fill="#F1F1F1" height="33.9688" rx="12.5" ry="12.5" style="stroke:#181818;stroke-width:0.5;" width="255.9102" x="29.6982" y="78.6982"/><text fill="#000000" font-family="sans-serif" font-size="12" lengthAdjust="spacing" textLength="232.0957" x="43.5127" y="99.8369">&#1047;&#1072;&#1087;&#1086;&#1074;&#1085;&#1102;&#1108; &#1092;&#1086;&#1088;&#1084;&#1091; &#1089;&#1090;&#1074;&#1086;&#1088;&#1077;&#1085;&#1085;&#1103; &#1087;&#1088;&#1086;&#1077;&#1082;&#1090;&#1091;</text><rect fill="#F1F1F1" height="33.9688" rx="12.5" ry="12.5" style="stroke:#181818;stroke-width:0.5;" width="273.3066" x="21" y="132.667"/><text fill="#000000" font-family="sans-serif" font-size="12" lengthAdjust="spacing" textLength="249.4922" x="34.8145" y="153.8057">&#1053;&#1072;&#1090;&#1080;&#1089;&#1082;&#1072;&#1108; &#1085;&#1072; &#1082;&#1085;&#1086;&#1087;&#1082;&#1091; "&#1057;&#1090;&#1074;&#1086;&#1088;&#1080;&#1090;&#1080; &#1087;&#1088;&#1086;&#1077;&#1082;&#1090;"</text><rect fill="#F1F1F1" height="33.9688" rx="12.5" ry="12.5" style="stroke:#181818;stroke-width:0.5;" width="179.4336" x="67.9365" y="300.8701"/><text fill="#000000" font-family="sans-serif" font-size="12" lengthAdjust="spacing" textLength="155.6191" x="81.751" y="322.0088">&#1059;&#1089;&#1087;&#1110;&#1096;&#1085;&#1086; &#1089;&#1090;&#1074;&#1086;&#1088;&#1102;&#1108; &#1087;&#1088;&#1086;&#1077;&#1082;&#1090;</text><ellipse cx="157.6533" cy="365.8389" fill="none" rx="11" ry="11" style="stroke:#222222;stroke-width:1;"/><ellipse cx="157.6533" cy="365.8389" fill="#222222" rx="6" ry="6" style="stroke:#222222;stroke-width:1;"/><line style="stroke:#000000;stroke-width:1.5;" x1="15" x2="15" y1="12.7451" y2="376.8389"/><path d="M599.0283,183.4873 L599.0283,199.6201 L579.0283,203.6201 L599.0283,207.6201 L599.0283,223.7529 A0,0 0 0 0 599.0283,223.7529 L814.3555,223.7529 A0,0 0 0 0 814.3555,223.7529 L814.3555,193.4873 L804.3555,183.4873 L599.0283,183.4873 A0,0 0 0 0 599.0283,183.4873 " fill="#FFAAAA" style="stroke:#181818;stroke-width:0.5;"/><path d="M804.3555,183.4873 L804.3555,193.4873 L814.3555,193.4873 L804.3555,183.4873 " fill="#FFAAAA" style="stroke:#181818;stroke-width:0.5;"/><text fill="#000000" font-family="sans-serif" font-size="13" font-weight="bold" lengthAdjust="spacing" textLength="168.2129" x="609.5542" y="200.5542">&#1052;&#1086;&#1078;&#1083;&#1080;&#1074;&#1110; &#1074;&#1080;&#1082;&#1083;&#1102;&#1095;&#1077;&#1085;&#1085;&#1103;:</text><text fill="#000000" font-family="sans-serif" font-size="13" font-weight="bold" lengthAdjust="spacing" textLength="189.8013" x="609.5542" y="215.687">InsufficientDataException</text><rect fill="#F1F1F1" height="33.9688" rx="12.5" ry="12.5" style="stroke:#181818;stroke-width:0.5;" width="169.8945" x="409.1338" y="186.6357"/><text fill="#000000" font-family="sans-serif" font-size="12" lengthAdjust="spacing" textLength="146.0801" x="422.9482" y="207.7744">&#1055;&#1077;&#1088;&#1077;&#1074;&#1110;&#1088;&#1103;&#1108; &#1074;&#1074;&#1077;&#1076;&#1077;&#1085;&#1110; &#1076;&#1072;&#1085;&#1110;</text><path d="M703.8555,240.6045 L703.8555,256.7373 L683.8555,260.7373 L703.8555,264.7373 L703.8555,280.8701 A0,0 0 0 0 703.8555,280.8701 L953.1045,280.8701 A0,0 0 0 0 953.1045,280.8701 L953.1045,250.6045 L943.1045,240.6045 L703.8555,240.6045 A0,0 0 0 0 703.8555,240.6045 " fill="#FFAAAA" style="stroke:#181818;stroke-width:0.5;"/><path d="M943.1045,240.6045 L943.1045,250.6045 L953.1045,250.6045 L943.1045,240.6045 " fill="#FFAAAA" style="stroke:#181818;stroke-width:0.5;"/><text fill="#000000" font-family="sans-serif" font-size="13" font-weight="bold" lengthAdjust="spacing" textLength="172.5737" x="714.3813" y="257.6714">&#1052;&#1086;&#1078;&#1083;&#1080;&#1074;&#1077; &#1074;&#1080;&#1082;&#1083;&#1102;&#1095;&#1077;&#1085;&#1085;&#1103;:</text><text fill="#000000" font-family="sans-serif" font-size="13" font-weight="bold" lengthAdjust="spacing" textLength="223.7231" x="714.3813" y="272.8042">ProjectAlreadyExistsException</text><rect fill="#F1F1F1" height="33.9688" rx="12.5" ry="12.5" style="stroke:#181818;stroke-width:0.5;" width="379.5488" x="304.3066" y="243.7529"/><text fill="#000000" font-family="sans-serif" font-size="12" lengthAdjust="spacing" textLength="355.7344" x="318.1211" y="264.8916">&#1055;&#1077;&#1088;&#1077;&#1074;&#1110;&#1088;&#1103;&#1108;, &#1095;&#1080; &#1110;&#1089;&#1085;&#1091;&#1108; &#1087;&#1088;&#1086;&#1077;&#1082;&#1090; &#1079; &#1090;&#1072;&#1082;&#1080;&#1084; &#1078;&#1077; &#1110;&#1076;&#1077;&#1085;&#1090;&#1080;&#1092;&#1110;&#1082;&#1072;&#1090;&#1086;&#1088;&#1086;&#1084;</text><line style="stroke:#000000;stroke-width:1.5;" x1="298.3066" x2="298.3066" y1="12.7451" y2="376.8389"/><line style="stroke:#000000;stroke-width:1.5;" x1="958.1045" x2="958.1045" y1="12.7451" y2="376.8389"/><line style="stroke:#181818;stroke-width:1;" x1="157.6533" x2="157.6533" y1="58.6982" y2="78.6982"/><polygon fill="#181818" points="153.6533,68.6982,157.6533,78.6982,161.6533,68.6982,157.6533,72.6982" style="stroke:#181818;stroke-width:1;"/><line style="stroke:#181818;stroke-width:1;" x1="157.6533" x2="157.6533" y1="112.667" y2="132.667"/><polygon fill="#181818" points="153.6533,122.667,157.6533,132.667,161.6533,122.667,157.6533,126.667" style="stroke:#181818;stroke-width:1;"/><line style="stroke:#181818;stroke-width:1;" x1="157.6533" x2="157.6533" y1="334.8389" y2="354.8389"/><polygon fill="#181818" points="153.6533,344.8389,157.6533,354.8389,161.6533,344.8389,157.6533,348.8389" style="stroke:#181818;stroke-width:1;"/><line style="stroke:#181818;stroke-width:1;" x1="494.0811" x2="494.0811" y1="220.6045" y2="243.7529"/><polygon fill="#181818" points="490.0811,233.7529,494.0811,243.7529,498.0811,233.7529,494.0811,237.7529" style="stroke:#181818;stroke-width:1;"/><line style="stroke:#181818;stroke-width:1;" x1="157.6533" x2="157.6533" y1="166.6357" y2="171.6357"/><line style="stroke:#181818;stroke-width:1;" x1="157.6533" x2="494.0811" y1="171.6357" y2="171.6357"/><line style="stroke:#181818;stroke-width:1;" x1="494.0811" x2="494.0811" y1="171.6357" y2="186.6357"/><polygon fill="#181818" points="490.0811,176.6357,494.0811,186.6357,498.0811,176.6357,494.0811,180.6357" style="stroke:#181818;stroke-width:1;"/><line style="stroke:#181818;stroke-width:1;" x1="494.0811" x2="494.0811" y1="277.7217" y2="285.8701"/><line style="stroke:#181818;stroke-width:1;" x1="494.0811" x2="157.6533" y1="285.8701" y2="285.8701"/><line style="stroke:#181818;stroke-width:1;" x1="157.6533" x2="157.6533" y1="285.8701" y2="300.8701"/><polygon fill="#181818" points="153.6533,290.8701,157.6533,300.8701,161.6533,290.8701,157.6533,294.8701" style="stroke:#181818;stroke-width:1;"/><text fill="#000000" font-family="sans-serif" font-size="18" lengthAdjust="spacing" textLength="58.5264" x="127.3901" y="29.4531">&#1058;&#1110;&#1084;&#1083;&#1110;&#1076;</text><text fill="#000000" font-family="sans-serif" font-size="18" lengthAdjust="spacing" textLength="80.332" x="588.0396" y="29.4531">&#1057;&#1080;&#1089;&#1090;&#1077;&#1084;&#1072;</text><!--SRC=[ZP91IiDG48RtESLGjvwW5K6m2tTU8RQ9HYGfoIjKoA9j2hgocr8tYbGl44gZeKsJAypSo7y2IWiLJ23CvCryy__llPZVPSu5R_1TnLPaxD2qh2RnCwTSSSbBtigJp4WcNCgG2qb8HZB6Vqqptc9zIbmXAP6kPIn9orB2AwUeosN4QqGpGcbAYBSeh52OK8CNlwHSQ_Su3M1YNYW1Qnb4fh5otpYh9ozbBaEPAdc9D-ELof4v8KWrGByV68T2x_h6q97hsdYiawjJuXSC-UGDvqhH_Xp2DZ3wy6EfMHTU-57VTRsEv_Zct3PsUz1nUiOBVClnkwHqww2aOm8f9wGZm1BLkEEC-8jWASNCd0k2aenq_slzkcKJPEjw-ygwg_YV5M3-jd8P1hTEnvpTXOxTlMyFlCX4X-p4-pS2xZvWeeALHpswdTElxyMkBwYCJD1hVGC0]--></g></svg>