<svg xmlns="http://www.w3.org/2000/svg" xmlns:xlink="http://www.w3.org/1999/xlink" contentStyleType="text/css" height="388px" preserveAspectRatio="none" style="width:958px;height:388px;background:#FFFFFF;" version="1.1" viewBox="0 0 958 388" width="958px" zoomAndPan="magnify"><defs/><g><rect fill="none" height="20.9531" style="stroke:none;stroke-width:1;" width="925.478" x="15" y="12.7451"/><ellipse cx="157.2285" cy="48.6982" fill="#222222" rx="10" ry="10" style="stroke:#222222;stroke-width:1;"/><rect fill="#F1F1F1" height="33.9688" rx="12.5" ry="12.5" style="stroke:#181818;stroke-width:0.5;" width="244.1914" x="35.1328" y="78.6982"/><text fill="#000000" font-family="sans-serif" font-size="12" lengthAdjust="spacing" textLength="220.377" x="48.9473" y="99.8369">&#1047;&#1072;&#1087;&#1086;&#1074;&#1085;&#1102;&#1108; &#1092;&#1086;&#1088;&#1084;&#1091; &#1089;&#1090;&#1074;&#1086;&#1088;&#1077;&#1085;&#1085;&#1103; &#1079;&#1072;&#1076;&#1072;&#1095;&#1110;</text><rect fill="#F1F1F1" height="33.9688" rx="12.5" ry="12.5" style="stroke:#181818;stroke-width:0.5;" width="272.457" x="21" y="132.667"/><text fill="#000000" font-family="sans-serif" font-size="12" lengthAdjust="spacing" textLength="248.6426" x="34.8145" y="153.8057">&#1053;&#1072;&#1090;&#1080;&#1089;&#1082;&#1072;&#1108; &#1085;&#1072; &#1082;&#1085;&#1086;&#1087;&#1082;&#1091; "&#1057;&#1090;&#1074;&#1086;&#1088;&#1080;&#1090;&#1080; &#1079;&#1072;&#1076;&#1072;&#1095;&#1091;"</text><rect fill="#F1F1F1" height="33.9688" rx="12.5" ry="12.5" style="stroke:#181818;stroke-width:0.5;" width="178.584" x="67.9365" y="300.8701"/><text fill="#000000" font-family="sans-serif" font-size="12" lengthAdjust="spacing" textLength="154.7695" x="81.751" y="322.0088">&#1059;&#1089;&#1087;&#1110;&#1096;&#1085;&#1086; &#1089;&#1090;&#1074;&#1086;&#1088;&#1102;&#1108; &#1079;&#1072;&#1076;&#1072;&#1095;&#1091;</text><ellipse cx="157.2285" cy="365.8389" fill="none" rx="11" ry="11" style="stroke:#222222;stroke-width:1;"/><ellipse cx="157.2285" cy="365.8389" fill="#222222" rx="6" ry="6" style="stroke:#222222;stroke-width:1;"/><line style="stroke:#000000;stroke-width:1.5;" x1="15" x2="15" y1="12.7451" y2="376.8389"/><path d="M597.8799,183.4873 L597.8799,199.6201 L577.8799,203.6201 L597.8799,207.6201 L597.8799,223.7529 A0,0 0 0 0 597.8799,223.7529 L813.207,223.7529 A0,0 0 0 0 813.207,223.7529 L813.207,193.4873 L803.207,183.4873 L597.8799,183.4873 A0,0 0 0 0 597.8799,183.4873 " fill="#FFAAAA" style="stroke:#181818;stroke-width:0.5;"/><path d="M803.207,183.4873 L803.207,193.4873 L813.207,193.4873 L803.207,183.4873 " fill="#FFAAAA" style="stroke:#181818;stroke-width:0.5;"/><text fill="#000000" font-family="sans-serif" font-size="13" font-weight="bold" lengthAdjust="spacing" textLength="168.2129" x="608.4058" y="200.5542">&#1052;&#1086;&#1078;&#1083;&#1080;&#1074;&#1110; &#1074;&#1080;&#1082;&#1083;&#1102;&#1095;&#1077;&#1085;&#1085;&#1103;:</text><text fill="#000000" font-family="sans-serif" font-size="13" font-weight="bold" lengthAdjust="spacing" textLength="189.8013" x="608.4058" y="215.687">InsufficientDataException</text><rect fill="#F1F1F1" height="33.9688" rx="12.5" ry="12.5" style="stroke:#181818;stroke-width:0.5;" width="169.8945" x="407.9854" y="186.6357"/><text fill="#000000" font-family="sans-serif" font-size="12" lengthAdjust="spacing" textLength="146.0801" x="421.7998" y="207.7744">&#1055;&#1077;&#1088;&#1077;&#1074;&#1110;&#1088;&#1103;&#1108; &#1074;&#1074;&#1077;&#1076;&#1077;&#1085;&#1110; &#1076;&#1072;&#1085;&#1110;</text><path d="M702.4082,240.6045 L702.4082,256.7373 L682.4082,260.7373 L702.4082,264.7373 L702.4082,280.8701 A0,0 0 0 0 702.4082,280.8701 L933.6172,280.8701 A0,0 0 0 0 933.6172,280.8701 L933.6172,250.6045 L923.6172,240.6045 L702.4082,240.6045 A0,0 0 0 0 702.4082,240.6045 " fill="#FFAAAA" style="stroke:#181818;stroke-width:0.5;"/><path d="M923.6172,240.6045 L923.6172,250.6045 L933.6172,250.6045 L923.6172,240.6045 " fill="#FFAAAA" style="stroke:#181818;stroke-width:0.5;"/><text fill="#000000" font-family="sans-serif" font-size="13" font-weight="bold" lengthAdjust="spacing" textLength="172.5737" x="712.9341" y="257.6714">&#1052;&#1086;&#1078;&#1083;&#1080;&#1074;&#1077; &#1074;&#1080;&#1082;&#1083;&#1102;&#1095;&#1077;&#1085;&#1085;&#1103;:</text><text fill="#000000" font-family="sans-serif" font-size="13" font-weight="bold" lengthAdjust="spacing" textLength="205.6831" x="712.9341" y="272.8042">TaskAlreadyExistsException</text><rect fill="#F1F1F1" height="33.9688" rx="12.5" ry="12.5" style="stroke:#181818;stroke-width:0.5;" width="378.9512" x="303.457" y="243.7529"/><text fill="#000000" font-family="sans-serif" font-size="12" lengthAdjust="spacing" textLength="355.1367" x="317.2715" y="264.8916">&#1055;&#1077;&#1088;&#1077;&#1074;&#1110;&#1088;&#1103;&#1108;, &#1095;&#1080; &#1110;&#1089;&#1085;&#1091;&#1108; &#1079;&#1072;&#1076;&#1072;&#1095;&#1072; &#1079; &#1090;&#1072;&#1082;&#1080;&#1084; &#1078;&#1077; &#1110;&#1076;&#1077;&#1085;&#1090;&#1080;&#1092;&#1110;&#1082;&#1072;&#1090;&#1086;&#1088;&#1086;&#1084;</text><line style="stroke:#000000;stroke-width:1.5;" x1="297.457" x2="297.457" y1="12.7451" y2="376.8389"/><line style="stroke:#000000;stroke-width:1.5;" x1="938.6172" x2="938.6172" y1="12.7451" y2="376.8389"/><line style="stroke:#181818;stroke-width:1;" x1="157.2285" x2="157.2285" y1="58.6982" y2="78.6982"/><polygon fill="#181818" points="153.2285,68.6982,157.2285,78.6982,161.2285,68.6982,157.2285,72.6982" style="stroke:#181818;stroke-width:1;"/><line style="stroke:#181818;stroke-width:1;" x1="157.2285" x2="157.2285" y1="112.667" y2="132.667"/><polygon fill="#181818" points="153.2285,122.667,157.2285,132.667,161.2285,122.667,157.2285,126.667" style="stroke:#181818;stroke-width:1;"/><line style="stroke:#181818;stroke-width:1;" x1="157.2285" x2="157.2285" y1="334.8389" y2="354.8389"/><polygon fill="#181818" points="153.2285,344.8389,157.2285,354.8389,161.2285,344.8389,157.2285,348.8389" style="stroke:#181818;stroke-width:1;"/><line style="stroke:#181818;stroke-width:1;" x1="492.9326" x2="492.9326" y1="220.6045" y2="243.7529"/><polygon fill="#181818" points="488.9326,233.7529,492.9326,243.7529,496.9326,233.7529,492.9326,237.7529" style="stroke:#181818;stroke-width:1;"/><line style="stroke:#181818;stroke-width:1;" x1="157.2285" x2="157.2285" y1="166.6357" y2="171.6357"/><line style="stroke:#181818;stroke-width:1;" x1="157.2285" x2="492.9326" y1="171.6357" y2="171.6357"/><line style="stroke:#181818;stroke-width:1;" x1="492.9326" x2="492.9326" y1="171.6357" y2="186.6357"/><polygon fill="#181818" points="488.9326,176.6357,492.9326,186.6357,496.9326,176.6357,492.9326,180.6357" style="stroke:#181818;stroke-width:1;"/><line style="stroke:#181818;stroke-width:1;" x1="492.9326" x2="492.9326" y1="277.7217" y2="285.8701"/><line style="stroke:#181818;stroke-width:1;" x1="492.9326" x2="157.2285" y1="285.8701" y2="285.8701"/><line style="stroke:#181818;stroke-width:1;" x1="157.2285" x2="157.2285" y1="285.8701" y2="300.8701"/><polygon fill="#181818" points="153.2285,290.8701,157.2285,300.8701,161.2285,290.8701,157.2285,294.8701" style="stroke:#181818;stroke-width:1;"/><text fill="#000000" font-family="sans-serif" font-size="18" lengthAdjust="spacing" textLength="110.2236" x="101.1167" y="29.4531">&#1050;&#1086;&#1088;&#1080;&#1089;&#1090;&#1091;&#1074;&#1072;&#1095;</text><text fill="#000000" font-family="sans-serif" font-size="18" lengthAdjust="spacing" textLength="80.332" x="577.8711" y="29.4531">&#1057;&#1080;&#1089;&#1090;&#1077;&#1084;&#1072;</text><!--SRC=[ZP91IiDG48RtESLGjvwW5K6m2_TU8BQ91YKjpIjKoA9j2dLbDoM2A5AyG2Z6XZPjhZ1p8_-9MhAeOB9vyzxCD_y_xuNyp3iPSYOZ6Kl4Iqva6bg1iNkcOTM9dpZXWdSusCgZp4acPNuk4Ma9zZLCUOlp6V4AwH_AaBXXQVqhWh7YUOtLd92O4DPRC0jU0rFZnPwJQMwL4jM02NdnBH1zSav2vRvnMlPTIYn3cIbvYJz57SH8J0hG1UhzZd6evrtV63foNHkVTN9rIlm23P-yuKmfMfz1s0Osfx-6wcNYXH_qNTThUOvlpcrZDmSjfskyZcyvVfkKRXsKT4mWPOHm15Ya6lVET0ehWgK4FJFE2KfIfFxerv5D4AtByUbeTfp_pmemVrkvj8FRixkUOxVlcmClCC4XB-7XHm6Bxt1ImC-3tb_b0PHFetfja1gOJhVn1G00]--></g></svg>