<svg xmlns="http://www.w3.org/2000/svg" xmlns:xlink="http://www.w3.org/1999/xlink" contentStyleType="text/css" height="397px" preserveAspectRatio="none" style="width:829px;height:397px;background:#FFFFFF;" version="1.1" viewBox="0 0 829 397" width="829px" zoomAndPan="magnify"><defs/><g><rect fill="none" height="20.9531" style="stroke:none;stroke-width:1;" width="796.5684" x="15" y="12.7451"/><ellipse cx="157.5244" cy="48.6982" fill="#222222" rx="10" ry="10" style="stroke:#222222;stroke-width:1;"/><rect fill="#F1F1F1" height="33.9688" rx="12.5" ry="12.5" style="stroke:#181818;stroke-width:0.5;" width="199.6367" x="57.7061" y="78.6982"/><text fill="#000000" font-family="sans-serif" font-size="12" lengthAdjust="spacing" textLength="175.8223" x="71.5205" y="99.8369">&#1047;&#1072;&#1087;&#1086;&#1074;&#1085;&#1102;&#1108; &#1092;&#1086;&#1088;&#1084;&#1091; &#1088;&#1077;&#1108;&#1089;&#1090;&#1088;&#1072;&#1094;&#1110;&#1111;</text><rect fill="#F1F1F1" height="33.9688" rx="12.5" ry="12.5" style="stroke:#181818;stroke-width:0.5;" width="273.0488" x="21" y="132.667"/><text fill="#000000" font-family="sans-serif" font-size="12" lengthAdjust="spacing" textLength="249.2344" x="34.8145" y="153.8057">&#1053;&#1072;&#1090;&#1080;&#1089;&#1082;&#1072;&#1108; &#1085;&#1072; &#1082;&#1085;&#1086;&#1087;&#1082;&#1091; "&#1047;&#1072;&#1088;&#1077;&#1108;&#1089;&#1090;&#1088;&#1091;&#1074;&#1072;&#1090;&#1080;&#1089;&#1103;"</text><rect fill="#F1F1F1" height="33.9688" rx="12.5" ry="12.5" style="stroke:#181818;stroke-width:0.5;" width="225.7285" x="44.6602" y="309.1514"/><text fill="#000000" font-family="sans-serif" font-size="12" lengthAdjust="spacing" textLength="201.9141" x="58.4746" y="330.29">&#1059;&#1089;&#1087;&#1110;&#1096;&#1085;&#1086; &#1088;&#1077;&#1108;&#1089;&#1090;&#1088;&#1091;&#1108;&#1090;&#1100;&#1089;&#1103; &#1091; &#1089;&#1080;&#1089;&#1090;&#1077;&#1084;&#1110;</text><ellipse cx="157.5244" cy="374.1201" fill="none" rx="11" ry="11" style="stroke:#222222;stroke-width:1;"/><ellipse cx="157.5244" cy="374.1201" fill="#222222" rx="6" ry="6" style="stroke:#222222;stroke-width:1;"/><line style="stroke:#000000;stroke-width:1.5;" x1="15" x2="15" y1="12.7451" y2="385.1201"/><path d="M533.9717,176.6357 L533.9717,200.335 L513.9717,204.335 L533.9717,208.335 L533.9717,232.0342 A0,0 0 0 0 533.9717,232.0342 L749.2988,232.0342 A0,0 0 0 0 749.2988,232.0342 L749.2988,186.6357 L739.2988,176.6357 L533.9717,176.6357 A0,0 0 0 0 533.9717,176.6357 " fill="#FFAAAA" style="stroke:#181818;stroke-width:0.5;"/><path d="M739.2988,176.6357 L739.2988,186.6357 L749.2988,186.6357 L739.2988,176.6357 " fill="#FFAAAA" style="stroke:#181818;stroke-width:0.5;"/><text fill="#000000" font-family="sans-serif" font-size="13" font-weight="bold" lengthAdjust="spacing" textLength="168.2129" x="544.4976" y="193.7026">&#1052;&#1086;&#1078;&#1083;&#1080;&#1074;&#1110; &#1074;&#1080;&#1082;&#1083;&#1102;&#1095;&#1077;&#1085;&#1085;&#1103;:</text><text fill="#000000" font-family="sans-serif" font-size="13" font-weight="bold" lengthAdjust="spacing" textLength="156.0571" x="544.4976" y="208.8354">InvalidDataException</text><text fill="#000000" font-family="sans-serif" font-size="13" font-weight="bold" lengthAdjust="spacing" textLength="189.8013" x="544.4976" y="223.9683">InsufficientDataException</text><rect fill="#F1F1F1" height="33.9688" rx="12.5" ry="12.5" style="stroke:#181818;stroke-width:0.5;" width="169.8945" x="344.0771" y="187.3506"/><text fill="#000000" font-family="sans-serif" font-size="12" lengthAdjust="spacing" textLength="146.0801" x="357.8916" y="208.4893">&#1055;&#1077;&#1088;&#1077;&#1074;&#1110;&#1088;&#1103;&#1108; &#1074;&#1074;&#1077;&#1076;&#1077;&#1085;&#1110; &#1076;&#1072;&#1085;&#1110;</text><path d="M574,248.8857 L574,265.0186 L554,269.0186 L574,273.0186 L574,289.1514 A0,0 0 0 0 574,289.1514 L804.7075,289.1514 A0,0 0 0 0 804.7075,289.1514 L804.7075,258.8857 L794.7075,248.8857 L574,248.8857 A0,0 0 0 0 574,248.8857 " fill="#FFAAAA" style="stroke:#181818;stroke-width:0.5;"/><path d="M794.7075,248.8857 L794.7075,258.8857 L804.7075,258.8857 L794.7075,248.8857 " fill="#FFAAAA" style="stroke:#181818;stroke-width:0.5;"/><text fill="#000000" font-family="sans-serif" font-size="13" font-weight="bold" lengthAdjust="spacing" textLength="172.5737" x="584.5259" y="265.9526">&#1052;&#1086;&#1078;&#1083;&#1080;&#1074;&#1077; &#1074;&#1080;&#1082;&#1083;&#1102;&#1095;&#1077;&#1085;&#1085;&#1103;:</text><text fill="#000000" font-family="sans-serif" font-size="13" font-weight="bold" lengthAdjust="spacing" textLength="205.1816" x="584.5259" y="281.0854">UserAlreadyExistsException</text><rect fill="#F1F1F1" height="33.9688" rx="12.5" ry="12.5" style="stroke:#181818;stroke-width:0.5;" width="249.9512" x="304.0488" y="252.0342"/><text fill="#000000" font-family="sans-serif" font-size="12" lengthAdjust="spacing" textLength="226.1367" x="317.8633" y="273.1729">&#1055;&#1077;&#1088;&#1077;&#1074;&#1110;&#1088;&#1103;&#1108;, &#1095;&#1080; &#1082;&#1086;&#1088;&#1080;&#1089;&#1090;&#1091;&#1074;&#1072;&#1095; &#1074;&#1078;&#1077; &#1110;&#1089;&#1085;&#1091;&#1108;</text><line style="stroke:#000000;stroke-width:1.5;" x1="298.0488" x2="298.0488" y1="12.7451" y2="385.1201"/><line style="stroke:#000000;stroke-width:1.5;" x1="809.7075" x2="809.7075" y1="12.7451" y2="385.1201"/><line style="stroke:#181818;stroke-width:1;" x1="157.5244" x2="157.5244" y1="58.6982" y2="78.6982"/><polygon fill="#181818" points="153.5244,68.6982,157.5244,78.6982,161.5244,68.6982,157.5244,72.6982" style="stroke:#181818;stroke-width:1;"/><line style="stroke:#181818;stroke-width:1;" x1="157.5244" x2="157.5244" y1="112.667" y2="132.667"/><polygon fill="#181818" points="153.5244,122.667,157.5244,132.667,161.5244,122.667,157.5244,126.667" style="stroke:#181818;stroke-width:1;"/><line style="stroke:#181818;stroke-width:1;" x1="157.5244" x2="157.5244" y1="343.1201" y2="363.1201"/><polygon fill="#181818" points="153.5244,353.1201,157.5244,363.1201,161.5244,353.1201,157.5244,357.1201" style="stroke:#181818;stroke-width:1;"/><line style="stroke:#181818;stroke-width:1;" x1="429.0244" x2="429.0244" y1="221.3193" y2="252.0342"/><polygon fill="#181818" points="425.0244,242.0342,429.0244,252.0342,433.0244,242.0342,429.0244,246.0342" style="stroke:#181818;stroke-width:1;"/><line style="stroke:#181818;stroke-width:1;" x1="157.5244" x2="157.5244" y1="166.6357" y2="171.6357"/><line style="stroke:#181818;stroke-width:1;" x1="157.5244" x2="429.0244" y1="171.6357" y2="171.6357"/><line style="stroke:#181818;stroke-width:1;" x1="429.0244" x2="429.0244" y1="171.6357" y2="187.3506"/><polygon fill="#181818" points="425.0244,177.3506,429.0244,187.3506,433.0244,177.3506,429.0244,181.3506" style="stroke:#181818;stroke-width:1;"/><line style="stroke:#181818;stroke-width:1;" x1="429.0244" x2="429.0244" y1="286.0029" y2="294.1514"/><line style="stroke:#181818;stroke-width:1;" x1="429.0244" x2="157.5244" y1="294.1514" y2="294.1514"/><line style="stroke:#181818;stroke-width:1;" x1="157.5244" x2="157.5244" y1="294.1514" y2="309.1514"/><polygon fill="#181818" points="153.5244,299.1514,157.5244,309.1514,161.5244,299.1514,157.5244,303.1514" style="stroke:#181818;stroke-width:1;"/><text fill="#000000" font-family="sans-serif" font-size="18" lengthAdjust="spacing" textLength="110.2236" x="101.4126" y="29.4531">&#1050;&#1086;&#1088;&#1080;&#1089;&#1090;&#1091;&#1074;&#1072;&#1095;</text><text fill="#000000" font-family="sans-serif" font-size="18" lengthAdjust="spacing" textLength="80.332" x="513.7122" y="29.4531">&#1057;&#1080;&#1089;&#1090;&#1077;&#1084;&#1072;</text><!--SRC=[ZL91IiDG4Dtd54FTUe9M1C4kF807Y6sYWPAMv5igP96sObs8tOGMH17n0g6O4jgclSBCZNmJ2rgiO4BuByoyDszcViHFl9QOS-dBG8OyurH6aHKQEp0rgqeyvPGtl4QWa4T9I6xB_9KC2KScIKcCGRkJYKnhbf9Uy3jGJLu09SG5fmHSG6Z32t0hAlnJO5kxPCcu0fs8txviSSOhJYCLVWK199wXLYnZbPxXpVW3No4J0aWLWE-tZKE1TtbbwC1rRJpMqSKnyJDCp7d9kQeeFuUp9PeRgGR8usgPUEPtxPRNFBMDNUyrd8xnslus45wxhjVm7D_iHXs_ILhMsklra50YrpdychZQc7D6IEt3mL2I_pK0ojyDd8TESD8A7BjvK-zveGdt6OtsNm3uVuUL3GpTwzfeTrT00tdGJP5UXFxteihHXwRTgNq2]--></g></svg>