<svg xmlns="http://www.w3.org/2000/svg" xmlns:xlink="http://www.w3.org/1999/xlink" contentStyleType="text/css" height="686px" preserveAspectRatio="none" style="width:1170px;height:686px;background:#FFFFFF;" version="1.1" viewBox="0 0 1170 686" width="1170px" zoomAndPan="magnify"><defs/><g><!--cluster AccountManagement--><g id="cluster_AccountManagement"><path d="M692.5,466.45 L860.2285,466.45 A3.75,3.75 0 0 1 862.7285,468.95 L869.7285,488.7469 L989.5,488.7469 A2.5,2.5 0 0 1 992,491.2469 L992,677.03 A2.5,2.5 0 0 1 989.5,679.53 L692.5,679.53 A2.5,2.5 0 0 1 690,677.03 L690,468.95 A2.5,2.5 0 0 1 692.5,466.45 " fill="none" style="stroke:#000000;stroke-width:1.5;"/><line style="stroke:#000000;stroke-width:1.5;" x1="690" x2="869.7285" y1="488.7469" y2="488.7469"/><text fill="#000000" font-family="sans-serif" font-size="14" font-weight="bold" lengthAdjust="spacing" textLength="166.7285" x="694" y="481.4451">AccountManagement</text></g><!--cluster ProjectManagement--><g id="cluster_ProjectManagement"><path d="M8.5,6 L168.6201,6 A3.75,3.75 0 0 1 171.1201,8.5 L178.1201,28.2969 L663.5,28.2969 A2.5,2.5 0 0 1 666,30.7969 L666,660.73 A2.5,2.5 0 0 1 663.5,663.23 L8.5,663.23 A2.5,2.5 0 0 1 6,660.73 L6,8.5 A2.5,2.5 0 0 1 8.5,6 " fill="none" style="stroke:#000000;stroke-width:1.5;"/><line style="stroke:#000000;stroke-width:1.5;" x1="6" x2="178.1201" y1="28.2969" y2="28.2969"/><text fill="#000000" font-family="sans-serif" font-size="14" font-weight="bold" lengthAdjust="spacing" textLength="159.1201" x="10" y="20.9951">ProjectManagement</text></g><!--cluster PermissionManagement--><g id="cluster_PermissionManagement"><path d="M742.5,252.52 L933.6484,252.52 A3.75,3.75 0 0 1 936.1484,255.02 L943.1484,274.8169 L1160.5,274.8169 A2.5,2.5 0 0 1 1163,277.3169 L1163,414.21 A2.5,2.5 0 0 1 1160.5,416.71 L742.5,416.71 A2.5,2.5 0 0 1 740,414.21 L740,255.02 A2.5,2.5 0 0 1 742.5,252.52 " fill="none" style="stroke:#000000;stroke-width:1.5;"/><line style="stroke:#000000;stroke-width:1.5;" x1="740" x2="943.1484" y1="274.8169" y2="274.8169"/><text fill="#000000" font-family="sans-serif" font-size="14" font-weight="bold" lengthAdjust="spacing" textLength="190.1484" x="744" y="267.5151">PermissionManagement</text></g><!--class User--><g id="elem_User"><rect codeLine="2" fill="#F1F1F1" height="162.0781" id="User" rx="2.5" ry="2.5" style="stroke:#181818;stroke-width:0.5;" width="269.708" x="706.15" y="501.45"/><ellipse cx="820.7989" cy="517.45" fill="#ADD1B2" rx="11" ry="11" style="stroke:#181818;stroke-width:1;"/><path d="M823.7677,523.0906 Q823.1896,523.3875 822.5489,523.5281 Q821.9083,523.6844 821.2052,523.6844 Q818.7052,523.6844 817.3771,522.0437 Q816.0646,520.3875 816.0646,517.2625 Q816.0646,514.1375 817.3771,512.4812 Q818.7052,510.825 821.2052,510.825 Q821.9083,510.825 822.5489,510.9812 Q823.2052,511.1375 823.7677,511.4344 L823.7677,514.1531 Q823.1427,513.575 822.5489,513.3094 Q821.9552,513.0281 821.3302,513.0281 Q819.9864,513.0281 819.2989,514.1062 Q818.6114,515.1687 818.6114,517.2625 Q818.6114,519.3562 819.2989,520.4344 Q819.9864,521.4969 821.3302,521.4969 Q821.9552,521.4969 822.5489,521.2312 Q823.1427,520.95 823.7677,520.3719 L823.7677,523.0906 Z " fill="#000000"/><text fill="#000000" font-family="sans-serif" font-size="14" lengthAdjust="spacing" textLength="31.9102" x="841.2989" y="522.2967">User</text><line style="stroke:#181818;stroke-width:0.5;" x1="707.15" x2="974.858" y1="533.45" y2="533.45"/><ellipse cx="717.15" cy="547.0984" fill="none" rx="3" ry="3" style="stroke:#038048;stroke-width:1;"/><text fill="#000000" font-family="sans-serif" font-size="14" lengthAdjust="spacing" textLength="49.5469" x="726.15" y="550.4451">id : INT</text><ellipse cx="717.15" cy="563.3953" fill="none" rx="3" ry="3" style="stroke:#038048;stroke-width:1;"/><text fill="#000000" font-family="sans-serif" font-size="14" lengthAdjust="spacing" textLength="76.6104" x="726.15" y="566.742">roleId : INT</text><ellipse cx="717.15" cy="579.6922" fill="none" rx="3" ry="3" style="stroke:#038048;stroke-width:1;"/><text fill="#000000" font-family="sans-serif" font-size="14" lengthAdjust="spacing" textLength="153.6787" x="726.15" y="583.0389">createdAt : DATETIME</text><line style="stroke:#181818;stroke-width:0.5;" x1="707.15" x2="974.858" y1="590.3406" y2="590.3406"/><ellipse cx="717.15" cy="603.9891" fill="#84BE84" rx="3" ry="3" style="stroke:#038048;stroke-width:1;"/><text fill="#000000" font-family="sans-serif" font-size="14" lengthAdjust="spacing" textLength="181.084" x="726.15" y="607.3357">username : VARCHAR(45)</text><ellipse cx="717.15" cy="620.2859" fill="#84BE84" rx="3" ry="3" style="stroke:#038048;stroke-width:1;"/><text fill="#000000" font-family="sans-serif" font-size="14" lengthAdjust="spacing" textLength="149.4541" x="726.15" y="623.6326">email : VARCHAR(45)</text><ellipse cx="717.15" cy="636.5828" fill="#84BE84" rx="3" ry="3" style="stroke:#038048;stroke-width:1;"/><text fill="#000000" font-family="sans-serif" font-size="14" lengthAdjust="spacing" textLength="186.4639" x="726.15" y="639.9295">password : VARCHAR(255)</text><ellipse cx="717.15" cy="652.8797" fill="#84BE84" rx="3" ry="3" style="stroke:#038048;stroke-width:1;"/><text fill="#000000" font-family="sans-serif" font-size="14" lengthAdjust="spacing" textLength="243.708" x="726.15" y="656.2264">status : ENUM('ACTIVE', 'BANNED')</text></g><!--class Project--><g id="elem_Project"><rect codeLine="14" fill="#F1F1F1" height="145.7813" id="Project" rx="2.5" ry="2.5" style="stroke:#181818;stroke-width:0.5;" width="185.4551" x="458.27" y="41"/><ellipse cx="522.521" cy="57" fill="#ADD1B2" rx="11" ry="11" style="stroke:#181818;stroke-width:1;"/><path d="M525.4897,62.6406 Q524.9116,62.9375 524.271,63.0781 Q523.6304,63.2344 522.9272,63.2344 Q520.4272,63.2344 519.0991,61.5938 Q517.7866,59.9375 517.7866,56.8125 Q517.7866,53.6875 519.0991,52.0313 Q520.4272,50.375 522.9272,50.375 Q523.6304,50.375 524.271,50.5313 Q524.9272,50.6875 525.4897,50.9844 L525.4897,53.7031 Q524.8647,53.125 524.271,52.8594 Q523.6772,52.5781 523.0522,52.5781 Q521.7085,52.5781 521.021,53.6563 Q520.3335,54.7188 520.3335,56.8125 Q520.3335,58.9063 521.021,59.9844 Q521.7085,61.0469 523.0522,61.0469 Q523.6772,61.0469 524.271,60.7813 Q524.8647,60.5 525.4897,59.9219 L525.4897,62.6406 Z " fill="#000000"/><text fill="#000000" font-family="sans-serif" font-size="14" lengthAdjust="spacing" textLength="48.4531" x="543.021" y="61.8467">Project</text><line style="stroke:#181818;stroke-width:0.5;" x1="459.27" x2="642.7251" y1="73" y2="73"/><ellipse cx="469.27" cy="86.6484" fill="none" rx="3" ry="3" style="stroke:#038048;stroke-width:1;"/><text fill="#000000" font-family="sans-serif" font-size="14" lengthAdjust="spacing" textLength="49.5469" x="478.27" y="89.9951">id : INT</text><ellipse cx="469.27" cy="102.9453" fill="none" rx="3" ry="3" style="stroke:#038048;stroke-width:1;"/><text fill="#000000" font-family="sans-serif" font-size="14" lengthAdjust="spacing" textLength="126.998" x="478.27" y="106.292">description : TEXT</text><ellipse cx="469.27" cy="119.2422" fill="none" rx="3" ry="3" style="stroke:#038048;stroke-width:1;"/><text fill="#000000" font-family="sans-serif" font-size="14" lengthAdjust="spacing" textLength="93.0439" x="478.27" y="122.5889">ownerId : INT</text><ellipse cx="469.27" cy="135.5391" fill="none" rx="3" ry="3" style="stroke:#038048;stroke-width:1;"/><text fill="#000000" font-family="sans-serif" font-size="14" lengthAdjust="spacing" textLength="86.1055" x="478.27" y="138.8857">teamId : INT</text><ellipse cx="469.27" cy="151.8359" fill="none" rx="3" ry="3" style="stroke:#038048;stroke-width:1;"/><text fill="#000000" font-family="sans-serif" font-size="14" lengthAdjust="spacing" textLength="153.6787" x="478.27" y="155.1826">createdAt : DATETIME</text><line style="stroke:#181818;stroke-width:0.5;" x1="459.27" x2="642.7251" y1="162.4844" y2="162.4844"/><ellipse cx="469.27" cy="176.1328" fill="#84BE84" rx="3" ry="3" style="stroke:#038048;stroke-width:1;"/><text fill="#000000" font-family="sans-serif" font-size="14" lengthAdjust="spacing" textLength="159.4551" x="478.27" y="179.4795">name : VARCHAR(100)</text></g><!--class Team--><g id="elem_Team"><rect codeLine="23" fill="#F1F1F1" height="80.5938" id="Team" rx="2.5" ry="2.5" style="stroke:#181818;stroke-width:0.5;" width="179.6787" x="22.16" y="303.82"/><ellipse cx="88.0584" cy="319.82" fill="#ADD1B2" rx="11" ry="11" style="stroke:#181818;stroke-width:1;"/><path d="M91.0272,325.4606 Q90.4491,325.7575 89.8084,325.8981 Q89.1678,326.0544 88.4647,326.0544 Q85.9647,326.0544 84.6366,324.4138 Q83.3241,322.7575 83.3241,319.6325 Q83.3241,316.5075 84.6366,314.8513 Q85.9647,313.195 88.4647,313.195 Q89.1678,313.195 89.8084,313.3513 Q90.4647,313.5075 91.0272,313.8044 L91.0272,316.5231 Q90.4022,315.945 89.8084,315.6794 Q89.2147,315.3981 88.5897,315.3981 Q87.2459,315.3981 86.5584,316.4763 Q85.8709,317.5388 85.8709,319.6325 Q85.8709,321.7263 86.5584,322.8044 Q87.2459,323.8669 88.5897,323.8669 Q89.2147,323.8669 89.8084,323.6013 Q90.4022,323.32 91.0272,322.7419 L91.0272,325.4606 Z " fill="#000000"/><text fill="#000000" font-family="sans-serif" font-size="14" lengthAdjust="spacing" textLength="39.3818" x="108.5584" y="324.6667">Team</text><line style="stroke:#181818;stroke-width:0.5;" x1="23.16" x2="200.8387" y1="335.82" y2="335.82"/><ellipse cx="33.16" cy="349.4684" fill="none" rx="3" ry="3" style="stroke:#038048;stroke-width:1;"/><text fill="#000000" font-family="sans-serif" font-size="14" lengthAdjust="spacing" textLength="49.5469" x="42.16" y="352.8151">id : INT</text><ellipse cx="33.16" cy="365.7653" fill="none" rx="3" ry="3" style="stroke:#038048;stroke-width:1;"/><text fill="#000000" font-family="sans-serif" font-size="14" lengthAdjust="spacing" textLength="153.6787" x="42.16" y="369.112">createdAt : DATETIME</text><line style="stroke:#181818;stroke-width:0.5;" x1="23.16" x2="200.8387" y1="376.4138" y2="376.4138"/></g><!--class Member--><g id="elem_Member"><rect codeLine="28" fill="#F1F1F1" height="129.4844" id="Member" rx="2.5" ry="2.5" style="stroke:#181818;stroke-width:0.5;" width="356.75" x="157.63" y="517.75"/><ellipse cx="302.962" cy="533.75" fill="#ADD1B2" rx="11" ry="11" style="stroke:#181818;stroke-width:1;"/><path d="M305.9308,539.3906 Q305.3527,539.6875 304.712,539.8281 Q304.0714,539.9844 303.3683,539.9844 Q300.8683,539.9844 299.5402,538.3438 Q298.2277,536.6875 298.2277,533.5625 Q298.2277,530.4375 299.5402,528.7813 Q300.8683,527.125 303.3683,527.125 Q304.0714,527.125 304.712,527.2813 Q305.3683,527.4375 305.9308,527.7344 L305.9308,530.4531 Q305.3058,529.875 304.712,529.6094 Q304.1183,529.3281 303.4933,529.3281 Q302.1495,529.3281 301.462,530.4063 Q300.7745,531.4688 300.7745,533.5625 Q300.7745,535.6563 301.462,536.7344 Q302.1495,537.7969 303.4933,537.7969 Q304.1183,537.7969 304.712,537.5313 Q305.3058,537.25 305.9308,536.6719 L305.9308,539.3906 Z " fill="#000000"/><text fill="#000000" font-family="sans-serif" font-size="14" lengthAdjust="spacing" textLength="57.5859" x="323.462" y="538.5967">Member</text><line style="stroke:#181818;stroke-width:0.5;" x1="158.63" x2="513.38" y1="549.75" y2="549.75"/><ellipse cx="168.63" cy="563.3984" fill="none" rx="3" ry="3" style="stroke:#038048;stroke-width:1;"/><text fill="#000000" font-family="sans-serif" font-size="14" lengthAdjust="spacing" textLength="49.5469" x="177.63" y="566.7451">id : INT</text><ellipse cx="168.63" cy="579.6953" fill="none" rx="3" ry="3" style="stroke:#038048;stroke-width:1;"/><text fill="#000000" font-family="sans-serif" font-size="14" lengthAdjust="spacing" textLength="80.3223" x="177.63" y="583.042">userId : INT</text><ellipse cx="168.63" cy="595.9922" fill="none" rx="3" ry="3" style="stroke:#038048;stroke-width:1;"/><text fill="#000000" font-family="sans-serif" font-size="14" lengthAdjust="spacing" textLength="86.1055" x="177.63" y="599.3389">teamId : INT</text><ellipse cx="168.63" cy="612.2891" fill="none" rx="3" ry="3" style="stroke:#038048;stroke-width:1;"/><text fill="#000000" font-family="sans-serif" font-size="14" lengthAdjust="spacing" textLength="142.7617" x="177.63" y="615.6357">joinedAt : DATETIME</text><line style="stroke:#181818;stroke-width:0.5;" x1="158.63" x2="513.38" y1="622.9375" y2="622.9375"/><ellipse cx="168.63" cy="636.5859" fill="#84BE84" rx="3" ry="3" style="stroke:#038048;stroke-width:1;"/><text fill="#000000" font-family="sans-serif" font-size="14" lengthAdjust="spacing" textLength="330.75" x="177.63" y="639.9326">teamRole : ENUM('Developer', 'Project Leader')</text></g><!--class Task--><g id="elem_Task"><rect codeLine="36" fill="#F1F1F1" height="194.6719" id="Task" rx="2.5" ry="2.5" style="stroke:#181818;stroke-width:0.5;" width="179.6787" x="237.16" y="246.78"/><ellipse cx="306.4832" cy="262.78" fill="#ADD1B2" rx="11" ry="11" style="stroke:#181818;stroke-width:1;"/><path d="M309.452,268.4206 Q308.8739,268.7175 308.2332,268.8581 Q307.5926,269.0144 306.8895,269.0144 Q304.3895,269.0144 303.0614,267.3738 Q301.7489,265.7175 301.7489,262.5925 Q301.7489,259.4675 303.0614,257.8113 Q304.3895,256.155 306.8895,256.155 Q307.5926,256.155 308.2332,256.3113 Q308.8895,256.4675 309.452,256.7644 L309.452,259.4831 Q308.827,258.905 308.2332,258.6394 Q307.6395,258.3581 307.0145,258.3581 Q305.6707,258.3581 304.9832,259.4363 Q304.2957,260.4988 304.2957,262.5925 Q304.2957,264.6863 304.9832,265.7644 Q305.6707,266.8269 307.0145,266.8269 Q307.6395,266.8269 308.2332,266.5613 Q308.827,266.28 309.452,265.7019 L309.452,268.4206 Z " fill="#000000"/><text fill="#000000" font-family="sans-serif" font-size="14" lengthAdjust="spacing" textLength="32.5322" x="326.9832" y="267.6267">Task</text><line style="stroke:#181818;stroke-width:0.5;" x1="238.16" x2="415.8387" y1="278.78" y2="278.78"/><ellipse cx="248.16" cy="292.4284" fill="none" rx="3" ry="3" style="stroke:#038048;stroke-width:1;"/><text fill="#000000" font-family="sans-serif" font-size="14" lengthAdjust="spacing" textLength="49.5469" x="257.16" y="295.7751">id : INT</text><ellipse cx="248.16" cy="308.7253" fill="none" rx="3" ry="3" style="stroke:#038048;stroke-width:1;"/><text fill="#000000" font-family="sans-serif" font-size="14" lengthAdjust="spacing" textLength="126.998" x="257.16" y="312.072">description : TEXT</text><ellipse cx="248.16" cy="325.0222" fill="none" rx="3" ry="3" style="stroke:#038048;stroke-width:1;"/><text fill="#000000" font-family="sans-serif" font-size="14" lengthAdjust="spacing" textLength="116.2041" x="257.16" y="328.3689">assignedTo : INT</text><ellipse cx="248.16" cy="341.3191" fill="none" rx="3" ry="3" style="stroke:#038048;stroke-width:1;"/><text fill="#000000" font-family="sans-serif" font-size="14" lengthAdjust="spacing" textLength="98.6836" x="257.16" y="344.6657">projectId : INT</text><ellipse cx="248.16" cy="357.6159" fill="none" rx="3" ry="3" style="stroke:#038048;stroke-width:1;"/><text fill="#000000" font-family="sans-serif" font-size="14" lengthAdjust="spacing" textLength="144.8125" x="257.16" y="360.9626">dueDate : DATETIME</text><ellipse cx="248.16" cy="373.9128" fill="none" rx="3" ry="3" style="stroke:#038048;stroke-width:1;"/><text fill="#000000" font-family="sans-serif" font-size="14" lengthAdjust="spacing" textLength="153.6787" x="257.16" y="377.2595">createdAt : DATETIME</text><line style="stroke:#181818;stroke-width:0.5;" x1="238.16" x2="415.8387" y1="384.5613" y2="384.5613"/><ellipse cx="248.16" cy="398.2097" fill="#84BE84" rx="3" ry="3" style="stroke:#038048;stroke-width:1;"/><text fill="#000000" font-family="sans-serif" font-size="14" lengthAdjust="spacing" textLength="147.123" x="257.16" y="401.5564">title : VARCHAR(100)</text><ellipse cx="248.16" cy="414.5066" fill="#84BE84" rx="3" ry="3" style="stroke:#038048;stroke-width:1;"/><text fill="#000000" font-family="sans-serif" font-size="14" lengthAdjust="spacing" textLength="109.2041" x="257.16" y="417.8532">status : ENUM()</text><ellipse cx="248.16" cy="430.8034" fill="#84BE84" rx="3" ry="3" style="stroke:#038048;stroke-width:1;"/><text fill="#000000" font-family="sans-serif" font-size="14" lengthAdjust="spacing" textLength="116.7031" x="257.16" y="434.1501">priority : ENUM()</text></g><!--class Artefact--><g id="elem_Artefact"><rect codeLine="48" fill="#F1F1F1" height="178.375" id="Artefact" rx="2.5" ry="2.5" style="stroke:#181818;stroke-width:0.5;" width="198.457" x="451.77" y="254.93"/><ellipse cx="518.6836" cy="270.93" fill="#ADD1B2" rx="11" ry="11" style="stroke:#181818;stroke-width:1;"/><path d="M521.6523,276.5706 Q521.0742,276.8675 520.4336,277.0081 Q519.7929,277.1644 519.0898,277.1644 Q516.5898,277.1644 515.2617,275.5237 Q513.9492,273.8675 513.9492,270.7425 Q513.9492,267.6175 515.2617,265.9612 Q516.5898,264.305 519.0898,264.305 Q519.7929,264.305 520.4336,264.4612 Q521.0898,264.6175 521.6523,264.9144 L521.6523,267.6331 Q521.0273,267.055 520.4336,266.7894 Q519.8398,266.5081 519.2148,266.5081 Q517.8711,266.5081 517.1836,267.5862 Q516.4961,268.6487 516.4961,270.7425 Q516.4961,272.8362 517.1836,273.9144 Q517.8711,274.9769 519.2148,274.9769 Q519.8398,274.9769 520.4336,274.7112 Q521.0273,274.43 521.6523,273.8519 L521.6523,276.5706 Z " fill="#000000"/><text fill="#000000" font-family="sans-serif" font-size="14" lengthAdjust="spacing" textLength="56.1299" x="539.1836" y="275.7767">Artefact</text><line style="stroke:#181818;stroke-width:0.5;" x1="452.77" x2="649.227" y1="286.93" y2="286.93"/><ellipse cx="462.77" cy="300.5784" fill="none" rx="3" ry="3" style="stroke:#038048;stroke-width:1;"/><text fill="#000000" font-family="sans-serif" font-size="14" lengthAdjust="spacing" textLength="49.5469" x="471.77" y="303.9251">id : INT</text><ellipse cx="462.77" cy="316.8753" fill="none" rx="3" ry="3" style="stroke:#038048;stroke-width:1;"/><text fill="#000000" font-family="sans-serif" font-size="14" lengthAdjust="spacing" textLength="126.998" x="471.77" y="320.222">description : TEXT</text><ellipse cx="462.77" cy="333.1722" fill="none" rx="3" ry="3" style="stroke:#038048;stroke-width:1;"/><text fill="#000000" font-family="sans-serif" font-size="14" lengthAdjust="spacing" textLength="119.8408" x="471.77" y="336.5189">uploadedBy : INT</text><ellipse cx="462.77" cy="349.4691" fill="none" rx="3" ry="3" style="stroke:#038048;stroke-width:1;"/><text fill="#000000" font-family="sans-serif" font-size="14" lengthAdjust="spacing" textLength="98.6836" x="471.77" y="352.8157">projectId : INT</text><ellipse cx="462.77" cy="365.7659" fill="none" rx="3" ry="3" style="stroke:#038048;stroke-width:1;"/><text fill="#000000" font-family="sans-serif" font-size="14" lengthAdjust="spacing" textLength="153.6787" x="471.77" y="369.1126">createdAt : DATETIME</text><line style="stroke:#181818;stroke-width:0.5;" x1="452.77" x2="649.227" y1="376.4144" y2="376.4144"/><ellipse cx="462.77" cy="390.0628" fill="#84BE84" rx="3" ry="3" style="stroke:#038048;stroke-width:1;"/><text fill="#000000" font-family="sans-serif" font-size="14" lengthAdjust="spacing" textLength="147.123" x="471.77" y="393.4095">title : VARCHAR(100)</text><ellipse cx="462.77" cy="406.3597" fill="#84BE84" rx="3" ry="3" style="stroke:#038048;stroke-width:1;"/><text fill="#000000" font-family="sans-serif" font-size="14" lengthAdjust="spacing" textLength="172.457" x="471.77" y="409.7064">filePath : VARCHAR(255)</text><ellipse cx="462.77" cy="422.6566" fill="#84BE84" rx="3" ry="3" style="stroke:#038048;stroke-width:1;"/><text fill="#000000" font-family="sans-serif" font-size="14" lengthAdjust="spacing" textLength="166.5029" x="471.77" y="426.0032">fileType : VARCHAR(45)</text></g><!--class Role--><g id="elem_Role"><rect codeLine="70" fill="#F1F1F1" height="80.5938" id="Role" rx="2.5" ry="2.5" style="stroke:#181818;stroke-width:0.5;" width="176.5479" x="755.73" y="303.82"/><ellipse cx="824.356" cy="319.82" fill="#ADD1B2" rx="11" ry="11" style="stroke:#181818;stroke-width:1;"/><path d="M827.3247,325.4606 Q826.7466,325.7575 826.106,325.8981 Q825.4654,326.0544 824.7622,326.0544 Q822.2622,326.0544 820.9341,324.4138 Q819.6216,322.7575 819.6216,319.6325 Q819.6216,316.5075 820.9341,314.8513 Q822.2622,313.195 824.7622,313.195 Q825.4654,313.195 826.106,313.3513 Q826.7622,313.5075 827.3247,313.8044 L827.3247,316.5231 Q826.6997,315.945 826.106,315.6794 Q825.5122,315.3981 824.8872,315.3981 Q823.5435,315.3981 822.856,316.4763 Q822.1685,317.5388 822.1685,319.6325 Q822.1685,321.7263 822.856,322.8044 Q823.5435,323.8669 824.8872,323.8669 Q825.5122,323.8669 826.106,323.6013 Q826.6997,323.32 827.3247,322.7419 L827.3247,325.4606 Z " fill="#000000"/><text fill="#000000" font-family="sans-serif" font-size="14" lengthAdjust="spacing" textLength="30.7959" x="844.856" y="324.6667">Role</text><line style="stroke:#181818;stroke-width:0.5;" x1="756.73" x2="931.2779" y1="335.82" y2="335.82"/><ellipse cx="766.73" cy="349.4684" fill="none" rx="3" ry="3" style="stroke:#038048;stroke-width:1;"/><text fill="#000000" font-family="sans-serif" font-size="14" lengthAdjust="spacing" textLength="49.5469" x="775.73" y="352.8151">id : INT</text><line style="stroke:#181818;stroke-width:0.5;" x1="756.73" x2="931.2779" y1="360.1169" y2="360.1169"/><ellipse cx="766.73" cy="373.7653" fill="#84BE84" rx="3" ry="3" style="stroke:#038048;stroke-width:1;"/><text fill="#000000" font-family="sans-serif" font-size="14" lengthAdjust="spacing" textLength="150.5479" x="775.73" y="377.112">name : VARCHAR(45)</text></g><!--class Grant--><g id="elem_Grant"><rect codeLine="75" fill="#F1F1F1" height="113.1875" id="Grant" rx="2.5" ry="2.5" style="stroke:#181818;stroke-width:0.5;" width="179.6787" x="967.16" y="287.52"/><ellipse cx="1032.9764" cy="303.52" fill="#ADD1B2" rx="11" ry="11" style="stroke:#181818;stroke-width:1;"/><path d="M1035.9452,309.1606 Q1035.367,309.4575 1034.7264,309.5981 Q1034.0858,309.7544 1033.3827,309.7544 Q1030.8827,309.7544 1029.5545,308.1138 Q1028.242,306.4575 1028.242,303.3325 Q1028.242,300.2075 1029.5545,298.5513 Q1030.8827,296.895 1033.3827,296.895 Q1034.0858,296.895 1034.7264,297.0513 Q1035.3827,297.2075 1035.9452,297.5044 L1035.9452,300.2231 Q1035.3202,299.645 1034.7264,299.3794 Q1034.1327,299.0981 1033.5077,299.0981 Q1032.1639,299.0981 1031.4764,300.1763 Q1030.7889,301.2388 1030.7889,303.3325 Q1030.7889,305.4263 1031.4764,306.5044 Q1032.1639,307.5669 1033.5077,307.5669 Q1034.1327,307.5669 1034.7264,307.3013 Q1035.3202,307.02 1035.9452,306.4419 L1035.9452,309.1606 Z " fill="#000000"/><text fill="#000000" font-family="sans-serif" font-size="14" lengthAdjust="spacing" textLength="39.5459" x="1053.4764" y="308.3667">Grant</text><line style="stroke:#181818;stroke-width:0.5;" x1="968.16" x2="1145.8387" y1="319.52" y2="319.52"/><ellipse cx="978.16" cy="333.1684" fill="none" rx="3" ry="3" style="stroke:#038048;stroke-width:1;"/><text fill="#000000" font-family="sans-serif" font-size="14" lengthAdjust="spacing" textLength="49.5469" x="987.16" y="336.5151">id : INT</text><ellipse cx="978.16" cy="349.4653" fill="none" rx="3" ry="3" style="stroke:#038048;stroke-width:1;"/><text fill="#000000" font-family="sans-serif" font-size="14" lengthAdjust="spacing" textLength="98.6836" x="987.16" y="352.812">projectId : INT</text><ellipse cx="978.16" cy="365.7622" fill="none" rx="3" ry="3" style="stroke:#038048;stroke-width:1;"/><text fill="#000000" font-family="sans-serif" font-size="14" lengthAdjust="spacing" textLength="80.3223" x="987.16" y="369.1089">userId : INT</text><ellipse cx="978.16" cy="382.0591" fill="none" rx="3" ry="3" style="stroke:#038048;stroke-width:1;"/><text fill="#000000" font-family="sans-serif" font-size="14" lengthAdjust="spacing" textLength="153.6787" x="987.16" y="385.4057">createdAt : DATETIME</text><line style="stroke:#181818;stroke-width:0.5;" x1="968.16" x2="1145.8387" y1="392.7075" y2="392.7075"/></g><!--link Project to Task--><g id="link_Project_Task"><path codeLine="59" d="M480.12,187.1 C460.13,207.47 438.1,229.92 417.14,251.27 " fill="none" id="Project-Task" style="stroke:#181818;stroke-width:1;"/><text fill="#000000" font-family="sans-serif" font-size="13" lengthAdjust="spacing" textLength="8.271" x="464.9961" y="206.8658">1</text><text fill="#000000" font-family="sans-serif" font-size="13" lengthAdjust="spacing" textLength="6.5" x="424.8739" y="240.0325">*</text></g><!--link Project to Artefact--><g id="link_Project_Artefact"><path codeLine="60" d="M551,187.1 C551,208.52 551,232.22 551,254.55 " fill="none" id="Project-Artefact" style="stroke:#181818;stroke-width:1;"/><text fill="#000000" font-family="sans-serif" font-size="13" lengthAdjust="spacing" textLength="8.271" x="542.6319" y="206.8658">1</text><text fill="#000000" font-family="sans-serif" font-size="13" lengthAdjust="spacing" textLength="6.5" x="544.781" y="243.8871">*</text></g><!--link Project to Team--><g id="link_Project_Team"><path codeLine="61" d="M457.9,141.23 C389.1,163.04 294.8,197.98 220,244.52 C193.7,260.89 167.94,284.04 148.18,303.81 " fill="none" id="Project-Team" style="stroke:#181818;stroke-width:1;"/><text fill="#000000" font-family="sans-serif" font-size="13" lengthAdjust="spacing" textLength="8.271" x="441.8703" y="139.9453">1</text><text fill="#000000" font-family="sans-serif" font-size="13" lengthAdjust="spacing" textLength="8.271" x="145.7343" y="292.6715">1</text></g><!--link Team to Member--><g id="link_Team_Member"><path codeLine="62" d="M149.49,384.68 C183.74,420.82 235.01,474.92 275.13,517.25 " fill="none" id="Team-Member" style="stroke:#181818;stroke-width:1;"/><text fill="#000000" font-family="sans-serif" font-size="13" lengthAdjust="spacing" textLength="8.271" x="146.8492" y="404.4175">1</text><text fill="#000000" font-family="sans-serif" font-size="13" lengthAdjust="spacing" textLength="6.5" x="262.5687" y="506.8222">*</text></g><!--link Member to User--><g id="link_Member_User"><path codeLine="63" d="M514.53,582.49 C578.29,582.49 642.05,582.49 705.82,582.49 " fill="none" id="Member-User" style="stroke:#181818;stroke-width:1;"/><text fill="#000000" font-family="sans-serif" font-size="13" lengthAdjust="spacing" textLength="8.271" x="522.236" y="579.2432">1</text><text fill="#000000" font-family="sans-serif" font-size="13" lengthAdjust="spacing" textLength="8.271" x="689.7813" y="579.1272">1</text></g><!--link Task to User--><g id="link_Task_User"><path codeLine="64" d="M417.1,432.89 C422.61,436.11 428.25,439 434,441.45 C529.1,482.01 568.63,423.68 666,458.45 C693.98,468.44 721.56,484.21 746.27,501.16 " fill="none" id="Task-User" style="stroke:#181818;stroke-width:1;"/><text fill="#000000" font-family="sans-serif" font-size="13" lengthAdjust="spacing" textLength="8.271" x="424.9039" y="436.6929">1</text><text fill="#000000" font-family="sans-serif" font-size="13" lengthAdjust="spacing" textLength="8.271" x="738.2011" y="490.3215">1</text></g><!--link Artefact to User--><g id="link_Artefact_User"><path codeLine="65" d="M650.4,426.13 C680.07,450.32 712.59,476.82 742.23,500.98 " fill="none" id="Artefact-User" style="stroke:#181818;stroke-width:1;"/><text fill="#000000" font-family="sans-serif" font-size="13" lengthAdjust="spacing" textLength="8.271" x="658.3271" y="428.9068">1</text><text fill="#000000" font-family="sans-serif" font-size="13" lengthAdjust="spacing" textLength="8.271" x="725.4095" y="490.4034">1</text></g><!--link Project to User--><g id="link_Project_User"><path codeLine="66" d="M624.94,187.07 C640.56,204.83 655.95,224.53 668,244.52 C716.1,324.34 696.33,359.12 740,441.45 C750.67,461.58 763.91,482.1 777.25,501 " fill="none" id="Project-User" style="stroke:#181818;stroke-width:1;"/><text fill="#000000" font-family="sans-serif" font-size="13" lengthAdjust="spacing" textLength="8.271" x="623.6193" y="206.833">1</text><text fill="#000000" font-family="sans-serif" font-size="13" lengthAdjust="spacing" textLength="6.5" x="765.5348" y="490.4251">*</text></g><!--link Grant to Project--><g id="link_Grant_Project"><path codeLine="82" d="M1005.4,287.25 C988.88,271.77 969.73,256.07 950,244.52 C853.03,187.79 728.06,152.36 644.03,133.16 " fill="none" id="Grant-Project" style="stroke:#181818;stroke-width:1;"/><text fill="#000000" font-family="sans-serif" font-size="13" lengthAdjust="spacing" textLength="8.271" x="990.6403" y="276.4807">1</text><text fill="#000000" font-family="sans-serif" font-size="13" lengthAdjust="spacing" textLength="6.5" x="651.7025" y="131.1701">*</text></g><!--link Grant to User--><g id="link_Grant_User"><path codeLine="83" d="M1005.81,401.13 C978.49,431.03 944.39,468.35 914.3,501.27 " fill="none" id="Grant-User" style="stroke:#181818;stroke-width:1;"/><text fill="#000000" font-family="sans-serif" font-size="13" lengthAdjust="spacing" textLength="8.271" x="991.4444" y="420.6643">1</text><text fill="#000000" font-family="sans-serif" font-size="13" lengthAdjust="spacing" textLength="8.271" x="912.4837" y="490.4413">1</text></g><!--link User to Role--><g id="link_User_Role"><path codeLine="84" d="M842.02,501.07 C842.52,461.82 843.1,416.35 843.5,384.68 " fill="none" id="User-Role" style="stroke:#181818;stroke-width:1;"/><text fill="#000000" font-family="sans-serif" font-size="13" lengthAdjust="spacing" textLength="8.271" x="833.7752" y="490.5011">1</text><text fill="#000000" font-family="sans-serif" font-size="13" lengthAdjust="spacing" textLength="8.271" x="834.8038" y="404.4175">1</text></g><!--SRC=[dLLDRu904BtpApPUj1ycshINtb19QrACCMXwtS9eLs6NB4kDQVpl7LRKhOAWN0ZpPdPdtfiPOkglw0A8xViYvSgb7ByYu8hyMWGVFwH9GgO9oDoGFGyi8AzaEFAEbXGzE8q0xJDxqd-t9wtdbxiZ3X5bOHaOunrh8GC3Vten7QG8ONXsPwAeIXEqEgEfsshQVMyuSvgFfDcpHoDdq3GEy2LG1O6jq7jWUuutT1sDRgsjPSKv2MCfbk2NaP2ZbtauuQ3RwHXP193uaiMA2Ou-dlDf18er1tbUem8QdLilb6Cax67ivMphdUD2z5L7_xhPPzO9AdfGRW0_48eOP2RUdkOFe05Q3FgMWl7geccokfogOYgyJICydoqm1K-SdXdlagxgKRFd9HEIgKq15AGmG5bEoxn2CLigcDEgNhsTY3aBOKpLT-d0PWxU9YvT1saS2fGtw6rgCrbL-Rvl6jq6QRT9uxwXUw4CsrDKYECh6nwDwIao0dVJeA5yC8oeR57keh8sB08EqXI11NbgpDnH82E6VIXuoPhIatNDZjeByw-3tYJb5UrJgbJnBgZIRtUZKNbEHW5eKgP_JGQGbMzj_m00]--></g></svg>