<svg xmlns="http://www.w3.org/2000/svg" xmlns:xlink="http://www.w3.org/1999/xlink" contentStyleType="text/css" height="388px" preserveAspectRatio="none" style="width:855px;height:388px;background:#FFFFFF;" version="1.1" viewBox="0 0 855 388" width="855px" zoomAndPan="magnify"><defs/><g><rect fill="none" height="20.9531" style="stroke:none;stroke-width:1;" width="822.167" x="15" y="12.7451"/><ellipse cx="165.4785" cy="48.6982" fill="#222222" rx="10" ry="10" style="stroke:#222222;stroke-width:1;"/><rect fill="#F1F1F1" height="33.9688" rx="12.5" ry="12.5" style="stroke:#181818;stroke-width:0.5;" width="286.2324" x="22.3623" y="78.6982"/><text fill="#000000" font-family="sans-serif" font-size="12" lengthAdjust="spacing" textLength="262.418" x="36.1768" y="99.8369">&#1042;&#1080;&#1073;&#1080;&#1088;&#1072;&#1108; &#1082;&#1086;&#1088;&#1080;&#1089;&#1090;&#1091;&#1074;&#1072;&#1095;&#1072; &#1076;&#1083;&#1103; &#1088;&#1086;&#1079;&#1073;&#1083;&#1086;&#1082;&#1091;&#1074;&#1072;&#1085;&#1085;&#1103;</text><rect fill="#F1F1F1" height="33.9688" rx="12.5" ry="12.5" style="stroke:#181818;stroke-width:0.5;" width="288.957" x="21" y="132.667"/><text fill="#000000" font-family="sans-serif" font-size="12" lengthAdjust="spacing" textLength="265.1426" x="34.8145" y="153.8057">&#1055;&#1110;&#1076;&#1090;&#1074;&#1077;&#1088;&#1076;&#1078;&#1091;&#1108; &#1088;&#1086;&#1079;&#1073;&#1083;&#1086;&#1082;&#1091;&#1074;&#1072;&#1085;&#1085;&#1103; &#1082;&#1086;&#1088;&#1080;&#1089;&#1090;&#1091;&#1074;&#1072;&#1095;&#1072;</text><rect fill="#F1F1F1" height="33.9688" rx="12.5" ry="12.5" style="stroke:#181818;stroke-width:0.5;" width="241.3672" x="44.7949" y="300.8701"/><text fill="#000000" font-family="sans-serif" font-size="12" lengthAdjust="spacing" textLength="217.5527" x="58.6094" y="322.0088">&#1059;&#1089;&#1087;&#1110;&#1096;&#1085;&#1086; &#1088;&#1086;&#1079;&#1073;&#1083;&#1086;&#1082;&#1086;&#1074;&#1091;&#1108; &#1082;&#1086;&#1088;&#1080;&#1089;&#1090;&#1091;&#1074;&#1072;&#1095;&#1072;</text><ellipse cx="165.4785" cy="365.8389" fill="none" rx="11" ry="11" style="stroke:#222222;stroke-width:1;"/><ellipse cx="165.4785" cy="365.8389" fill="#222222" rx="6" ry="6" style="stroke:#222222;stroke-width:1;"/><line style="stroke:#000000;stroke-width:1.5;" x1="15" x2="15" y1="12.7451" y2="376.8389"/><path d="M589.3984,183.4873 L589.3984,199.6201 L569.3984,203.6201 L589.3984,207.6201 L589.3984,223.7529 A0,0 0 0 0 589.3984,223.7529 L792.0493,223.7529 A0,0 0 0 0 792.0493,223.7529 L792.0493,193.4873 L782.0493,183.4873 L589.3984,183.4873 A0,0 0 0 0 589.3984,183.4873 " fill="#FFAAAA" style="stroke:#181818;stroke-width:0.5;"/><path d="M782.0493,183.4873 L782.0493,193.4873 L792.0493,193.4873 L782.0493,183.4873 " fill="#FFAAAA" style="stroke:#181818;stroke-width:0.5;"/><text fill="#000000" font-family="sans-serif" font-size="13" font-weight="bold" lengthAdjust="spacing" textLength="172.5737" x="599.9243" y="200.5542">&#1052;&#1086;&#1078;&#1083;&#1080;&#1074;&#1077; &#1074;&#1080;&#1082;&#1083;&#1102;&#1095;&#1077;&#1085;&#1085;&#1103;:</text><text fill="#000000" font-family="sans-serif" font-size="13" font-weight="bold" lengthAdjust="spacing" textLength="177.125" x="599.9243" y="215.687">UserNotFoundException</text><rect fill="#F1F1F1" height="33.9688" rx="12.5" ry="12.5" style="stroke:#181818;stroke-width:0.5;" width="220.8711" x="348.5273" y="186.6357"/><text fill="#000000" font-family="sans-serif" font-size="12" lengthAdjust="spacing" textLength="197.0566" x="362.3418" y="207.7744">&#1055;&#1077;&#1088;&#1077;&#1074;&#1110;&#1088;&#1103;&#1108;, &#1095;&#1080; &#1110;&#1089;&#1085;&#1091;&#1108; &#1082;&#1086;&#1088;&#1080;&#1089;&#1090;&#1091;&#1074;&#1072;&#1095;</text><path d="M617.9688,240.6045 L617.9688,256.7373 L597.9688,260.7373 L617.9688,264.7373 L617.9688,280.8701 A0,0 0 0 0 617.9688,280.8701 L830.3062,280.8701 A0,0 0 0 0 830.3062,280.8701 L830.3062,250.6045 L820.3062,240.6045 L617.9688,240.6045 A0,0 0 0 0 617.9688,240.6045 " fill="#FFAAAA" style="stroke:#181818;stroke-width:0.5;"/><path d="M820.3062,240.6045 L820.3062,250.6045 L830.3062,250.6045 L820.3062,240.6045 " fill="#FFAAAA" style="stroke:#181818;stroke-width:0.5;"/><text fill="#000000" font-family="sans-serif" font-size="13" font-weight="bold" lengthAdjust="spacing" textLength="172.5737" x="628.4946" y="257.6714">&#1052;&#1086;&#1078;&#1083;&#1080;&#1074;&#1077; &#1074;&#1080;&#1082;&#1083;&#1102;&#1095;&#1077;&#1085;&#1085;&#1103;:</text><text fill="#000000" font-family="sans-serif" font-size="13" font-weight="bold" lengthAdjust="spacing" textLength="186.8115" x="628.4946" y="272.8042">UserNotBannedException</text><rect fill="#F1F1F1" height="33.9688" rx="12.5" ry="12.5" style="stroke:#181818;stroke-width:0.5;" width="278.0117" x="319.957" y="243.7529"/><text fill="#000000" font-family="sans-serif" font-size="12" lengthAdjust="spacing" textLength="254.1973" x="333.7715" y="264.8916">&#1055;&#1077;&#1088;&#1077;&#1074;&#1110;&#1088;&#1103;&#1108;, &#1095;&#1080; &#1082;&#1086;&#1088;&#1080;&#1089;&#1090;&#1091;&#1074;&#1072;&#1095; &#1079;&#1072;&#1073;&#1083;&#1086;&#1082;&#1086;&#1074;&#1072;&#1085;&#1080;&#1081;</text><line style="stroke:#000000;stroke-width:1.5;" x1="313.957" x2="313.957" y1="12.7451" y2="376.8389"/><line style="stroke:#000000;stroke-width:1.5;" x1="835.3062" x2="835.3062" y1="12.7451" y2="376.8389"/><line style="stroke:#181818;stroke-width:1;" x1="165.4785" x2="165.4785" y1="58.6982" y2="78.6982"/><polygon fill="#181818" points="161.4785,68.6982,165.4785,78.6982,169.4785,68.6982,165.4785,72.6982" style="stroke:#181818;stroke-width:1;"/><line style="stroke:#181818;stroke-width:1;" x1="165.4785" x2="165.4785" y1="112.667" y2="132.667"/><polygon fill="#181818" points="161.4785,122.667,165.4785,132.667,169.4785,122.667,165.4785,126.667" style="stroke:#181818;stroke-width:1;"/><line style="stroke:#181818;stroke-width:1;" x1="165.4785" x2="165.4785" y1="334.8389" y2="354.8389"/><polygon fill="#181818" points="161.4785,344.8389,165.4785,354.8389,169.4785,344.8389,165.4785,348.8389" style="stroke:#181818;stroke-width:1;"/><line style="stroke:#181818;stroke-width:1;" x1="458.9629" x2="458.9629" y1="220.6045" y2="243.7529"/><polygon fill="#181818" points="454.9629,233.7529,458.9629,243.7529,462.9629,233.7529,458.9629,237.7529" style="stroke:#181818;stroke-width:1;"/><line style="stroke:#181818;stroke-width:1;" x1="165.4785" x2="165.4785" y1="166.6357" y2="171.6357"/><line style="stroke:#181818;stroke-width:1;" x1="165.4785" x2="458.9629" y1="171.6357" y2="171.6357"/><line style="stroke:#181818;stroke-width:1;" x1="458.9629" x2="458.9629" y1="171.6357" y2="186.6357"/><polygon fill="#181818" points="454.9629,176.6357,458.9629,186.6357,462.9629,176.6357,458.9629,180.6357" style="stroke:#181818;stroke-width:1;"/><line style="stroke:#181818;stroke-width:1;" x1="458.9629" x2="458.9629" y1="277.7217" y2="285.8701"/><line style="stroke:#181818;stroke-width:1;" x1="458.9629" x2="165.4785" y1="285.8701" y2="285.8701"/><line style="stroke:#181818;stroke-width:1;" x1="165.4785" x2="165.4785" y1="285.8701" y2="300.8701"/><polygon fill="#181818" points="161.4785,290.8701,165.4785,300.8701,169.4785,290.8701,165.4785,294.8701" style="stroke:#181818;stroke-width:1;"/><text fill="#000000" font-family="sans-serif" font-size="18" lengthAdjust="spacing" textLength="135.8701" x="96.5435" y="29.4531">&#1040;&#1076;&#1084;&#1110;&#1085;&#1110;&#1089;&#1090;&#1088;&#1072;&#1090;&#1086;&#1088;</text><text fill="#000000" font-family="sans-serif" font-size="18" lengthAdjust="spacing" textLength="80.332" x="534.4656" y="29.4531">&#1057;&#1080;&#1089;&#1090;&#1077;&#1084;&#1072;</text><!--SRC=[hP8nJiD044NxFSL8j9mWHXH8KD9n04CSIBEEx4MYS67Y0YgCK9GA2I4kO28xB75YhZ1pe_orHOFYL5YoBUyVl_dpTnD-vfBNCkUDpELUff9o8LDk94rKRFp8U6f0_CAMFzcsuenuvNHyklgC5rXyu880gYKdA0r_eRp6UzNfl04_zvHZlQ5PYHOBhb1Qyb8oCFl_wca7MCBltIfNlEOYQUajjU85naabbzaXeTgIcmwqhCS-Q3eq0KNZwnj31wEHZqiTNHuJlyBG4hQiSqnuM01gUGAswXmEsiABE8ZEGtCMtkhXwTrLC37ZKAj03ycHrJvpknmHqYX-yy3TvM7v-_-idlXQ1pkz9lkE1GRvG9W_K1v1RVxidVFQctExRx499zuM]--></g></svg>