<svg xmlns="http://www.w3.org/2000/svg" xmlns:xlink="http://www.w3.org/1999/xlink" contentStyleType="text/css" height="1922px" preserveAspectRatio="none" style="width:1237px;height:1922px;background:#FFFFFF;" version="1.1" viewBox="0 0 1237 1922" width="1237px" zoomAndPan="magnify"><defs/><g><!--entity User--><g id="elem_User"><ellipse cx="970.43" cy="765" fill="#00FFFF" rx="12" ry="12" style="stroke:#181818;stroke-width:0.5;"/><line style="stroke:#181818;stroke-width:0.5;" x1="958.43" x2="982.43" y1="779" y2="779"/><text fill="#000000" font-family="sans-serif" font-size="14" lengthAdjust="spacing" textLength="31.9102" x="954.4749" y="793.9951">User</text></g><!--entity User.id--><g id="elem_User.id"><ellipse cx="970.4284" cy="682" fill="#E0FFFF" rx="12" ry="12" style="stroke:#181818;stroke-width:0.5;"/><line style="stroke:#181818;stroke-width:0.5;" x1="958.4284" x2="982.4284" y1="696" y2="696"/><text fill="#000000" font-family="sans-serif" font-size="14" lengthAdjust="spacing" textLength="49.1367" x="945.86" y="710.9951">User.id</text></g><!--entity User.username--><g id="elem_User.username"><ellipse cx="798.9198" cy="640" fill="#E0FFFF" rx="12" ry="12" style="stroke:#181818;stroke-width:0.5;"/><line style="stroke:#181818;stroke-width:0.5;" x1="786.9198" x2="810.9198" y1="654" y2="654"/><text fill="#000000" font-family="sans-serif" font-size="14" lengthAdjust="spacing" textLength="106.5996" x="745.62" y="668.9951">User.username</text></g><!--entity User.email--><g id="elem_User.email"><ellipse cx="798.9249" cy="723" fill="#E0FFFF" rx="12" ry="12" style="stroke:#181818;stroke-width:0.5;"/><line style="stroke:#181818;stroke-width:0.5;" x1="786.9249" x2="810.9249" y1="737" y2="737"/><text fill="#000000" font-family="sans-serif" font-size="14" lengthAdjust="spacing" textLength="74.9697" x="761.44" y="751.9951">User.email</text></g><!--entity User.password--><g id="elem_User.password"><ellipse cx="798.9261" cy="806" fill="#E0FFFF" rx="12" ry="12" style="stroke:#181818;stroke-width:0.5;"/><line style="stroke:#181818;stroke-width:0.5;" x1="786.9261" x2="810.9261" y1="820" y2="820"/><text fill="#000000" font-family="sans-serif" font-size="14" lengthAdjust="spacing" textLength="103.0723" x="747.39" y="834.9951">User.password</text></g><!--entity User.roleId--><g id="elem_User.roleId"><ellipse cx="798.9201" cy="889" fill="#E0FFFF" rx="12" ry="12" style="stroke:#181818;stroke-width:0.5;"/><line style="stroke:#181818;stroke-width:0.5;" x1="786.9201" x2="810.9201" y1="903" y2="903"/><text fill="#000000" font-family="sans-serif" font-size="14" lengthAdjust="spacing" textLength="76.2002" x="760.82" y="917.9951">User.roleId</text></g><!--entity User.status--><g id="elem_User.status"><ellipse cx="798.9295" cy="972" fill="#E0FFFF" rx="12" ry="12" style="stroke:#181818;stroke-width:0.5;"/><line style="stroke:#181818;stroke-width:0.5;" x1="786.9295" x2="810.9295" y1="986" y2="986"/><text fill="#000000" font-family="sans-serif" font-size="14" lengthAdjust="spacing" textLength="79.3789" x="759.24" y="1000.9951">User.status</text></g><!--entity User.createdAt--><g id="elem_User.createdAt"><ellipse cx="798.9208" cy="403" fill="#E0FFFF" rx="12" ry="12" style="stroke:#181818;stroke-width:0.5;"/><line style="stroke:#181818;stroke-width:0.5;" x1="786.9208" x2="810.9208" y1="417" y2="417"/><text fill="#000000" font-family="sans-serif" font-size="14" lengthAdjust="spacing" textLength="105.0615" x="746.39" y="431.9951">User.createdAt</text></g><!--entity Role--><g id="elem_Role"><ellipse cx="798.92" cy="486" fill="#FFFF00" rx="12" ry="12" style="stroke:#181818;stroke-width:0.5;"/><line style="stroke:#181818;stroke-width:0.5;" x1="786.92" x2="810.92" y1="500" y2="500"/><text fill="#000000" font-family="sans-serif" font-size="14" lengthAdjust="spacing" textLength="30.7959" x="783.5221" y="514.9951">Role</text></g><!--entity Role.id--><g id="elem_Role.id"><ellipse cx="613.8012" cy="486" fill="#FFFFE0" rx="12" ry="12" style="stroke:#181818;stroke-width:0.5;"/><line style="stroke:#181818;stroke-width:0.5;" x1="601.8012" x2="625.8012" y1="500" y2="500"/><text fill="#000000" font-family="sans-serif" font-size="14" lengthAdjust="spacing" textLength="48.0225" x="589.79" y="514.9951">Role.id</text></g><!--entity Role.name--><g id="elem_Role.name"><ellipse cx="613.8046" cy="403" fill="#FFFFE0" rx="12" ry="12" style="stroke:#181818;stroke-width:0.5;"/><line style="stroke:#181818;stroke-width:0.5;" x1="601.8046" x2="625.8046" y1="417" y2="417"/><text fill="#000000" font-family="sans-serif" font-size="14" lengthAdjust="spacing" textLength="74.9492" x="576.33" y="431.9951">Role.name</text></g><!--entity Project--><g id="elem_Project"><ellipse cx="425.7066" cy="1719" fill="#808080" rx="12" ry="12" style="stroke:#181818;stroke-width:0.5;"/><line style="stroke:#181818;stroke-width:0.5;" x1="413.7066" x2="437.7066" y1="1733" y2="1733"/><text fill="#000000" font-family="sans-serif" font-size="14" lengthAdjust="spacing" textLength="48.4531" x="401.48" y="1747.9951">Project</text></g><!--entity Project.id--><g id="elem_Project.id"><ellipse cx="613.7998" cy="1802" fill="#D3D3D3" rx="12" ry="12" style="stroke:#181818;stroke-width:0.5;"/><line style="stroke:#181818;stroke-width:0.5;" x1="601.7998" x2="625.7998" y1="1816" y2="1816"/><text fill="#000000" font-family="sans-serif" font-size="14" lengthAdjust="spacing" textLength="65.6797" x="580.96" y="1830.9951">Project.id</text></g><!--entity Project.name--><g id="elem_Project.name"><ellipse cx="613.8032" cy="1719" fill="#D3D3D3" rx="12" ry="12" style="stroke:#181818;stroke-width:0.5;"/><line style="stroke:#181818;stroke-width:0.5;" x1="601.8032" x2="625.8032" y1="1733" y2="1733"/><text fill="#000000" font-family="sans-serif" font-size="14" lengthAdjust="spacing" textLength="92.6064" x="567.5" y="1747.9951">Project.name</text></g><!--entity Project.description--><g id="elem_Project.description"><ellipse cx="244.0721" cy="1885" fill="#D3D3D3" rx="12" ry="12" style="stroke:#181818;stroke-width:0.5;"/><line style="stroke:#181818;stroke-width:0.5;" x1="232.0721" x2="256.0721" y1="1899" y2="1899"/><text fill="#000000" font-family="sans-serif" font-size="14" lengthAdjust="spacing" textLength="130.7441" x="178.7" y="1913.9951">Project.description</text></g><!--entity Project.ownerId--><g id="elem_Project.ownerId"><ellipse cx="244.0684" cy="1636" fill="#D3D3D3" rx="12" ry="12" style="stroke:#181818;stroke-width:0.5;"/><line style="stroke:#181818;stroke-width:0.5;" x1="232.0684" x2="256.0684" y1="1650" y2="1650"/><text fill="#000000" font-family="sans-serif" font-size="14" lengthAdjust="spacing" textLength="109.1768" x="189.48" y="1664.9951">Project.ownerId</text></g><!--entity Project.teamId--><g id="elem_Project.teamId"><ellipse cx="244.0691" cy="1719" fill="#D3D3D3" rx="12" ry="12" style="stroke:#181818;stroke-width:0.5;"/><line style="stroke:#181818;stroke-width:0.5;" x1="232.0691" x2="256.0691" y1="1733" y2="1733"/><text fill="#000000" font-family="sans-serif" font-size="14" lengthAdjust="spacing" textLength="102.2383" x="192.95" y="1747.9951">Project.teamId</text></g><!--entity Project.createdAt--><g id="elem_Project.createdAt"><ellipse cx="244.0722" cy="1802" fill="#D3D3D3" rx="12" ry="12" style="stroke:#181818;stroke-width:0.5;"/><line style="stroke:#181818;stroke-width:0.5;" x1="232.0722" x2="256.0722" y1="1816" y2="1816"/><text fill="#000000" font-family="sans-serif" font-size="14" lengthAdjust="spacing" textLength="121.6045" x="183.27" y="1830.9951">Project.createdAt</text></g><!--entity Team--><g id="elem_Team"><ellipse cx="613.8009" cy="1636" fill="#ADD8E6" rx="12" ry="12" style="stroke:#181818;stroke-width:0.5;"/><line style="stroke:#181818;stroke-width:0.5;" x1="601.8009" x2="625.8009" y1="1650" y2="1650"/><text fill="#000000" font-family="sans-serif" font-size="14" lengthAdjust="spacing" textLength="39.3818" x="594.11" y="1664.9951">Team</text></g><!--entity Team.id--><g id="elem_Team.id"><ellipse cx="798.9242" cy="1636" fill="#ADD8E6" rx="12" ry="12" style="stroke:#181818;stroke-width:0.5;"/><line style="stroke:#181818;stroke-width:0.5;" x1="786.9242" x2="810.9242" y1="1650" y2="1650"/><text fill="#000000" font-family="sans-serif" font-size="14" lengthAdjust="spacing" textLength="56.6084" x="770.62" y="1664.9951">Team.id</text></g><!--entity Team.createdAt--><g id="elem_Team.createdAt"><ellipse cx="425.7066" cy="1511" fill="#ADD8E6" rx="12" ry="12" style="stroke:#181818;stroke-width:0.5;"/><line style="stroke:#181818;stroke-width:0.5;" x1="413.7066" x2="437.7066" y1="1525" y2="1525"/><text fill="#000000" font-family="sans-serif" font-size="14" lengthAdjust="spacing" textLength="112.5332" x="369.44" y="1539.9951">Team.createdAt</text></g><!--entity Member--><g id="elem_Member"><ellipse cx="798.923" cy="1428" fill="#FF0000" rx="12" ry="12" style="stroke:#181818;stroke-width:0.5;"/><line style="stroke:#181818;stroke-width:0.5;" x1="786.923" x2="810.923" y1="1442" y2="1442"/><text fill="#000000" font-family="sans-serif" font-size="14" lengthAdjust="spacing" textLength="57.5859" x="770.13" y="1456.9951">Member</text></g><!--entity Member.id--><g id="elem_Member.id"><ellipse cx="970.4363" cy="1428" fill="#FFB6C1" rx="12" ry="12" style="stroke:#181818;stroke-width:0.5;"/><line style="stroke:#181818;stroke-width:0.5;" x1="958.4363" x2="982.4363" y1="1442" y2="1442"/><text fill="#000000" font-family="sans-serif" font-size="14" lengthAdjust="spacing" textLength="74.8125" x="933.03" y="1456.9951">Member.id</text></g><!--entity Member.userId--><g id="elem_Member.userId"><ellipse cx="613.8039" cy="1553" fill="#FFB6C1" rx="12" ry="12" style="stroke:#181818;stroke-width:0.5;"/><line style="stroke:#181818;stroke-width:0.5;" x1="601.8039" x2="625.8039" y1="1567" y2="1567"/><text fill="#000000" font-family="sans-serif" font-size="14" lengthAdjust="spacing" textLength="105.5879" x="561.01" y="1581.9951">Member.userId</text></g><!--entity Member.teamId--><g id="elem_Member.teamId"><ellipse cx="613.7955" cy="1304" fill="#FFB6C1" rx="12" ry="12" style="stroke:#181818;stroke-width:0.5;"/><line style="stroke:#181818;stroke-width:0.5;" x1="601.7955" x2="625.7955" y1="1318" y2="1318"/><text fill="#000000" font-family="sans-serif" font-size="14" lengthAdjust="spacing" textLength="111.3711" x="558.11" y="1332.9951">Member.teamId</text></g><!--entity Member.teamRole--><g id="elem_Member.teamRole"><ellipse cx="613.7957" cy="1387" fill="#FFB6C1" rx="12" ry="12" style="stroke:#181818;stroke-width:0.5;"/><line style="stroke:#181818;stroke-width:0.5;" x1="601.7957" x2="625.7957" y1="1401" y2="1401"/><text fill="#000000" font-family="sans-serif" font-size="14" lengthAdjust="spacing" textLength="129.1514" x="549.22" y="1415.9951">Member.teamRole</text></g><!--entity Member.joinedAt--><g id="elem_Member.joinedAt"><ellipse cx="613.8002" cy="1470" fill="#FFB6C1" rx="12" ry="12" style="stroke:#181818;stroke-width:0.5;"/><line style="stroke:#181818;stroke-width:0.5;" x1="601.8002" x2="625.8002" y1="1484" y2="1484"/><text fill="#000000" font-family="sans-serif" font-size="14" lengthAdjust="spacing" textLength="119.8203" x="553.89" y="1498.9951">Member.joinedAt</text></g><!--entity Task--><g id="elem_Task"><ellipse cx="1104.9061" cy="392" fill="#800080" rx="12" ry="12" style="stroke:#181818;stroke-width:0.5;"/><line style="stroke:#181818;stroke-width:0.5;" x1="1092.9061" x2="1116.9061" y1="406" y2="406"/><text fill="#000000" font-family="sans-serif" font-size="14" lengthAdjust="spacing" textLength="32.5322" x="1088.64" y="420.9951">Task</text></g><!--entity Task.id--><g id="elem_Task.id"><ellipse cx="1206.0494" cy="392" fill="#DDA0DD" rx="12" ry="12" style="stroke:#181818;stroke-width:0.5;"/><line style="stroke:#181818;stroke-width:0.5;" x1="1194.0494" x2="1218.0494" y1="406" y2="406"/><text fill="#000000" font-family="sans-serif" font-size="14" lengthAdjust="spacing" textLength="49.7588" x="1181.17" y="420.9951">Task.id</text></g><!--entity Task.title--><g id="elem_Task.title"><ellipse cx="970.4368" cy="350" fill="#DDA0DD" rx="12" ry="12" style="stroke:#181818;stroke-width:0.5;"/><line style="stroke:#181818;stroke-width:0.5;" x1="958.4368" x2="982.4368" y1="364" y2="364"/><text fill="#000000" font-family="sans-serif" font-size="14" lengthAdjust="spacing" textLength="64.3535" x="938.26" y="378.9951">Task.title</text></g><!--entity Task.description--><g id="elem_Task.description"><ellipse cx="970.4316" cy="433" fill="#DDA0DD" rx="12" ry="12" style="stroke:#181818;stroke-width:0.5;"/><line style="stroke:#181818;stroke-width:0.5;" x1="958.4316" x2="982.4316" y1="447" y2="447"/><text fill="#000000" font-family="sans-serif" font-size="14" lengthAdjust="spacing" textLength="114.8232" x="913.02" y="461.9951">Task.description</text></g><!--entity Task.assignedTo--><g id="elem_Task.assignedTo"><ellipse cx="970.428" cy="516" fill="#DDA0DD" rx="12" ry="12" style="stroke:#181818;stroke-width:0.5;"/><line style="stroke:#181818;stroke-width:0.5;" x1="958.428" x2="982.428" y1="530" y2="530"/><text fill="#000000" font-family="sans-serif" font-size="14" lengthAdjust="spacing" textLength="116.416" x="912.22" y="544.9951">Task.assignedTo</text></g><!--entity Task.projectId--><g id="elem_Task.projectId"><ellipse cx="970.4278" cy="599" fill="#DDA0DD" rx="12" ry="12" style="stroke:#181818;stroke-width:0.5;"/><line style="stroke:#181818;stroke-width:0.5;" x1="958.4278" x2="982.4278" y1="613" y2="613"/><text fill="#000000" font-family="sans-serif" font-size="14" lengthAdjust="spacing" textLength="98.8955" x="920.98" y="627.9951">Task.projectId</text></g><!--entity Task.status--><g id="elem_Task.status"><ellipse cx="970.4305" cy="18" fill="#DDA0DD" rx="12" ry="12" style="stroke:#181818;stroke-width:0.5;"/><line style="stroke:#181818;stroke-width:0.5;" x1="958.4305" x2="982.4305" y1="32" y2="32"/><text fill="#000000" font-family="sans-serif" font-size="14" lengthAdjust="spacing" textLength="80.001" x="930.43" y="46.9951">Task.status</text></g><!--entity Task.priority--><g id="elem_Task.priority"><ellipse cx="970.43" cy="101" fill="#DDA0DD" rx="12" ry="12" style="stroke:#181818;stroke-width:0.5;"/><line style="stroke:#181818;stroke-width:0.5;" x1="958.43" x2="982.43" y1="115" y2="115"/><text fill="#000000" font-family="sans-serif" font-size="14" lengthAdjust="spacing" textLength="87.5" x="926.68" y="129.9951">Task.priority</text></g><!--entity Task.dueDate--><g id="elem_Task.dueDate"><ellipse cx="970.4287" cy="184" fill="#DDA0DD" rx="12" ry="12" style="stroke:#181818;stroke-width:0.5;"/><line style="stroke:#181818;stroke-width:0.5;" x1="958.4287" x2="982.4287" y1="198" y2="198"/><text fill="#000000" font-family="sans-serif" font-size="14" lengthAdjust="spacing" textLength="96.8174" x="922.02" y="212.9951">Task.dueDate</text></g><!--entity Task.createdAt--><g id="elem_Task.createdAt"><ellipse cx="970.4318" cy="267" fill="#DDA0DD" rx="12" ry="12" style="stroke:#181818;stroke-width:0.5;"/><line style="stroke:#181818;stroke-width:0.5;" x1="958.4318" x2="982.4318" y1="281" y2="281"/><text fill="#000000" font-family="sans-serif" font-size="14" lengthAdjust="spacing" textLength="105.6836" x="917.59" y="295.9951">Task.createdAt</text></g><!--entity Artefact--><g id="elem_Artefact"><ellipse cx="798.9249" cy="1055" fill="#FFA500" rx="12" ry="12" style="stroke:#181818;stroke-width:0.5;"/><line style="stroke:#181818;stroke-width:0.5;" x1="786.9249" x2="810.9249" y1="1069" y2="1069"/><text fill="#000000" font-family="sans-serif" font-size="14" lengthAdjust="spacing" textLength="56.1299" x="770.86" y="1083.9951">Artefact</text></g><!--entity Artefact.id--><g id="elem_Artefact.id"><ellipse cx="970.4282" cy="1055" fill="#FFA500" rx="12" ry="12" style="stroke:#181818;stroke-width:0.5;"/><line style="stroke:#181818;stroke-width:0.5;" x1="958.4282" x2="982.4282" y1="1069" y2="1069"/><text fill="#000000" font-family="sans-serif" font-size="14" lengthAdjust="spacing" textLength="73.3564" x="933.75" y="1083.9951">Artefact.id</text></g><!--entity Artefact.title--><g id="elem_Artefact.title"><ellipse cx="613.7956" cy="889" fill="#FFA500" rx="12" ry="12" style="stroke:#181818;stroke-width:0.5;"/><line style="stroke:#181818;stroke-width:0.5;" x1="601.7956" x2="625.7956" y1="903" y2="903"/><text fill="#000000" font-family="sans-serif" font-size="14" lengthAdjust="spacing" textLength="87.9512" x="569.82" y="917.9951">Artefact.title</text></g><!--entity Artefact.description--><g id="elem_Artefact.description"><ellipse cx="613.8004" cy="972" fill="#FFA500" rx="12" ry="12" style="stroke:#181818;stroke-width:0.5;"/><line style="stroke:#181818;stroke-width:0.5;" x1="601.8004" x2="625.8004" y1="986" y2="986"/><text fill="#000000" font-family="sans-serif" font-size="14" lengthAdjust="spacing" textLength="138.4209" x="544.59" y="1000.9951">Artefact.description</text></g><!--entity Artefact.filePath--><g id="elem_Artefact.filePath"><ellipse cx="613.8026" cy="1055" fill="#FFA500" rx="12" ry="12" style="stroke:#181818;stroke-width:0.5;"/><line style="stroke:#181818;stroke-width:0.5;" x1="601.8026" x2="625.8026" y1="1069" y2="1069"/><text fill="#000000" font-family="sans-serif" font-size="14" lengthAdjust="spacing" textLength="113.2852" x="557.16" y="1083.9951">Artefact.filePath</text></g><!--entity Artefact.fileType--><g id="elem_Artefact.fileType"><ellipse cx="613.7991" cy="1138" fill="#FFA500" rx="12" ry="12" style="stroke:#181818;stroke-width:0.5;"/><line style="stroke:#181818;stroke-width:0.5;" x1="601.7991" x2="625.7991" y1="1152" y2="1152"/><text fill="#000000" font-family="sans-serif" font-size="14" lengthAdjust="spacing" textLength="116.2383" x="555.68" y="1166.9951">Artefact.fileType</text></g><!--entity Artefact.uploadedBy--><g id="elem_Artefact.uploadedBy"><ellipse cx="613.7952" cy="1221" fill="#FFA500" rx="12" ry="12" style="stroke:#181818;stroke-width:0.5;"/><line style="stroke:#181818;stroke-width:0.5;" x1="601.7952" x2="625.7952" y1="1235" y2="1235"/><text fill="#000000" font-family="sans-serif" font-size="14" lengthAdjust="spacing" textLength="143.6504" x="541.97" y="1249.9951">Artefact.uploadedBy</text></g><!--entity Artefact.projectId--><g id="elem_Artefact.projectId"><ellipse cx="613.7966" cy="723" fill="#FFA500" rx="12" ry="12" style="stroke:#181818;stroke-width:0.5;"/><line style="stroke:#181818;stroke-width:0.5;" x1="601.7966" x2="625.7966" y1="737" y2="737"/><text fill="#000000" font-family="sans-serif" font-size="14" lengthAdjust="spacing" textLength="122.4932" x="552.55" y="751.9951">Artefact.projectId</text></g><!--entity Artefact.createdAt--><g id="elem_Artefact.createdAt"><ellipse cx="613.8006" cy="806" fill="#FFA500" rx="12" ry="12" style="stroke:#181818;stroke-width:0.5;"/><line style="stroke:#181818;stroke-width:0.5;" x1="601.8006" x2="625.8006" y1="820" y2="820"/><text fill="#000000" font-family="sans-serif" font-size="14" lengthAdjust="spacing" textLength="129.2813" x="549.16" y="834.9951">Artefact.createdAt</text></g><!--entity Grant--><g id="elem_Grant"><ellipse cx="244.0729" cy="1553" fill="#90EE90" rx="12" ry="12" style="stroke:#181818;stroke-width:0.5;"/><line style="stroke:#181818;stroke-width:0.5;" x1="232.0729" x2="256.0729" y1="1567" y2="1567"/><text fill="#000000" font-family="sans-serif" font-size="14" lengthAdjust="spacing" textLength="39.5459" x="224.3" y="1581.9951">Grant</text></g><!--entity Grant.id--><g id="elem_Grant.id"><ellipse cx="425.7062" cy="1594" fill="#90EE90" rx="12" ry="12" style="stroke:#181818;stroke-width:0.5;"/><line style="stroke:#181818;stroke-width:0.5;" x1="413.7062" x2="437.7062" y1="1608" y2="1608"/><text fill="#000000" font-family="sans-serif" font-size="14" lengthAdjust="spacing" textLength="56.7725" x="397.32" y="1622.9951">Grant.id</text></g><!--entity Grant.projectId--><g id="elem_Grant.projectId"><ellipse cx="62.3446" cy="1470" fill="#90EE90" rx="12" ry="12" style="stroke:#181818;stroke-width:0.5;"/><line style="stroke:#181818;stroke-width:0.5;" x1="50.3446" x2="74.3446" y1="1484" y2="1484"/><text fill="#000000" font-family="sans-serif" font-size="14" lengthAdjust="spacing" textLength="105.9092" x="9.39" y="1498.9951">Grant.projectId</text></g><!--entity Grant.userId--><g id="elem_Grant.userId"><ellipse cx="62.3439" cy="1553" fill="#90EE90" rx="12" ry="12" style="stroke:#181818;stroke-width:0.5;"/><line style="stroke:#181818;stroke-width:0.5;" x1="50.3439" x2="74.3439" y1="1567" y2="1567"/><text fill="#000000" font-family="sans-serif" font-size="14" lengthAdjust="spacing" textLength="87.5479" x="18.57" y="1581.9951">Grant.userId</text></g><!--entity Grant.createdAt--><g id="elem_Grant.createdAt"><ellipse cx="62.3486" cy="1636" fill="#90EE90" rx="12" ry="12" style="stroke:#181818;stroke-width:0.5;"/><line style="stroke:#181818;stroke-width:0.5;" x1="50.3486" x2="74.3486" y1="1650" y2="1650"/><text fill="#000000" font-family="sans-serif" font-size="14" lengthAdjust="spacing" textLength="112.6973" x="6" y="1664.9951">Grant.createdAt</text></g><!--link User.id to User--><g id="link_User.id_User"><path d="M970.43,714.77 C970.43,726.02 970.43,725.26 970.43,736.51 " fill="none" id="User.id-to-User" style="stroke:#181818;stroke-width:1;"/><polygon fill="#181818" points="970.43,748.51,974.43,742.51,970.43,736.51,966.43,742.51,970.43,748.51" style="stroke:#181818;stroke-width:1;"/></g><!--link User.username to User--><g id="link_User.username_User"><path d="M832.23,672.59 C854.6,689.44 885.12,712.3 912.22,732.15 C926.42,742.55 932.9675,747.27 944.5375,755.49 " fill="none" id="User.username-to-User" style="stroke:#181818;stroke-width:1;"/><polygon fill="#181818" points="954.32,762.44,951.7454,755.7042,944.5375,755.49,947.1121,762.2258,954.32,762.44" style="stroke:#181818;stroke-width:1;"/></g><!--link User.email to User--><g id="link_User.email_User"><path d="M836.71,740.26 C873.32,749.34 916.0921,759.9346 942.4121,766.4546 " fill="none" id="User.email-to-User" style="stroke:#181818;stroke-width:1;"/><polygon fill="#181818" points="954.06,769.34,949.1978,764.0146,942.4121,766.4546,947.2742,771.7799,954.06,769.34" style="stroke:#181818;stroke-width:1;"/></g><!--link User.password to User--><g id="link_User.password_User"><path d="M850.78,801.85 C886.08,793.31 919.1161,785.3203 942.2761,779.7203 " fill="none" id="User.password-to-User" style="stroke:#181818;stroke-width:1;"/><polygon fill="#181818" points="953.94,776.9,947.168,774.4222,942.2761,779.7203,949.0482,782.1981,953.94,776.9" style="stroke:#181818;stroke-width:1;"/></g><!--link User.roleId to User--><g id="link_User.roleId_User"><path d="M833.41,872.65 C870.08,845.83 917.5547,811.0949 944.5947,791.3149 " fill="none" id="User.roleId-to-User" style="stroke:#181818;stroke-width:1;"/><polygon fill="#181818" points="954.28,784.23,947.0757,784.544,944.5947,791.3149,951.799,791.0009,954.28,784.23" style="stroke:#181818;stroke-width:1;"/></g><!--link User.status to User--><g id="link_User.status_User"><path d="M834.09,955.72 C840.41,950.56 846.74,944.92 852.22,939.15 C895.38,893.78 928.8853,841.8214 949.1453,807.9114 " fill="none" id="User.status-to-User" style="stroke:#181818;stroke-width:1;"/><polygon fill="#181818" points="955.3,797.61,948.7888,800.7091,949.1453,807.9114,955.6564,804.8123,955.3,797.61" style="stroke:#181818;stroke-width:1;"/></g><!--link User.createdAt to User--><g id="link_User.createdAt_User"><path d="M837.98,435.65 C843.41,440.55 848.43,446.09 852.22,452.15 C919.67,560.08 842.47,625.7 912.22,732.15 C922.47,747.79 930.2357,753.8779 943.4157,760.6779 " fill="none" id="User.createdAt-to-User" style="stroke:#181818;stroke-width:1;"/><polygon fill="#181818" points="954.08,766.18,950.5819,759.8742,943.4157,760.6779,946.9138,766.9837,954.08,766.18" style="stroke:#181818;stroke-width:1;"/></g><!--link Role.id to Role--><g id="link_Role.id_Role"><path d="M637.99,494.15 C676.1,494.15 738.93,494.15 770.89,494.15 " fill="none" id="Role.id-to-Role" style="stroke:#181818;stroke-width:1;"/><polygon fill="#181818" points="782.89,494.15,776.89,490.15,770.89,494.15,776.89,498.15,782.89,494.15" style="stroke:#181818;stroke-width:1;"/></g><!--link Role.name to Role--><g id="link_Role.name_Role"><path d="M651.42,427.75 C691.5,445.91 742.9404,469.2259 771.6204,482.2259 " fill="none" id="Role.name-to-Role" style="stroke:#181818;stroke-width:1;"/><polygon fill="#181818" points="782.55,487.18,778.7366,481.0597,771.6204,482.2259,775.4338,488.3461,782.55,487.18" style="stroke:#181818;stroke-width:1;"/></g><!--reverse link Project to Project.id--><g id="link_Project_Project.id"><path d="M461.2382,1742.5506 C494.2882,1757.3006 543.57,1779.28 580.7,1795.83 " fill="none" id="Project-backto-Project.id" style="stroke:#181818;stroke-width:1;"/><polygon fill="#181818" points="450.28,1737.66,454.1289,1743.758,461.2382,1742.5506,457.3893,1736.4526,450.28,1737.66" style="stroke:#181818;stroke-width:1;"/></g><!--reverse link Project to Project.name--><g id="link_Project_Project.name"><path d="M462.28,1727.15 C491.52,1727.15 530.03,1727.15 567,1727.15 " fill="none" id="Project-backto-Project.name" style="stroke:#181818;stroke-width:1;"/><polygon fill="#181818" points="450.28,1727.15,456.28,1731.15,462.28,1727.15,456.28,1723.15,450.28,1727.15" style="stroke:#181818;stroke-width:1;"/></g><!--link Project.description to Project--><g id="link_Project.description_Project"><path d="M287.05,1868.65 C294.75,1863.53 302.53,1857.93 309.44,1852.15 C346.8,1820.9 376.3085,1787.3117 397.9485,1760.7617 " fill="none" id="Project.description-to-Project" style="stroke:#181818;stroke-width:1;"/><polygon fill="#181818" points="405.53,1751.46,398.6387,1753.5837,397.9485,1760.7617,404.8398,1758.638,405.53,1751.46" style="stroke:#181818;stroke-width:1;"/></g><!--link Project.ownerId to Project--><g id="link_Project.ownerId_Project"><path d="M298,1668.61 C332.15,1684.39 364.0266,1699.1168 390.1066,1711.1668 " fill="none" id="Project.ownerId-to-Project" style="stroke:#181818;stroke-width:1;"/><polygon fill="#181818" points="401,1716.2,397.231,1710.0523,390.1066,1711.1668,393.8755,1717.3145,401,1716.2" style="stroke:#181818;stroke-width:1;"/></g><!--link Project.teamId to Project--><g id="link_Project.teamId_Project"><path d="M295.59,1727.15 C330.25,1727.15 362.63,1727.15 389.31,1727.15 " fill="none" id="Project.teamId-to-Project" style="stroke:#181818;stroke-width:1;"/><polygon fill="#181818" points="401.31,1727.15,395.31,1723.15,389.31,1727.15,395.31,1731.15,401.31,1727.15" style="stroke:#181818;stroke-width:1;"/></g><!--link Project.createdAt to Project--><g id="link_Project.createdAt_Project"><path d="M298,1785.7 C332.15,1769.92 364.0282,1755.1966 390.1082,1743.1366 " fill="none" id="Project.createdAt-to-Project" style="stroke:#181818;stroke-width:1;"/><polygon fill="#181818" points="401,1738.1,393.8752,1736.9877,390.1082,1743.1366,397.233,1744.2489,401,1738.1" style="stroke:#181818;stroke-width:1;"/></g><!--reverse link Team to Team.id--><g id="link_Team_Team.id"><path d="M645.71,1644.15 C678.15,1644.15 732.55,1644.15 770.22,1644.15 " fill="none" id="Team-backto-Team.id" style="stroke:#181818;stroke-width:1;"/><polygon fill="#181818" points="633.71,1644.15,639.71,1648.15,645.71,1644.15,639.71,1640.15,633.71,1644.15" style="stroke:#181818;stroke-width:1;"/></g><!--link Team.createdAt to Team--><g id="link_Team.createdAt_Team"><path d="M459.97,1543.66 C490.99,1566.48 533.7,1597.76 541.97,1603.15 C559.12,1614.32 568.8916,1620.0777 583.3416,1628.0777 " fill="none" id="Team.createdAt-to-Team" style="stroke:#181818;stroke-width:1;"/><polygon fill="#181818" points="593.84,1633.89,590.5282,1627.4844,583.3416,1628.0777,586.6533,1634.4833,593.84,1633.89" style="stroke:#181818;stroke-width:1;"/></g><!--reverse link Member to Member.id--><g id="link_Member_Member.id"><path d="M839.92,1436.15 C868.6,1436.15 901.33,1436.15 932.81,1436.15 " fill="none" id="Member-backto-Member.id" style="stroke:#181818;stroke-width:1;"/><polygon fill="#181818" points="827.92,1436.15,833.92,1440.15,839.92,1436.15,833.92,1432.15,827.92,1436.15" style="stroke:#181818;stroke-width:1;"/></g><!--link Member.userId to Member--><g id="link_Member.userId_Member"><path d="M659.11,1536.57 C668.01,1531.34 677.21,1525.71 685.62,1520.15 C715.29,1500.57 738.2066,1483.4041 760.5266,1465.9041 " fill="none" id="Member.userId-to-Member" style="stroke:#181818;stroke-width:1;"/><polygon fill="#181818" points="769.97,1458.5,762.7802,1459.0543,760.5266,1465.9041,767.7163,1465.3499,769.97,1458.5" style="stroke:#181818;stroke-width:1;"/></g><!--link Member.teamId to Member--><g id="link_Member.teamId_Member"><path d="M659.09,1336.77 C667.99,1342 677.19,1347.62 685.62,1353.15 C715.22,1372.57 738.0845,1389.4928 760.4345,1406.7628 " fill="none" id="Member.teamId-to-Member" style="stroke:#181818;stroke-width:1;"/><polygon fill="#181818" points="769.93,1414.1,767.628,1407.2662,760.4345,1406.7628,762.7365,1413.5965,769.93,1414.1" style="stroke:#181818;stroke-width:1;"/></g><!--link Member.teamRole to Member--><g id="link_Member.teamRole_Member"><path d="M678.85,1409.49 C710,1416.47 734.1202,1421.8668 758.2702,1427.2768 " fill="none" id="Member.teamRole-to-Member" style="stroke:#181818;stroke-width:1;"/><polygon fill="#181818" points="769.98,1429.9,764.9995,1424.6851,758.2702,1427.2768,763.2507,1432.4917,769.98,1429.9" style="stroke:#181818;stroke-width:1;"/></g><!--link Member.joinedAt to Member--><g id="link_Member.joinedAt_Member"><path d="M674,1464.57 C706.19,1457.19 732.7937,1451.0925 758.2137,1445.2625 " fill="none" id="Member.joinedAt-to-Member" style="stroke:#181818;stroke-width:1;"/><polygon fill="#181818" points="769.91,1442.58,763.1677,1440.0225,758.2137,1445.2625,764.956,1447.82,769.91,1442.58" style="stroke:#181818;stroke-width:1;"/></g><!--reverse link Task to Task.id--><g id="link_Task_Task.id"><path d="M1133.4,400.15 C1149.3,400.15 1162.27,400.15 1180.8,400.15 " fill="none" id="Task-backto-Task.id" style="stroke:#181818;stroke-width:1;"/><polygon fill="#181818" points="1121.4,400.15,1127.4,404.15,1133.4,400.15,1127.4,396.15,1121.4,400.15" style="stroke:#181818;stroke-width:1;"/></g><!--link Task.title to Task--><g id="link_Task.title_Task"><path d="M1002.83,368.1 C1029.76,376.64 1056.0012,384.9631 1076.9112,391.5931 " fill="none" id="Task.title-to-Task" style="stroke:#181818;stroke-width:1;"/><polygon fill="#181818" points="1088.35,395.22,1083.8396,389.5936,1076.9112,391.5931,1081.4216,397.2195,1088.35,395.22" style="stroke:#181818;stroke-width:1;"/></g><!--link Task.description to Task--><g id="link_Task.description_Task"><path d="M1028,423.64 C1049.94,416.85 1061.867,413.1695 1076.787,408.5495 " fill="none" id="Task.description-to-Task" style="stroke:#181818;stroke-width:1;"/><polygon fill="#181818" points="1088.25,405,1081.3353,402.9538,1076.787,408.5495,1083.7017,410.5958,1088.25,405" style="stroke:#181818;stroke-width:1;"/></g><!--link Task.assignedTo to Task--><g id="link_Task.assignedTo_Task"><path d="M1008.04,499.69 C1015.08,494.49 1022.26,488.84 1028.64,483.15 C1051,463.22 1066.0448,446.4711 1080.5748,428.9311 " fill="none" id="Task.assignedTo-to-Task" style="stroke:#181818;stroke-width:1;"/><polygon fill="#181818" points="1088.23,419.69,1081.322,421.7588,1080.5748,428.9311,1087.4827,426.8623,1088.23,419.69" style="stroke:#181818;stroke-width:1;"/></g><!--link Task.projectId to Task--><g id="link_Task.projectId_Task"><path d="M1011.62,582.52 C1017.81,577.61 1023.76,572.1 1028.64,566.15 C1064.48,522.49 1083.4876,470.5057 1093.7976,436.0757 " fill="none" id="Task.projectId-to-Task" style="stroke:#181818;stroke-width:1;"/><polygon fill="#181818" points="1097.24,424.58,1091.6869,429.1804,1093.7976,436.0757,1099.3507,431.4753,1097.24,424.58" style="stroke:#181818;stroke-width:1;"/></g><!--link Task.status to Task--><g id="link_Task.status_Task"><path d="M1010.66,48.34 C1017.49,53.73 1023.91,60.02 1028.64,67.15 C1094.98,167.18 1103.3264,305.3207 1103.9764,363.7007 " fill="none" id="Task.status-to-Task" style="stroke:#181818;stroke-width:1;"/><polygon fill="#181818" points="1104.11,375.7,1108.043,369.6558,1103.9764,363.7007,1100.0434,369.7449,1104.11,375.7" style="stroke:#181818;stroke-width:1;"/></g><!--link Task.priority to Task--><g id="link_Task.priority_Task"><path d="M1012.9,133.72 C1018.79,138.59 1024.31,144.09 1028.64,150.15 C1079.78,221.68 1095.3435,316.4402 1100.5035,363.9202 " fill="none" id="Task.priority-to-Task" style="stroke:#181818;stroke-width:1;"/><polygon fill="#181818" points="1101.8,375.85,1105.1283,369.453,1100.5035,363.9202,1097.1752,370.3173,1101.8,375.85" style="stroke:#181818;stroke-width:1;"/></g><!--link Task.dueDate to Task--><g id="link_Task.dueDate_Task"><path d="M1011.64,216.77 C1017.82,221.69 1023.76,227.2 1028.64,233.15 C1064.61,277.07 1083.5999,329.4247 1093.8699,364.0747 " fill="none" id="Task.dueDate-to-Task" style="stroke:#181818;stroke-width:1;"/><polygon fill="#181818" points="1097.28,375.58,1099.4101,368.6907,1093.8699,364.0747,1091.7399,370.9641,1097.28,375.58" style="stroke:#181818;stroke-width:1;"/></g><!--link Task.createdAt to Task--><g id="link_Task.createdAt_Task"><path d="M1008.06,299.59 C1015.11,304.79 1022.27,310.44 1028.64,316.15 C1051.09,336.28 1066.1834,353.2925 1080.6834,371.0625 " fill="none" id="Task.createdAt-to-Task" style="stroke:#181818;stroke-width:1;"/><polygon fill="#181818" points="1088.27,380.36,1087.5759,373.1824,1080.6834,371.0625,1081.3775,378.2401,1088.27,380.36" style="stroke:#181818;stroke-width:1;"/></g><!--reverse link Artefact to Artefact.id--><g id="link_Artefact_Artefact.id"><path d="M839.16,1063.15 C867.98,1063.15 901.61,1063.15 933.4,1063.15 " fill="none" id="Artefact-backto-Artefact.id" style="stroke:#181818;stroke-width:1;"/><polygon fill="#181818" points="827.16,1063.15,833.16,1067.15,839.16,1063.15,833.16,1059.15,827.16,1063.15" style="stroke:#181818;stroke-width:1;"/></g><!--link Artefact.title to Artefact--><g id="link_Artefact.title_Artefact"><path d="M658.01,918.24 C667.65,923.98 677.42,930.7 685.62,938.15 C719.58,969.01 713.92,988.99 745.62,1022.15 C753.12,1029.99 752.6431,1030.2905 761.0931,1036.7805 " fill="none" id="Artefact.title-to-Artefact" style="stroke:#181818;stroke-width:1;"/><polygon fill="#181818" points="770.61,1044.09,768.288,1037.263,761.0931,1036.7805,763.4151,1043.6076,770.61,1044.09" style="stroke:#181818;stroke-width:1;"/></g><!--link Artefact.description to Artefact--><g id="link_Artefact.description_Artefact"><path d="M668.75,1004.61 C702.2,1019.76 732.8107,1033.6351 759.6107,1045.7851 " fill="none" id="Artefact.description-to-Artefact" style="stroke:#181818;stroke-width:1;"/><polygon fill="#181818" points="770.54,1050.74,766.727,1044.6195,759.6107,1045.7851,763.4237,1051.9057,770.54,1050.74" style="stroke:#181818;stroke-width:1;"/></g><!--link Artefact.filePath to Artefact--><g id="link_Artefact.filePath_Artefact"><path d="M670.74,1063.15 C703.77,1063.15 732.12,1063.15 758.39,1063.15 " fill="none" id="Artefact.filePath-to-Artefact" style="stroke:#181818;stroke-width:1;"/><polygon fill="#181818" points="770.39,1063.15,764.39,1059.15,758.39,1063.15,764.39,1067.15,770.39,1063.15" style="stroke:#181818;stroke-width:1;"/></g><!--link Artefact.fileType to Artefact--><g id="link_Artefact.fileType_Artefact"><path d="M668.75,1121.7 C702.2,1106.54 732.8107,1092.6649 759.6107,1080.5149 " fill="none" id="Artefact.fileType-to-Artefact" style="stroke:#181818;stroke-width:1;"/><polygon fill="#181818" points="770.54,1075.56,763.4237,1074.3943,759.6107,1080.5149,766.727,1081.6805,770.54,1075.56" style="stroke:#181818;stroke-width:1;"/></g><!--link Artefact.uploadedBy to Artefact--><g id="link_Artefact.uploadedBy_Artefact"><path d="M661.9,1204.69 C670.11,1199.65 678.34,1194.06 685.62,1188.15 C723.23,1157.63 751.9441,1123.6266 772.6541,1096.8166 " fill="none" id="Artefact.uploadedBy-to-Artefact" style="stroke:#181818;stroke-width:1;"/><polygon fill="#181818" points="779.99,1087.32,773.1565,1089.623,772.6541,1096.8166,779.4876,1094.5136,779.99,1087.32" style="stroke:#181818;stroke-width:1;"/></g><!--link Artefact.projectId to Artefact--><g id="link_Artefact.projectId_Artefact"><path d="M668.58,755.7 C675.02,760.42 680.95,765.89 685.62,772.15 C753.94,863.75 683.89,926 745.62,1022.15 C751.92,1031.96 751.6742,1033.3671 760.8342,1040.0071 " fill="none" id="Artefact.projectId-to-Artefact" style="stroke:#181818;stroke-width:1;"/><polygon fill="#181818" points="770.55,1047.05,768.0397,1040.2899,760.8342,1040.0071,763.3444,1046.7672,770.55,1047.05" style="stroke:#181818;stroke-width:1;"/></g><!--link Artefact.createdAt to Artefact--><g id="link_Artefact.createdAt_Artefact"><path d="M667.25,838.69 C674.05,843.45 680.44,848.93 685.62,855.15 C736.16,915.7 699.45,958.21 745.62,1022.15 C752.31,1031.41 752.001,1032.5058 760.941,1039.1158 " fill="none" id="Artefact.createdAt-to-Artefact" style="stroke:#181818;stroke-width:1;"/><polygon fill="#181818" points="770.59,1046.25,768.1436,1039.4666,760.941,1039.1158,763.3874,1045.8992,770.59,1046.25" style="stroke:#181818;stroke-width:1;"/></g><!--reverse link Grant to Grant.id--><g id="link_Grant_Grant.id"><path d="M275.9893,1568.2096 C307.8493,1575.4796 360.03,1587.39 396.84,1595.79 " fill="none" id="Grant-backto-Grant.id" style="stroke:#181818;stroke-width:1;"/><polygon fill="#181818" points="264.29,1565.54,269.2498,1570.7746,275.9893,1568.2096,271.0295,1562.975,264.29,1565.54" style="stroke:#181818;stroke-width:1;"/></g><!--link Grant.projectId to Grant--><g id="link_Grant.projectId_Grant"><path d="M115.33,1502.16 C151.82,1519.01 187.617,1535.5359 213.237,1547.3759 " fill="none" id="Grant.projectId-to-Grant" style="stroke:#181818;stroke-width:1;"/><polygon fill="#181818" points="224.13,1552.41,220.3615,1546.2619,213.237,1547.3759,217.0055,1553.524,224.13,1552.41" style="stroke:#181818;stroke-width:1;"/></g><!--link Grant.userId to Grant--><g id="link_Grant.userId_Grant"><path d="M106.4,1561.15 C143.78,1561.15 184.16,1561.15 211.97,1561.15 " fill="none" id="Grant.userId-to-Grant" style="stroke:#181818;stroke-width:1;"/><polygon fill="#181818" points="223.97,1561.15,217.97,1557.15,211.97,1561.15,217.97,1565.15,223.97,1561.15" style="stroke:#181818;stroke-width:1;"/></g><!--link Grant.createdAt to Grant--><g id="link_Grant.createdAt_Grant"><path d="M116.3,1619.7 C152.54,1602.96 187.5759,1586.7817 213.0159,1575.0317 " fill="none" id="Grant.createdAt-to-Grant" style="stroke:#181818;stroke-width:1;"/><polygon fill="#181818" points="223.91,1570,216.7857,1568.8845,213.0159,1575.0317,220.1402,1576.1472,223.91,1570" style="stroke:#181818;stroke-width:1;"/></g><!--link Role to User--><g id="link_Role_User"><path d="M815.2,505.59 C826.84,515.03 842.48,529.41 852.22,545.15 C898.16,619.37 860.82,661.61 912.22,732.15 C923.09,747.06 941.04,758.65 953.94,765.64 " fill="none" id="Role-User" style="stroke:#181818;stroke-width:1;"/><text fill="#000000" font-family="sans-serif" font-size="13" lengthAdjust="spacing" textLength="18.9033" x="823.0803" y="523.4781">0.*</text><text fill="#000000" font-family="sans-serif" font-size="13" lengthAdjust="spacing" textLength="20.6743" x="925.6038" y="777.7254">1.1</text></g><!--link User to Task--><g id="link_User_Task"><path d="M986.74,779.52 C999.89,776.33 1018.3,764.73 1028.64,749.15 C1097.76,645 1104.05,486.33 1104.14,424.73 " fill="none" id="User-Task" style="stroke:#181818;stroke-width:1;"/><text fill="#000000" font-family="sans-serif" font-size="13" lengthAdjust="spacing" textLength="20.6743" x="994.5676" y="795.6812">1.1</text><text fill="#000000" font-family="sans-serif" font-size="13" lengthAdjust="spacing" textLength="18.9033" x="1106.1485" y="444.2311">0.*</text></g><!--link Task to User--><g id="link_Task_User"><path d="M1103.89,424.78 C1102.24,481.58 1091.06,620.1 1028.64,714.15 C1018.3,729.73 999.89,741.33 986.74,751.99 " fill="none" id="Task-User" style="stroke:#181818;stroke-width:1;"/><text fill="#000000" font-family="sans-serif" font-size="13" lengthAdjust="spacing" textLength="20.6743" x="1081.4205" y="444.2927">1.1</text><text fill="#000000" font-family="sans-serif" font-size="13" lengthAdjust="spacing" textLength="18.9033" x="994.3075" y="760.0642">0.*</text></g><!--link Project to Team--><g id="link_Project_Team"><path d="M450.28,1716.64 C487.54,1700.02 559.34,1668 593.64,1652.7 " fill="none" id="Project-Team" style="stroke:#181818;stroke-width:1;"/><text fill="#000000" font-family="sans-serif" font-size="13" lengthAdjust="spacing" textLength="20.6743" x="457.9167" y="1728.0633">1.1</text><text fill="#000000" font-family="sans-serif" font-size="13" lengthAdjust="spacing" textLength="18.9033" x="567.2067" y="1669.5015">0.*</text></g><!--link Team to Member--><g id="link_Team_Member"><path d="M633.78,1636.08 C648.99,1628.97 670.26,1617.51 685.62,1603.15 C731.31,1560.44 768.01,1495.81 785.96,1460.8 " fill="none" id="Team-Member" style="stroke:#181818;stroke-width:1;"/><text fill="#000000" font-family="sans-serif" font-size="13" lengthAdjust="spacing" textLength="18.9033" x="641.3216" y="1648.0182">1.*</text><text fill="#000000" font-family="sans-serif" font-size="13" lengthAdjust="spacing" textLength="20.6743" x="760.7278" y="1480.3173">0.1</text></g><!--link Member to User--><g id="link_Member_User"><path d="M806.16,1411.77 C832.74,1307.81 936.45,902.15 963.14,797.76 " fill="none" id="Member-User" style="stroke:#181818;stroke-width:1;"/><text fill="#000000" font-family="sans-serif" font-size="13" lengthAdjust="spacing" textLength="18.9033" x="787.8404" y="1401.0827">1.*</text><text fill="#000000" font-family="sans-serif" font-size="13" lengthAdjust="spacing" textLength="18.9033" x="963.6399" y="817.268">0.*</text></g><!--link Artefact to User--><g id="link_Artefact_User"><path d="M827.32,1045.48 C836.05,1038.91 845.25,1030.9 852.22,1022.15 C909.85,949.85 947.32,844.59 962.19,797.5 " fill="none" id="Artefact-User" style="stroke:#181818;stroke-width:1;"/><text fill="#000000" font-family="sans-serif" font-size="13" lengthAdjust="spacing" textLength="20.6743" x="834.9454" y="1055.5581">1.1</text><text fill="#000000" font-family="sans-serif" font-size="13" lengthAdjust="spacing" textLength="18.9033" x="940.0978" y="817.3469">0.*</text></g><!--link Grant to User--><g id="link_Grant_User"><path d="M246.26,1536.66 C253.03,1424.05 295.68,950.38 541.97,689.15 C639.89,585.3 731.53,529.95 852.22,606.15 C904.67,639.27 872.42,684.58 912.22,732.15 C923.99,746.21 941.61,757.87 954.18,765.12 " fill="none" id="Grant-User" style="stroke:#181818;stroke-width:1;"/><text fill="#000000" font-family="sans-serif" font-size="13" lengthAdjust="spacing" textLength="20.6743" x="224.4378" y="1525.9459">1.1</text><text fill="#000000" font-family="sans-serif" font-size="13" lengthAdjust="spacing" textLength="18.9033" x="927.6556" y="756.8718">0.*</text></g><!--link Grant to Project--><g id="link_Grant_Project"><path d="M264.26,1571.61 C277.55,1579.26 295.31,1590.34 309.44,1602.15 C346.8,1633.4 383.89,1676.29 405.53,1702.84 " fill="none" id="Grant-Project" style="stroke:#181818;stroke-width:1;"/><text fill="#000000" font-family="sans-serif" font-size="13" lengthAdjust="spacing" textLength="20.6743" x="271.7003" y="1588.0712">1.1</text><text fill="#000000" font-family="sans-serif" font-size="13" lengthAdjust="spacing" textLength="18.9033" x="380.1692" y="1691.773">0.*</text></g><!--SRC=[ZPRFZjiW4CRlF0LARf4STHzXjvMg75QAglJG8uqdMNPjOs6io6zVm63FO8XwYSBt6tlcO_ZZ1cw66yMrl7yONaiDLoDLnw0pqapyzm2Qxw-J8CfHrdpVk2U-fsIqFvreeSIX5R8fmLuCmqFfuikrQk1Kf8CHPXnAzAf16AXV3GvWqKsbguEFOzH5HUIvUAejDLCvb4h5K24Lry8MFHR-oxw4xoTe6lN0sZh_VxOCpNwWB3xZ4hZ_R0rSfFYEirQVTWtm_LsBAH7Nl3yp42NEuHg6gvQzMrrFejIZ0trwbiQ0Q9y6f9tsCGnPg4PhEemPgJvBSE5LXiUISomKcqEqxv56CnVxOAZ_hHa1osiNDYIrxWDOVCYxSmEM15THZozxX_Qls_WQQYgjkS-o-qgOspMd9vnqhi3d9L-A-5IoG_Py15ihymRd8QCrLHk0EhC5leejMj8ZjCo_6BxulXzrtm3M_8prpTWIqVvpFZSwsIGRQeyQURSLN5G6zlCAEkNInQCnyv1KseqofOpmmwwF346hp3CMVSuBp0uOCbaHBTrCAq7cA5YDKHsTfZWu64hI1ZDKJNQ0qwFHLstW9jmvgBJexf3glgq559fReAJ5XPYRRE0ipCVJWClKbxECVQD43VNRL0n12wOGWHeT8XZsxziT1PROhx8iRVysOh5Unjvu7YFR-G2wcBQSBec5nwcnTqcttYi07G7uVjmmDDsb47A0PlZsPdCXRCdj6-97BCrP9GITYrYczcVYFrFuxkNuidCP-ExRyR2RFnemYS1le_WLaR9u-JXmYC16a7EMGFl7VnFvypLvdGVBJit1kL__JKBP_m00]--></g></svg>