<svg xmlns="http://www.w3.org/2000/svg" xmlns:xlink="http://www.w3.org/1999/xlink" contentStyleType="text/css" height="442px" preserveAspectRatio="none" style="width:734px;height:442px;background:#FFFFFF;" version="1.1" viewBox="0 0 734 442" width="734px" zoomAndPan="magnify"><defs/><g><rect fill="none" height="20.9531" style="stroke:none;stroke-width:1;" width="701.2544" x="15" y="12.7451"/><ellipse cx="151.9375" cy="48.6982" fill="#222222" rx="10" ry="10" style="stroke:#222222;stroke-width:1;"/><rect fill="#F1F1F1" height="33.9688" rx="12.5" ry="12.5" style="stroke:#181818;stroke-width:0.5;" width="236.1992" x="33.8379" y="78.6982"/><text fill="#000000" font-family="sans-serif" font-size="12" lengthAdjust="spacing" textLength="212.3848" x="47.6523" y="99.8369">&#1042;&#1080;&#1073;&#1080;&#1088;&#1072;&#1108; &#1079;&#1072;&#1076;&#1072;&#1095;&#1091; &#1076;&#1083;&#1103; &#1088;&#1077;&#1076;&#1072;&#1075;&#1091;&#1074;&#1072;&#1085;&#1085;&#1103;</text><rect fill="#F1F1F1" height="33.9688" rx="12.5" ry="12.5" style="stroke:#181818;stroke-width:0.5;" width="176.9961" x="63.4395" y="132.667"/><text fill="#000000" font-family="sans-serif" font-size="12" lengthAdjust="spacing" textLength="153.1816" x="77.2539" y="153.8057">&#1042;&#1085;&#1086;&#1089;&#1080;&#1090;&#1100; &#1079;&#1084;&#1110;&#1085;&#1080; &#1076;&#1086; &#1079;&#1072;&#1076;&#1072;&#1095;&#1110;</text><rect fill="#F1F1F1" height="33.9688" rx="12.5" ry="12.5" style="stroke:#181818;stroke-width:0.5;" width="261.875" x="21" y="186.6357"/><text fill="#000000" font-family="sans-serif" font-size="12" lengthAdjust="spacing" textLength="238.0605" x="34.8145" y="207.7744">&#1053;&#1072;&#1090;&#1080;&#1089;&#1082;&#1072;&#1108; &#1085;&#1072; &#1082;&#1085;&#1086;&#1087;&#1082;&#1091; "&#1047;&#1073;&#1077;&#1088;&#1077;&#1075;&#1090;&#1080; &#1079;&#1084;&#1110;&#1085;&#1080;"</text><rect fill="#F1F1F1" height="33.9688" rx="12.5" ry="12.5" style="stroke:#181818;stroke-width:0.5;" width="176.9199" x="63.4775" y="354.8389"/><text fill="#000000" font-family="sans-serif" font-size="12" lengthAdjust="spacing" textLength="153.1055" x="77.292" y="375.9775">&#1059;&#1089;&#1087;&#1110;&#1096;&#1085;&#1086; &#1088;&#1077;&#1076;&#1072;&#1075;&#1091;&#1108; &#1079;&#1072;&#1076;&#1072;&#1095;&#1091;</text><ellipse cx="151.9375" cy="419.8076" fill="none" rx="11" ry="11" style="stroke:#222222;stroke-width:1;"/><ellipse cx="151.9375" cy="419.8076" fill="#222222" rx="6" ry="6" style="stroke:#222222;stroke-width:1;"/><line style="stroke:#000000;stroke-width:1.5;" x1="15" x2="15" y1="12.7451" y2="430.8076"/><path d="M494.0664,237.4561 L494.0664,253.5889 L474.0664,257.5889 L494.0664,261.5889 L494.0664,277.7217 A0,0 0 0 0 494.0664,277.7217 L709.3936,277.7217 A0,0 0 0 0 709.3936,277.7217 L709.3936,247.4561 L699.3936,237.4561 L494.0664,237.4561 A0,0 0 0 0 494.0664,237.4561 " fill="#FFAAAA" style="stroke:#181818;stroke-width:0.5;"/><path d="M699.3936,237.4561 L699.3936,247.4561 L709.3936,247.4561 L699.3936,237.4561 " fill="#FFAAAA" style="stroke:#181818;stroke-width:0.5;"/><text fill="#000000" font-family="sans-serif" font-size="13" font-weight="bold" lengthAdjust="spacing" textLength="168.2129" x="504.5923" y="254.5229">&#1052;&#1086;&#1078;&#1083;&#1080;&#1074;&#1110; &#1074;&#1080;&#1082;&#1083;&#1102;&#1095;&#1077;&#1085;&#1085;&#1103;:</text><text fill="#000000" font-family="sans-serif" font-size="13" font-weight="bold" lengthAdjust="spacing" textLength="189.8013" x="504.5923" y="269.6558">InsufficientDataException</text><rect fill="#F1F1F1" height="33.9688" rx="12.5" ry="12.5" style="stroke:#181818;stroke-width:0.5;" width="169.8945" x="304.1719" y="240.6045"/><text fill="#000000" font-family="sans-serif" font-size="12" lengthAdjust="spacing" textLength="146.0801" x="317.9863" y="261.7432">&#1055;&#1077;&#1088;&#1077;&#1074;&#1110;&#1088;&#1103;&#1108; &#1074;&#1074;&#1077;&#1076;&#1077;&#1085;&#1110; &#1076;&#1072;&#1085;&#1110;</text><path d="M505.3633,294.5732 L505.3633,310.7061 L485.3633,314.7061 L505.3633,318.7061 L505.3633,334.8389 A0,0 0 0 0 505.3633,334.8389 L708.5156,334.8389 A0,0 0 0 0 708.5156,334.8389 L708.5156,304.5732 L698.5156,294.5732 L505.3633,294.5732 A0,0 0 0 0 505.3633,294.5732 " fill="#FFAAAA" style="stroke:#181818;stroke-width:0.5;"/><path d="M698.5156,294.5732 L698.5156,304.5732 L708.5156,304.5732 L698.5156,294.5732 " fill="#FFAAAA" style="stroke:#181818;stroke-width:0.5;"/><text fill="#000000" font-family="sans-serif" font-size="13" font-weight="bold" lengthAdjust="spacing" textLength="172.5737" x="515.8892" y="311.6401">&#1052;&#1086;&#1078;&#1083;&#1080;&#1074;&#1077; &#1074;&#1080;&#1082;&#1083;&#1102;&#1095;&#1077;&#1085;&#1085;&#1103;:</text><text fill="#000000" font-family="sans-serif" font-size="13" font-weight="bold" lengthAdjust="spacing" textLength="177.6265" x="515.8892" y="326.7729">TaskNotFoundException</text><rect fill="#F1F1F1" height="33.9688" rx="12.5" ry="12.5" style="stroke:#181818;stroke-width:0.5;" width="192.4883" x="292.875" y="297.7217"/><text fill="#000000" font-family="sans-serif" font-size="12" lengthAdjust="spacing" textLength="168.6738" x="306.6895" y="318.8604">&#1055;&#1077;&#1088;&#1077;&#1074;&#1110;&#1088;&#1103;&#1108;, &#1095;&#1080; &#1110;&#1089;&#1085;&#1091;&#1108; &#1079;&#1072;&#1076;&#1072;&#1095;&#1072;</text><line style="stroke:#000000;stroke-width:1.5;" x1="286.875" x2="286.875" y1="12.7451" y2="430.8076"/><line style="stroke:#000000;stroke-width:1.5;" x1="714.3936" x2="714.3936" y1="12.7451" y2="430.8076"/><line style="stroke:#181818;stroke-width:1;" x1="151.9375" x2="151.9375" y1="58.6982" y2="78.6982"/><polygon fill="#181818" points="147.9375,68.6982,151.9375,78.6982,155.9375,68.6982,151.9375,72.6982" style="stroke:#181818;stroke-width:1;"/><line style="stroke:#181818;stroke-width:1;" x1="151.9375" x2="151.9375" y1="112.667" y2="132.667"/><polygon fill="#181818" points="147.9375,122.667,151.9375,132.667,155.9375,122.667,151.9375,126.667" style="stroke:#181818;stroke-width:1;"/><line style="stroke:#181818;stroke-width:1;" x1="151.9375" x2="151.9375" y1="166.6357" y2="186.6357"/><polygon fill="#181818" points="147.9375,176.6357,151.9375,186.6357,155.9375,176.6357,151.9375,180.6357" style="stroke:#181818;stroke-width:1;"/><line style="stroke:#181818;stroke-width:1;" x1="151.9375" x2="151.9375" y1="388.8076" y2="408.8076"/><polygon fill="#181818" points="147.9375,398.8076,151.9375,408.8076,155.9375,398.8076,151.9375,402.8076" style="stroke:#181818;stroke-width:1;"/><line style="stroke:#181818;stroke-width:1;" x1="389.1191" x2="389.1191" y1="274.5732" y2="297.7217"/><polygon fill="#181818" points="385.1191,287.7217,389.1191,297.7217,393.1191,287.7217,389.1191,291.7217" style="stroke:#181818;stroke-width:1;"/><line style="stroke:#181818;stroke-width:1;" x1="151.9375" x2="151.9375" y1="220.6045" y2="225.6045"/><line style="stroke:#181818;stroke-width:1;" x1="151.9375" x2="389.1191" y1="225.6045" y2="225.6045"/><line style="stroke:#181818;stroke-width:1;" x1="389.1191" x2="389.1191" y1="225.6045" y2="240.6045"/><polygon fill="#181818" points="385.1191,230.6045,389.1191,240.6045,393.1191,230.6045,389.1191,234.6045" style="stroke:#181818;stroke-width:1;"/><line style="stroke:#181818;stroke-width:1;" x1="389.1191" x2="389.1191" y1="331.6904" y2="339.8389"/><line style="stroke:#181818;stroke-width:1;" x1="389.1191" x2="151.9375" y1="339.8389" y2="339.8389"/><line style="stroke:#181818;stroke-width:1;" x1="151.9375" x2="151.9375" y1="339.8389" y2="354.8389"/><polygon fill="#181818" points="147.9375,344.8389,151.9375,354.8389,155.9375,344.8389,151.9375,348.8389" style="stroke:#181818;stroke-width:1;"/><text fill="#000000" font-family="sans-serif" font-size="18" lengthAdjust="spacing" textLength="110.2236" x="95.8257" y="29.4531">&#1050;&#1086;&#1088;&#1080;&#1089;&#1090;&#1091;&#1074;&#1072;&#1095;</text><text fill="#000000" font-family="sans-serif" font-size="18" lengthAdjust="spacing" textLength="80.332" x="460.4683" y="29.4531">&#1057;&#1080;&#1089;&#1090;&#1077;&#1084;&#1072;</text><!--SRC=[ZPB1IiD048RlUOgbNds2LZofuCMJBn3RH8EmASqMFEJGD8Tw40CY4KGHyGLYQZIqJViACs_aFuc7LegON6Ptvl_dczqDwP6MFAAI8nvpJ3bbF0cjmDW3qx7QYkwef7UaHqZSA_gYZ3waXcE5OCw9GggGFPesUggeugHZDUeAzX7qOxuHzO9JR9MYNQwxfKtzCnPZWQ5Pqw-YJ2662wreXgOjUW1FKJUTIksQQmic8Rqsmo2_e2mKrvUV-fnJ7d4YlZb-eIx0cgeQlweXj6ySDV3EBupQSLqRdxLtjg_e2GIVDCTfv2B84Smm_YrFn4CcRjU5npeOkgxNzHnj3cnZ7rvrdRxnV6qvkgV4tTgAjAlWL2ei8vZ56sTDsV_0gFW3xDGEBazyS-GFTMyRLBZz9O3r3KWhW5tBDMnSzwyN0Sh0-FtEDm00]--></g></svg>