<svg xmlns="http://www.w3.org/2000/svg" xmlns:xlink="http://www.w3.org/1999/xlink" contentStyleType="text/css" height="385px" preserveAspectRatio="none" style="width:951px;height:385px;background:#FFFFFF;" version="1.1" viewBox="0 0 951 385" width="951px" zoomAndPan="magnify"><defs/><g><rect fill="none" height="20.9531" style="stroke:none;stroke-width:1;" width="918.6382" x="15" y="12.7451"/><ellipse cx="169.1729" cy="48.6982" fill="#222222" rx="10" ry="10" style="stroke:#222222;stroke-width:1;"/><rect fill="#F1F1F1" height="33.9688" rx="12.5" ry="12.5" style="stroke:#181818;stroke-width:0.5;" width="200.7031" x="68.8213" y="78.6982"/><text fill="#000000" font-family="sans-serif" font-size="12" lengthAdjust="spacing" textLength="176.8887" x="82.6357" y="99.8369">&#1042;&#1074;&#1086;&#1076;&#1080;&#1090;&#1100; &#1082;&#1088;&#1080;&#1090;&#1077;&#1088;&#1110;&#1111; &#1092;&#1110;&#1083;&#1100;&#1090;&#1088;&#1072;&#1094;&#1110;&#1111;</text><rect fill="#F1F1F1" height="33.9688" rx="12.5" ry="12.5" style="stroke:#181818;stroke-width:0.5;" width="244.4082" x="46.9688" y="132.667"/><text fill="#000000" font-family="sans-serif" font-size="12" lengthAdjust="spacing" textLength="220.5938" x="60.7832" y="153.8057">&#1053;&#1072;&#1090;&#1080;&#1089;&#1082;&#1072;&#1108; &#1085;&#1072; &#1082;&#1085;&#1086;&#1087;&#1082;&#1091; "&#1060;&#1110;&#1083;&#1100;&#1090;&#1088;&#1091;&#1074;&#1072;&#1090;&#1080;"</text><rect fill="#F1F1F1" height="33.9688" rx="12.5" ry="12.5" style="stroke:#181818;stroke-width:0.5;" width="296.3457" x="21" y="297.7217"/><text fill="#000000" font-family="sans-serif" font-size="12" lengthAdjust="spacing" textLength="272.5313" x="34.8145" y="318.8604">&#1042;&#1110;&#1076;&#1086;&#1073;&#1088;&#1072;&#1078;&#1072;&#1108; &#1074;&#1110;&#1076;&#1092;&#1110;&#1083;&#1100;&#1090;&#1088;&#1086;&#1074;&#1072;&#1085;&#1080;&#1081; &#1089;&#1087;&#1080;&#1089;&#1086;&#1082; &#1079;&#1072;&#1076;&#1072;&#1095;</text><ellipse cx="169.1729" cy="362.6904" fill="none" rx="11" ry="11" style="stroke:#222222;stroke-width:1;"/><ellipse cx="169.1729" cy="362.6904" fill="#222222" rx="6" ry="6" style="stroke:#222222;stroke-width:1;"/><line style="stroke:#000000;stroke-width:1.5;" x1="15" x2="15" y1="12.7451" y2="373.6904"/><rect fill="#F1F1F1" height="33.9688" rx="12.5" ry="12.5" style="stroke:#181818;stroke-width:0.5;" width="219.4063" x="405.0205" y="186.6357"/><text fill="#000000" font-family="sans-serif" font-size="12" lengthAdjust="spacing" textLength="195.5918" x="418.835" y="207.7744">&#1054;&#1073;&#1088;&#1086;&#1073;&#1083;&#1103;&#1108; &#1079;&#1072;&#1087;&#1080;&#1090; &#1085;&#1072; &#1092;&#1110;&#1083;&#1100;&#1090;&#1088;&#1072;&#1094;&#1110;&#1102;</text><path d="M722.1016,237.4561 L722.1016,253.5889 L702.1016,257.5889 L722.1016,261.5889 L722.1016,277.7217 A0,0 0 0 0 722.1016,277.7217 L926.7773,277.7217 A0,0 0 0 0 926.7773,277.7217 L926.7773,247.4561 L916.7773,237.4561 L722.1016,237.4561 A0,0 0 0 0 722.1016,237.4561 " fill="#FFAAAA" style="stroke:#181818;stroke-width:0.5;"/><path d="M916.7773,237.4561 L916.7773,247.4561 L926.7773,247.4561 L916.7773,237.4561 " fill="#FFAAAA" style="stroke:#181818;stroke-width:0.5;"/><text fill="#000000" font-family="sans-serif" font-size="13" font-weight="bold" lengthAdjust="spacing" textLength="172.5737" x="732.6274" y="254.5229">&#1052;&#1086;&#1078;&#1083;&#1080;&#1074;&#1077; &#1074;&#1080;&#1082;&#1083;&#1102;&#1095;&#1077;&#1085;&#1085;&#1103;:</text><text fill="#000000" font-family="sans-serif" font-size="13" font-weight="bold" lengthAdjust="spacing" textLength="179.1499" x="732.6274" y="269.6558">NoTasksFoundException</text><rect fill="#F1F1F1" height="33.9688" rx="12.5" ry="12.5" style="stroke:#181818;stroke-width:0.5;" width="374.7559" x="327.3457" y="240.6045"/><text fill="#000000" font-family="sans-serif" font-size="12" lengthAdjust="spacing" textLength="350.9414" x="341.1602" y="261.7432">&#1055;&#1077;&#1088;&#1077;&#1074;&#1110;&#1088;&#1103;&#1108; &#1085;&#1072;&#1103;&#1074;&#1085;&#1110;&#1089;&#1090;&#1100; &#1079;&#1072;&#1076;&#1072;&#1095;, &#1097;&#1086; &#1074;&#1110;&#1076;&#1087;&#1086;&#1074;&#1110;&#1076;&#1072;&#1102;&#1090;&#1100; &#1082;&#1088;&#1080;&#1090;&#1077;&#1088;&#1110;&#1103;&#1084;</text><line style="stroke:#000000;stroke-width:1.5;" x1="321.3457" x2="321.3457" y1="12.7451" y2="373.6904"/><line style="stroke:#000000;stroke-width:1.5;" x1="931.7773" x2="931.7773" y1="12.7451" y2="373.6904"/><line style="stroke:#181818;stroke-width:1;" x1="169.1729" x2="169.1729" y1="58.6982" y2="78.6982"/><polygon fill="#181818" points="165.1729,68.6982,169.1729,78.6982,173.1729,68.6982,169.1729,72.6982" style="stroke:#181818;stroke-width:1;"/><line style="stroke:#181818;stroke-width:1;" x1="169.1729" x2="169.1729" y1="112.667" y2="132.667"/><polygon fill="#181818" points="165.1729,122.667,169.1729,132.667,173.1729,122.667,169.1729,126.667" style="stroke:#181818;stroke-width:1;"/><line style="stroke:#181818;stroke-width:1;" x1="169.1729" x2="169.1729" y1="331.6904" y2="351.6904"/><polygon fill="#181818" points="165.1729,341.6904,169.1729,351.6904,173.1729,341.6904,169.1729,345.6904" style="stroke:#181818;stroke-width:1;"/><line style="stroke:#181818;stroke-width:1;" x1="514.7236" x2="514.7236" y1="220.6045" y2="240.6045"/><polygon fill="#181818" points="510.7236,230.6045,514.7236,240.6045,518.7236,230.6045,514.7236,234.6045" style="stroke:#181818;stroke-width:1;"/><line style="stroke:#181818;stroke-width:1;" x1="169.1729" x2="169.1729" y1="166.6357" y2="171.6357"/><line style="stroke:#181818;stroke-width:1;" x1="169.1729" x2="514.7236" y1="171.6357" y2="171.6357"/><line style="stroke:#181818;stroke-width:1;" x1="514.7236" x2="514.7236" y1="171.6357" y2="186.6357"/><polygon fill="#181818" points="510.7236,176.6357,514.7236,186.6357,518.7236,176.6357,514.7236,180.6357" style="stroke:#181818;stroke-width:1;"/><line style="stroke:#181818;stroke-width:1;" x1="514.7236" x2="514.7236" y1="274.5732" y2="282.7217"/><line style="stroke:#181818;stroke-width:1;" x1="514.7236" x2="169.1729" y1="282.7217" y2="282.7217"/><line style="stroke:#181818;stroke-width:1;" x1="169.1729" x2="169.1729" y1="282.7217" y2="297.7217"/><polygon fill="#181818" points="165.1729,287.7217,169.1729,297.7217,173.1729,287.7217,169.1729,291.7217" style="stroke:#181818;stroke-width:1;"/><text fill="#000000" font-family="sans-serif" font-size="18" lengthAdjust="spacing" textLength="110.2236" x="113.061" y="29.4531">&#1050;&#1086;&#1088;&#1080;&#1089;&#1090;&#1091;&#1074;&#1072;&#1095;</text><text fill="#000000" font-family="sans-serif" font-size="18" lengthAdjust="spacing" textLength="80.332" x="586.3955" y="29.4531">&#1057;&#1080;&#1089;&#1090;&#1077;&#1084;&#1072;</text><!--SRC=[RL5DIiDW4Dtd51zrwmbQSQTBLrwWsbQBa9GcWeiiqbGiGcb0f8BuW-01qj9gJTklLtXp8zzy4LHeDfbCvltCcnYFi99W8Jr9fOyfSXd4NXZLkr7DgnhSiMKnuq0gGuF2pQQOIo9ZUJ1oBMCiPSY_2Q4tsgnv2dpcPwgyA5ZT6woH4y-NnOOyVLF1-o_uHvk82l4ntafBc6E5F5R25qoeOJ4X95F2J-HaefkIUukLKMdbLUsIQSfMKc89a8oAQxPwvMfADzFrTutSmXeTPsD3oRBAPRGjX0mholX1r3JTzjbvP7PQhJeVR-zat-29y0yiiQ3Od9mi2heSoO26rjJFgcxmA3YkXnVXON3fDmwkJfkTg1tuNjDl66NMHBOUIY_ap5cNJauj5xPp_2yHgn0gBl1bU9IDEur5yMTnhX56GQVs3G00]--></g></svg>